<svg xmlns="http://www.w3.org/2000/svg" width="214" height="50"><title>sonarworks_logo_white</title><desc>Created with Sketch.</desc><g fill="none"><g><g transform="translate(-199 -35) translate(199 35)"><circle cx="24" cy="23" r="20" fill="#fff"/><path id="Shape" fill="#4672D5" d="M25 0C11.2 0 0 11.2 0 25s11.2 25 25 25 25-11.2 25-25S38.8 0 25 0zm15.9 19.56v.07l-2.2 10.94c-.14.95-.9 2.7-2.78 2.7-1.78 0-2.6-1.66-2.78-2.65 0 0-2.64-11-2.64-11 0-.03-.2-.98-.7-.98-.64 0-.76.92-.76.93 0 .02 0 .04 0 .06L26.8 30.58c-.15.95-.92 2.7-2.8 2.7-1.78 0-2.6-1.67-2.82-2.65l-2.6-10.94c-.15-.64-.73-1.07-1.37-1.04h-5.05c-.68-.02-1.33.25-1.8.75-.48.5-.72 1.18-.68 1.87-.04.7.2 1.37.67 1.87.47.5 1.13.76 1.8.73h1.34c1.73 0 5 .97 5 4.68 0 3.7-3.24 4.72-5 4.74H8.67v-2.1h4.85c.47 0 2.92-.2 2.92-2.65 0-2.45-2.43-2.6-2.92-2.6h-1.33c-1.22.04-2.4-.45-3.26-1.34-.85-.87-1.3-2.08-1.27-3.33-.04-1.24.43-2.45 1.28-3.33.87-.9 2.05-1.38 3.27-1.36h5.06c1.6-.03 3.02 1.06 3.42 2.65l2.62 10.96c0 .02.27 1 .78 1 .5 0 .72-.9.73-.93 0-.04 2.18-11 2.18-11 .14-.94.92-2.68 2.83-2.68 1.76 0 2.58 1.7 2.73 2.63l2.64 10.94c0 .06.24 1.02.73 1.02.5 0 .74-.94.74-.95 0-.02 2.18-10.98 2.18-10.98.18-1.52 1.44-2.68 2.94-2.7v2.1c-.45.02-.82.4-.85.9z"/><path fill="#fff" d="M72.7 24.4l-2.93-1.8c-1.37-.8-2.03-1.33-2.03-2.24 0-1.42.96-1.7 2.7-1.7 1.22 0 2.77.1 4.62.25h.1c.15.02.3-.04.4-.15.13-.12.18-.27.16-.43v-1c0-.36-.27-.64-.62-.66-1.54-.27-3.1-.4-4.65-.4-3.72 0-5.45 1.3-5.45 4.1 0 2.23 1.64 3.52 3.06 4.4l3 1.83c1.66 1.03 2.2 1.53 2.2 2.45 0 1.5-.8 2.1-2.87 2.1-1 0-3.1-.17-4.68-.34h-.13c-.16 0-.3.04-.42.14-.1.1-.18.24-.18.4v1.05c.02.35.3.63.65.65 1.55.33 3.14.48 4.72.45C74 33.5 76 31.92 76 29.03c.02-1.88-.9-3.2-3.3-4.62zm12.83-8.15c-4.24 0-6.67 2.73-6.67 7.5v2.3c0 4.75 2.43 7.47 6.67 7.47 4.25 0 6.7-2.72 6.7-7.48v-2.3c0-4.77-2.44-7.5-6.7-7.5zm3.95 9.8c0 3.26-1.36 5-3.95 5-2.58 0-3.9-1.68-3.9-5v-2.3c0-3.34 1.3-5.02 3.9-5.02 2.62 0 3.95 1.7 3.95 5v2.32zm13.55-9.8c-1.65 0-3.27.48-4.67 1.36v-.46c0-.36-.3-.65-.65-.65h-1.48c-.36 0-.65.28-.65.64v15.5c0 .36.3.65.65.65h1.46c.37 0 .66-.3.66-.66V19.86c1.2-.68 2.54-1.08 3.92-1.16 2.33 0 3.2 1.07 3.2 3.9v10c0 .36.3.66.65.66h1.44c.36 0 .66-.3.66-.66v-10c.08-4.2-1.7-6.35-5.17-6.35zm14.37 0c-1.55 0-3.1.13-4.63.4-.36 0-.65.3-.65.66v1.07c0 .16.05.32.16.43.12.1.28.15.44.13h.16c1.52-.17 3.04-.25 4.57-.25 2.33 0 3.12.85 3.12 3.37v1.14h-2.14c-5.08 0-7.24 1.48-7.24 4.98v.36c0 4.13 2.67 5 4.9 5 1.62-.06 3.18-.56 4.53-1.45v.54c0 .36.3.66.65.66h1.37c.36 0 .66-.3.66-.66v-10.6c-.03-3.84-2.03-5.8-5.9-5.8zM120.52 30c-1.18.77-2.55 1.18-3.95 1.2-1.6 0-2.67-.46-2.67-2.7v-.4c0-1.95.7-2.9 4.48-2.9h2.14V30zm13.63-13.75c-1.5.03-2.93.52-4.13 1.4v-.5c0-.36-.3-.65-.65-.65h-1.4c-.36 0-.65.3-.65.65v15.5c0 .35.3.65.65.65h1.47c.36 0 .65-.3.65-.66v-12.7c1.18-.8 2.58-1.24 4.02-1.24.18.03.35-.02.5-.13.12-.1.2-.28.2-.45v-1.25c0-.18-.06-.34-.2-.46-.12-.1-.3-.17-.46-.15zm22.38.22c-.3.02-.53.25-.57.54l-2.46 13.86c-.1.3-.12.3-.18.3-.1-.05-.18-.17-.18-.3l-2.9-13.47c-.1-.6-.66-1.03-1.26-.97h-1.67c-.6-.07-1.16.36-1.25.96l-2.92 13.46c0 .13-.06.25-.17.3-.06 0-.1 0-.18-.3l-2.43-13.85c-.03-.28-.27-.5-.57-.53h-1.6c-.37 0-.66.3-.66.65v.15l2.9 14.1c.4 1.9.7 2.14 2.55 2.14 1.6 0 2-.37 2.5-2.23l2.62-12.1.04-.14c0-.03.04.12.04.12l2.6 12.13c.5 1.9.86 2.24 2.52 2.24 1.78 0 2.16-.18 2.56-2.16l2.9-14.1v-.13c0-.34-.26-.62-.6-.66h-1.63zm11-.22c-4.23 0-6.66 2.73-6.66 7.5v2.3c0 4.75 2.42 7.47 6.67 7.47s6.7-2.72 6.7-7.48v-2.3c0-4.77-2.44-7.5-6.7-7.5zm3.96 9.8c0 3.26-1.38 5-3.96 5s-3.92-1.68-3.92-5v-2.3c0-3.34 1.3-5.02 3.92-5.02 2.6 0 3.95 1.7 3.95 5v2.32zm12.96-9.8c-1.48.03-2.93.52-4.12 1.4v-.5c0-.37-.3-.67-.66-.67h-1.4c-.35 0-.65.3-.65.66v15.5c0 .35.3.64.66.64h1.44c.36 0 .66-.3.66-.65v-12.7c1.2-.8 2.6-1.23 4.03-1.23.17.03.35-.02.5-.13.12-.1.2-.28.2-.45v-1.25c0-.17-.06-.34-.2-.46-.1-.1-.3-.17-.46-.15zm15.4.62c0-.13-.07-.25-.16-.32-.1-.08-.23-.1-.36-.08h-2.1c-.24-.03-.5.08-.64.3l-5.84 6.7v-6.42c0-.36-.3-.65-.65-.65h-1.42c-.36 0-.65.3-.65.65v15.6c0 .35.3.64.65.64h1.43c.37 0 .66-.3.66-.66v-7.07l5.8 7.32c.14.27.43.44.74.4h2.14c.12 0 .23-.04.3-.13.1-.1.12-.2.1-.32 0-.12-.04-.23-.1-.32l-6.58-8.1 6.53-7.18c.1-.1.16-.24.17-.38h-.02zm10.44 7.54l-2.94-1.8c-1.37-.8-2.03-1.33-2.03-2.24 0-1.42.95-1.7 2.7-1.7 1.23 0 2.77.1 4.6.25h.1c.16.02.32-.03.44-.15.1-.1.16-.27.14-.43v-1c0-.35-.26-.64-.6-.66-1.54-.27-3.1-.4-4.67-.4-3.72 0-5.45 1.3-5.45 4.1 0 2.23 1.65 3.52 3.07 4.4l3 1.83c1.66 1.03 2.2 1.53 2.2 2.45 0 1.5-.8 2.1-2.87 2.1-1 0-3.1-.17-4.68-.34h-.12c-.15 0-.3.04-.42.14-.1.1-.18.24-.18.4v1.05c.02.35.3.63.65.65 1.55.33 3.13.48 4.72.45 3.63 0 5.63-1.58 5.63-4.47 0-1.88-.9-3.2-3.3-4.62h.02z"/></g></g></g></svg>