<svg width="93" height="18" viewBox="0 0 93 18" fill="none" xmlns="http://www.w3.org/2000/svg">
<path d="M25.792 0.168001L20.448 14.472L15.072 0.168001H13.12L7.712 14.472L2.432 0.168001H0.255997L6.592 17H8.736L14.048 3.208L19.36 17H21.504L27.872 0.168001H25.792Z" fill="black"/>
<path d="M40.681 0.0400009C38.025 0.0400009 35.529 0.872003 33.833 2.312L34.857 4.008C36.233 2.792 38.281 2.024 40.457 2.024C43.593 2.024 45.225 3.592 45.225 6.472V7.496H39.881C35.049 7.496 33.385 9.672 33.385 12.264C33.385 15.176 35.721 17.16 39.529 17.16C42.313 17.16 44.297 16.104 45.321 14.376V17H47.497V6.568C47.497 2.216 45.033 0.0400009 40.681 0.0400009ZM39.881 15.368C37.193 15.368 35.625 14.152 35.625 12.2C35.625 10.472 36.681 9.192 39.945 9.192H45.225V11.944C44.329 14.152 42.441 15.368 39.881 15.368Z" fill="black"/>
<path d="M69.2595 0.168001L62.8915 14.504L56.5875 0.168001H54.2195L61.6755 17H64.0115L71.4995 0.168001H69.2595Z" fill="black"/>
<path d="M92.9185 8.584C92.9185 3.528 89.4945 0.0400009 84.7585 0.0400009C80.0225 0.0400009 76.5345 3.592 76.5345 8.584C76.5345 13.576 80.1185 17.16 85.3665 17.16C88.0225 17.16 90.3585 16.2 91.8625 14.408L90.5825 12.936C89.3025 14.408 87.4785 15.144 85.4305 15.144C81.7505 15.144 79.0625 12.808 78.8065 9.288H92.8865C92.8865 9.032 92.9185 8.776 92.9185 8.584ZM84.7585 1.992C88.0545 1.992 90.4545 4.296 90.7425 7.592H78.8065C79.0945 4.296 81.4945 1.992 84.7585 1.992Z" fill="black"/>
</svg>
