<svg xmlns="http://www.w3.org/2000/svg" width="360" height="248" viewBox="0 0 360 248">
    <g fill="none" fill-rule="evenodd">
        <path fill="#FFF" d="M-328-4432H952V540H-328z"/>
        <path fill="#262931" d="M259.77 143.188c0 2.659-2.056 4.812-4.6 4.812H104.607c-2.543 0-4.607-2.153-4.607-4.812v-38.37c0-2.657 2.064-4.818 4.607-4.818h150.561c2.546 0 4.601 2.16 4.601 4.818l.001 38.37z"/>
        <path fill="#FFF" d="M135.203 124.096c.04 4.635 4.055 6.168 4.104 6.185-.024.108-.628 2.211-2.134 4.347-1.258 1.88-2.576 3.719-4.668 3.753-2.033.046-2.717-1.197-5.049-1.197-2.353 0-3.081 1.163-5.031 1.243-1.994.074-3.516-2.007-4.82-3.87-2.605-3.806-4.633-10.724-1.914-15.432 1.318-2.308 3.72-3.795 6.288-3.835 1.996-.04 3.848 1.348 5.074 1.348 1.202 0 3.492-1.661 5.852-1.413.988.03 3.798.39 5.612 3.034-.147.088-3.348 1.97-3.314 5.837zm-4.217-11.99c-1.094 1.292-2.845 2.28-4.55 2.152-.224-1.742.64-3.595 1.608-4.725 1.093-1.283 2.991-2.266 4.51-2.333.198 1.81-.52 3.595-1.568 4.907z"/>
        <text fill="#FFF" font-family="AkkuratPro-Bold, Akkurat Pro" font-size="22" font-weight="bold" letter-spacing="-.4" transform="translate(100 100)">
            <tspan x="50" y="37">App Stor</tspan> <tspan x="135.504" y="37">e</tspan>
        </text>
        <text fill="#FFF" font-family="AkkuratPro-Bold, Akkurat Pro" font-size="11" font-weight="bold" letter-spacing=".7" transform="translate(100 100)">
            <tspan x="52" y="15">Download on th</tspan> <tspan x="141.121" y="15">e</tspan>
        </text>
    </g>
</svg>
