<svg xmlns="http://www.w3.org/2000/svg" width="160" height="48" viewBox="0 0 160 48">
    <g fill="none" fill-rule="evenodd">
        <path fill="#262931" d="M159.77 43.188c0 2.659-2.056 4.812-4.6 4.812H4.607C2.064 48 0 45.847 0 43.188V4.818C0 2.16 2.064 0 4.607 0h150.561c2.546 0 4.601 2.16 4.601 4.818l.001 38.37z"/>
        <path fill="#FFF" d="M35.203 24.096c.04 4.635 4.055 6.168 4.104 6.185-.024.108-.628 2.211-2.134 4.347-1.258 1.88-2.576 3.719-4.668 3.753-2.033.046-2.717-1.197-5.049-1.197-2.353 0-3.081 1.163-5.031 1.243-1.994.074-3.516-2.007-4.82-3.87C15 30.75 12.972 23.832 15.691 19.124c1.318-2.308 3.72-3.795 6.288-3.835 1.996-.04 3.848 1.348 5.074 1.348 1.202 0 3.492-1.661 5.852-1.413.988.03 3.798.39 5.612 3.034-.147.088-3.348 1.97-3.314 5.837zm-4.217-11.99c-1.094 1.292-2.845 2.28-4.55 2.152-.224-1.742.64-3.595 1.608-4.725 1.093-1.283 2.991-2.266 4.51-2.333.198 1.81-.52 3.595-1.568 4.907zM64.058 37h-2.97l-1.012-2.992h-6.204L52.86 37H50l5.478-15.598h3.102L64.058 37zm-4.862-5.544l-2.222-6.578-2.222 6.578h4.444zm16.76-.198c0 2.244-.682 3.982-2.046 5.104-.704.572-1.628.924-2.794.924-1.364 0-2.464-.484-2.992-1.122v5.214h-2.75V25.56h2.376l.176 1.254c.682-1.056 1.958-1.518 3.212-1.518a4.31 4.31 0 0 1 2.772.968c1.364 1.122 2.046 2.838 2.046 4.994zm-2.794.044c0-.99-.154-2.046-.726-2.794-.396-.506-.99-.902-1.848-.902-2.156 0-2.596 2.046-2.596 3.696 0 1.65.44 3.674 2.596 3.674.858 0 1.452-.396 1.848-.902.572-.748.726-1.782.726-2.772zm15.506-.044c0 2.244-.682 3.982-2.046 5.104-.704.572-1.628.924-2.794.924-1.364 0-2.464-.484-2.992-1.122v5.214h-2.75V25.56h2.376l.176 1.254c.682-1.056 1.958-1.518 3.212-1.518a4.31 4.31 0 0 1 2.772.968c1.364 1.122 2.046 2.838 2.046 4.994zm-2.794.044c0-.99-.154-2.046-.726-2.794-.396-.506-.99-.902-1.848-.902-2.156 0-2.596 2.046-2.596 3.696 0 1.65.44 3.674 2.596 3.674.858 0 1.452-.396 1.848-.902.572-.748.726-1.782.726-2.772zm20.694 1.056c0 1.452-.528 2.486-1.298 3.256-1.188 1.188-3.014 1.672-4.928 1.672-1.65 0-3.388-.44-4.664-1.606-.924-.836-1.628-2.156-1.628-3.63h2.904c0 .77.352 1.452.814 1.914.66.66 1.716.836 2.618.836 1.078 0 2.112-.22 2.706-.836.352-.374.616-.748.616-1.496 0-1.144-.88-1.672-1.848-1.848-1.056-.198-2.42-.242-3.454-.418-2.156-.352-3.96-1.76-3.96-4.356 0-1.232.55-2.266 1.364-3.08 1.034-1.012 2.75-1.65 4.576-1.65 1.672 0 3.3.528 4.356 1.518.924.88 1.562 2.024 1.584 3.322h-2.904c-.022-.55-.308-1.144-.682-1.54-.506-.528-1.54-.836-2.376-.836-.88 0-1.892.198-2.53.858-.33.352-.528.748-.528 1.32 0 1.012.66 1.54 1.584 1.694.99.154 2.376.264 3.388.396 2.332.33 4.29 1.848 4.29 4.51zm8.51 4.488c-.77.198-1.54.308-2.354.308-2.31 0-3.454-1.32-3.454-3.52v-5.808h-2.09V25.56h2.09v-2.904l2.75-.682v3.586h2.882v2.266h-2.882v5.566c0 .88.396 1.254 1.276 1.254.572 0 1.034-.022 1.782-.11v2.31zm11.612-5.566c0 1.936-.484 3.146-1.342 4.224-.792.968-2.266 1.782-4.004 1.782-1.738 0-3.212-.814-4.004-1.782-.858-1.078-1.342-2.288-1.342-4.224 0-1.936.484-3.146 1.342-4.224.792-.968 2.266-1.782 4.004-1.782 1.738 0 3.212.814 4.004 1.782.858 1.078 1.342 2.288 1.342 4.224zm-2.794 0c0-1.078-.154-2.156-.814-2.882a2.404 2.404 0 0 0-1.738-.726c-.748 0-1.364.33-1.738.726-.66.726-.814 1.804-.814 2.882s.154 2.156.814 2.882c.374.396.99.726 1.738.726s1.364-.33 1.738-.726c.66-.726.814-1.804.814-2.882zm11.7-3.168a4.624 4.624 0 0 0-.946-.11c-1.936 0-2.948 1.386-2.948 3.234V37h-2.772V25.56h2.332l.242 1.716c.528-1.32 1.892-1.87 3.234-1.87.286 0 .572.022.858.066v2.64zm11.304 3.256s-.022.528-.022.77h-7.656c-.022.88.286 1.716.836 2.244.396.374.946.704 1.694.704.792 0 1.276-.154 1.672-.55.242-.242.44-.55.55-.968h2.64c-.066.682-.528 1.584-.968 2.112-.968 1.144-2.398 1.606-3.85 1.606-1.562 0-2.706-.55-3.608-1.408-1.144-1.1-1.76-2.706-1.76-4.576 0-1.826.55-3.454 1.65-4.576.858-.88 2.09-1.452 3.652-1.452 1.694 0 3.234.682 4.18 2.112.836 1.254 1.034 2.552.99 3.982zm-2.75-1.232c-.022-.858-.264-1.518-.704-2.002-.374-.396-.946-.66-1.738-.66-.836 0-1.518.352-1.914.88-.396.506-.572 1.034-.594 1.782h4.95zM59.051 11.095c0 1.078-.11 2.244-.913 3.069-.517.539-1.298.836-2.189.836h-3.036V7.201h3.036c.891 0 1.672.297 2.189.836.803.825.913 1.98.913 3.058zm-1.441 0c0-.715-.011-1.628-.561-2.178a1.543 1.543 0 0 0-1.1-.44h-1.617v5.247h1.617c.451 0 .836-.176 1.1-.44.55-.55.561-1.474.561-2.189zm8.422 1.045c0 .968-.242 1.573-.671 2.112-.396.484-1.133.891-2.002.891-.869 0-1.606-.407-2.002-.891-.429-.539-.671-1.144-.671-2.112 0-.968.242-1.573.671-2.112.396-.484 1.133-.891 2.002-.891.869 0 1.606.407 2.002.891.429.539.671 1.144.671 2.112zm-1.397 0c0-.539-.077-1.078-.407-1.441a1.202 1.202 0 0 0-.869-.363c-.374 0-.682.165-.869.363-.33.363-.407.902-.407 1.441s.077 1.078.407 1.441c.187.198.495.363.869.363s.682-.165.869-.363c.33-.363.407-.902.407-1.441zm10.732-2.86L73.97 15h-1.276l-1.298-3.861L70.12 15h-1.276l-1.452-5.72h1.331l.913 3.751 1.199-3.696h1.133l1.21 3.685.88-3.74h1.309zM82.051 15h-1.375v-3.509c0-.671-.22-1.078-.946-1.078-.484 0-.803.308-.99.726-.198.451-.187 1.045-.187 1.529V15h-1.375V9.28h1.155l.099.737c.341-.605 1.023-.88 1.683-.88 1.221 0 1.936.858 1.936 2.046V15zm4.462-.011c-.275.055-.33.077-.605.077-.935 0-1.562-.451-1.562-1.54V7.047h1.386v6.248c0 .33.077.55.55.55.121 0 .154-.011.231-.011v1.155zm6.783-2.849c0 .968-.242 1.573-.671 2.112-.396.484-1.133.891-2.002.891-.869 0-1.606-.407-2.002-.891-.429-.539-.671-1.144-.671-2.112 0-.968.242-1.573.671-2.112.396-.484 1.133-.891 2.002-.891.869 0 1.606.407 2.002.891.429.539.671 1.144.671 2.112zm-1.397 0c0-.539-.077-1.078-.407-1.441a1.202 1.202 0 0 0-.869-.363c-.374 0-.682.165-.869.363-.33.363-.407.902-.407 1.441s.077 1.078.407 1.441c.187.198.495.363.869.363s.682-.165.869-.363c.33-.363.407-.902.407-1.441zm8.4 2.794c-.231.099-.352.154-.682.154-.594 0-.924-.374-.968-.803-.264.462-.924.858-1.738.858-1.364 0-2.068-.858-2.068-1.793 0-1.089.847-1.716 1.936-1.793l1.683-.121v-.352c0-.539-.187-.902-.968-.902-.638 0-1.012.286-1.045.814h-1.331c.077-1.287 1.1-1.859 2.376-1.859.979 0 1.815.308 2.145 1.166.143.363.165.77.165 1.155v2.123c0 .264.088.363.319.363.088 0 .176-.022.176-.022v1.012zm-1.837-2.211v-.264l-1.452.11c-.418.033-.825.286-.825.748 0 .44.385.715.814.715.858 0 1.463-.462 1.463-1.309zM107.093 15h-1.188l-.088-.627c-.341.528-.979.759-1.606.759a2.186 2.186 0 0 1-1.397-.484c-.682-.561-1.012-1.419-1.012-2.497 0-1.122.341-1.991 1.023-2.552.352-.286.814-.462 1.397-.462.726 0 1.254.242 1.496.539V7.058h1.375V15zm-1.309-2.871c0-.825-.22-1.837-1.298-1.837-.429 0-.726.198-.924.451-.286.374-.363.891-.363 1.386 0 .495.077 1.023.363 1.397.198.253.495.451.924.451 1.078 0 1.298-1.023 1.298-1.848zm11.674.011c0 .968-.242 1.573-.671 2.112-.396.484-1.133.891-2.002.891-.869 0-1.606-.407-2.002-.891-.429-.539-.671-1.144-.671-2.112 0-.968.242-1.573.671-2.112.396-.484 1.133-.891 2.002-.891.869 0 1.606.407 2.002.891.429.539.671 1.144.671 2.112zm-1.397 0c0-.539-.077-1.078-.407-1.441a1.202 1.202 0 0 0-.869-.363c-.374 0-.682.165-.869.363-.33.363-.407.902-.407 1.441s.077 1.078.407 1.441c.187.198.495.363.869.363s.682-.165.869-.363c.33-.363.407-.902.407-1.441zm8.29 2.86h-1.375v-3.509c0-.671-.22-1.078-.946-1.078-.484 0-.803.308-.99.726-.198.451-.187 1.045-.187 1.529V15h-1.375V9.28h1.155l.099.737c.341-.605 1.023-.88 1.683-.88 1.221 0 1.936.858 1.936 2.046V15zm8.561-.077c-.385.099-.77.154-1.177.154-1.155 0-1.727-.66-1.727-1.76v-2.904h-1.045V9.28h1.045V7.828l1.375-.341V9.28h1.441v1.133h-1.441v2.783c0 .44.198.627.638.627.286 0 .517-.011.891-.055v1.155zm6.739.077h-1.375v-3.531c0-.66-.22-1.067-.946-1.067-.825 0-1.177.88-1.177 1.584V15h-1.375V7.058h1.375v2.827c.33-.484.968-.748 1.562-.748 1.221 0 1.936.869 1.936 2.046V15zm7.168-2.816s-.011.264-.011.385h-3.828c-.011.44.143.858.418 1.122.198.187.473.352.847.352.396 0 .638-.077.836-.275a1.04 1.04 0 0 0 .275-.484h1.32c-.033.341-.264.792-.484 1.056-.484.572-1.199.803-1.925.803-.781 0-1.353-.275-1.804-.704-.572-.55-.88-1.353-.88-2.288 0-.913.275-1.727.825-2.288.429-.44 1.045-.726 1.826-.726.847 0 1.617.341 2.09 1.056.418.627.517 1.276.495 1.991zm-1.375-.616c-.011-.429-.132-.759-.352-1.001-.187-.198-.473-.33-.869-.33-.418 0-.759.176-.957.44-.198.253-.286.517-.297.891h2.475z"/>
    </g>
</svg>
