<?xml version="1.0" encoding="UTF-8"?>
<svg width="48px" height="48px" viewBox="0 0 48 48" version="1.1" xmlns="http://www.w3.org/2000/svg" xmlns:xlink="http://www.w3.org/1999/xlink">
    <!-- Generator: Sketch 52.1 (67048) - http://www.bohemiancoding.com/sketch -->
    <title>icon/48/calendar</title>
    <desc>Created with Sketch.</desc>
    <g id="Page-1" stroke="none" stroke-width="1" fill="none" fill-rule="evenodd">
        <g id="Desktop" transform="translate(-207.000000, -543.000000)">
            <g id="Group" transform="translate(167.000000, 495.000000)">
                <g id="icon/48/calendar" transform="translate(40.000000, 48.000000)">
                    <g id="Union"></g>
                    <path d="M10,2 L14,2 L14,4 L14,6 L14,10 L10,10 L10,6 L10,4 L10,2 Z M8,4 L8,2 C8,0.895431 8.89543,0 10,0 L14,0 C15.1046,0 16,0.895431 16,2 L16,4 L32,4 L32,2 C32,0.895431 32.8954,0 34,0 L38,0 C39.1046,0 40,0.895431 40,2 L40,4 L44,4 C46.2091,4 48,5.79086 48,8 L48,44 C48,46.2091 46.2091,48 44,48 L4,48 C1.79086,48 0,46.2091 0,44 L0,8 C0,5.79086 1.79086,4 4,4 L8,4 Z M16,6 L32,6 L32,10 C32,11.1046 32.8954,12 34,12 L38,12 C39.1046,12 40,11.1046 40,10 L40,6 L44,6 C45.1046,6 46,6.89543 46,8 L46,15 L2,15 L2,8 C2,6.89543 2.89543,6 4,6 L8,6 L8,10 C8,11.1046 8.89543,12 10,12 L14,12 C15.1046,12 16,11.1046 16,10 L16,6 Z M38,2 L38,4 L38,6 L38,10 L34,10 L34,6 L34,4 L34,2 L38,2 Z M2,17 L46,17 L46,44 C46,45.1046 45.1046,46 44,46 L4,46 C2.89543,46 2,45.1046 2,44 L2,17 Z M30,24 L30,30 L38,30 L38,24 L30,24 Z M38,32 L30,32 L30,38 C30,39.1046 29.1046,40 28,40 L10,40 C8.89543,40 8,39.1046 8,38 L8,24 C8,22.8954 8.89543,22 10,22 L38,22 C39.1046,22 40,22.8954 40,24 L40,30 C40,31.1046 39.1046,32 38,32 Z M18,24 L10,24 L10,30 L18,30 L18,24 Z M10,38 L10,32 L18,32 L18,38 L10,38 Z M20,30 L20,24 L28,24 L28,30 L20,30 Z M20,32 L28,32 L28,38 L20,38 L20,32 Z" id="Shape" fill="#4672D5"></path>
                </g>
            </g>
        </g>
    </g>
</svg>