<svg xmlns="http://www.w3.org/2000/svg" width="160" height="48" viewBox="0 0 160 48">
    <g fill="none" fill-rule="evenodd">
        <path fill="#FFF" d="M154.087 48H5.913C2.647 48 0 45.291 0 41.95V6.05C0 2.709 2.647 0 5.913 0h148.174c1.568 0 3.072.637 4.181 1.772A6.122 6.122 0 0 1 160 6.05v35.973c-.039 3.313-2.675 5.977-5.913 5.977z"/>
        <path fill="#262931" d="M12.773 8.19l15.748 15.834L12.85 39.995c-.458-.292-.703-.926-.707-1.745L12 9.903c-.005-.897.32-1.444.773-1.713zm20.942 10.541l-19.15-10.52A1.917 1.917 0 0 0 13.896 8l15.277 15.36 4.542-4.629zm.851 10.05L29.83 24.02l4.732-4.822 6.518 3.58c1.605.88.784 1.983 0 2.416l-6.513 3.589zM14.147 40c.133-.05.273-.115.418-.195L33.719 29.25l-4.542-4.566L14.147 40zM128.074 36.213h2.238v-15.18h-2.238v15.18zm20.167-9.712l-2.565 6.582h-.078l-2.663-6.582h-2.412l3.995 9.199-2.278 5.117h2.335l6.157-14.316h-2.49zm-12.7 7.988c-.731 0-1.754-.372-1.754-1.29 0-1.17 1.273-1.62 2.374-1.62.983 0 1.447.215 2.045.507-.173 1.407-1.37 2.403-2.664 2.403zm.272-8.32c-1.621 0-3.3.723-3.995 2.324l1.987.84c.426-.84 1.217-1.113 2.046-1.113 1.158 0 2.337.703 2.355 1.952v.157c-.406-.235-1.274-.586-2.336-.586-2.142 0-4.323 1.192-4.323 3.417 0 2.032 1.757 3.341 3.726 3.341 1.505 0 2.335-.684 2.856-1.485h.077v1.172h2.162v-5.82c0-2.695-1.988-4.2-4.555-4.2zm-13.837 2.18h-3.186v-5.203h3.186c1.672 0 2.623 1.402 2.623 2.601 0 1.177-.95 2.602-2.623 2.602zm-.06-7.317h-5.364v15.181h2.238v-5.75h3.127c2.481 0 4.922-1.818 4.922-4.716 0-2.896-2.44-4.715-4.922-4.715zM92.66 34.492c-1.547 0-2.842-1.31-2.842-3.11 0-1.82 1.295-3.15 2.842-3.15 1.527 0 2.726 1.33 2.726 3.15 0 1.8-1.199 3.11-2.726 3.11zm2.571-7.14h-.078c-.503-.607-1.469-1.155-2.687-1.155-2.552 0-4.89 2.27-4.89 5.185 0 2.894 2.338 5.144 4.89 5.144 1.218 0 2.184-.547 2.687-1.174h.078v.743c0 1.977-1.044 3.032-2.726 3.032-1.372 0-2.223-.996-2.57-1.838l-1.953.822c.56 1.369 2.048 3.052 4.523 3.052 2.63 0 4.853-1.566 4.853-5.38V26.51H95.23v.841zm3.673 8.861h2.242v-15.18h-2.242v15.18zm5.548-5.008c-.058-1.996 1.529-3.012 2.669-3.012.889 0 1.643.45 1.895 1.095l-4.564 1.917zm6.96-1.721c-.425-1.154-1.72-3.287-4.37-3.287-2.628 0-4.812 2.093-4.812 5.165 0 2.895 2.164 5.164 5.064 5.164 2.34 0 3.693-1.447 4.254-2.288l-1.74-1.175c-.58.861-1.372 1.428-2.514 1.428-1.14 0-1.953-.528-2.474-1.565l6.824-2.856-.232-.586zm-54.37-1.702v2.191h5.182c-.155 1.232-.56 2.132-1.18 2.758-.754.763-1.933 1.605-4.002 1.605-3.19 0-5.683-2.602-5.683-5.83 0-3.227 2.494-5.83 5.683-5.83 1.721 0 2.978.684 3.905 1.566l1.528-1.546c-1.295-1.252-3.016-2.211-5.433-2.211-4.369 0-8.042 3.6-8.042 8.021 0 4.42 3.673 8.02 8.042 8.02 2.358 0 4.138-.783 5.529-2.25 1.431-1.447 1.875-3.48 1.875-5.125 0-.508-.038-.978-.115-1.369h-7.289zm13.295 6.71c-1.547 0-2.881-1.291-2.881-3.13 0-1.859 1.334-3.13 2.881-3.13 1.547 0 2.88 1.271 2.88 3.13 0 1.839-1.333 3.13-2.88 3.13zm0-8.295c-2.822 0-5.123 2.172-5.123 5.165 0 2.974 2.3 5.164 5.123 5.164 2.823 0 5.123-2.19 5.123-5.164 0-2.993-2.3-5.165-5.123-5.165zm11.176 8.294c-1.547 0-2.88-1.29-2.88-3.129 0-1.859 1.333-3.13 2.88-3.13s2.88 1.271 2.88 3.13c0 1.839-1.333 3.13-2.88 3.13zm0-8.294c-2.823 0-5.123 2.172-5.123 5.165 0 2.974 2.3 5.164 5.123 5.164 2.823 0 5.124-2.19 5.124-5.164 0-2.993-2.3-5.165-5.124-5.165zM55.831 15h-.913l-.165-.858c-.231.451-.979.99-1.958 1.001-.902.011-1.705-.22-2.321-.869-.814-.847-1.012-1.892-1.012-3.168 0-1.276.165-2.288 1.012-3.135.594-.594 1.485-.913 2.321-.913.957 0 1.782.352 2.31.891.385.396.671.891.715 1.573h-1.452c-.022-.308-.176-.517-.341-.715-.275-.319-.704-.473-1.243-.473-.451 0-.968.198-1.276.528-.539.561-.605 1.529-.605 2.244 0 .715.077 1.716.616 2.277.308.33.814.495 1.265.495.506 0 .902-.176 1.166-.451.418-.44.506-.924.506-1.518h-1.859v-1.177h3.234V15zm7.091-2.816s-.011.264-.011.385h-3.828c-.011.44.143.858.418 1.122.198.187.473.352.847.352.396 0 .638-.077.836-.275a1.04 1.04 0 0 0 .275-.484h1.32c-.033.341-.264.792-.484 1.056-.484.572-1.199.803-1.925.803-.781 0-1.353-.275-1.804-.704-.572-.55-.88-1.353-.88-2.288 0-.913.275-1.727.825-2.288.429-.44 1.045-.726 1.826-.726.847 0 1.617.341 2.09 1.056.418.627.517 1.276.495 1.991zm-1.375-.616c-.011-.429-.132-.759-.352-1.001-.187-.198-.473-.33-.869-.33-.418 0-.759.176-.957.44-.198.253-.286.517-.297.891h2.475zm6.541 3.355c-.385.099-.77.154-1.177.154-1.155 0-1.727-.66-1.727-1.76v-2.904h-1.045V9.28h1.045V7.828l1.375-.341V9.28H68v1.133h-1.441v2.783c0 .44.198.627.638.627.286 0 .517-.011.891-.055v1.155zm6.317-6.435h-1.474V7.069h1.474v1.419zM74.372 15h-1.397V9.28h1.397V15zm5.661-.077c-.385.099-.77.154-1.177.154-1.155 0-1.727-.66-1.727-1.76v-2.904h-1.045V9.28h1.045V7.828l1.375-.341V9.28h1.441v1.133h-1.441v2.783c0 .44.198.627.638.627.286 0 .517-.011.891-.055v1.155zm9.815-2.783c0 .968-.242 1.573-.671 2.112-.396.484-1.133.891-2.002.891-.869 0-1.606-.407-2.002-.891-.429-.539-.671-1.144-.671-2.112 0-.968.242-1.573.671-2.112.396-.484 1.133-.891 2.002-.891.869 0 1.606.407 2.002.891.429.539.671 1.144.671 2.112zm-1.397 0c0-.539-.077-1.078-.407-1.441a1.202 1.202 0 0 0-.869-.363c-.374 0-.682.165-.869.363-.33.363-.407.902-.407 1.441s.077 1.078.407 1.441c.187.198.495.363.869.363s.682-.165.869-.363c.33-.363.407-.902.407-1.441zm8.29 2.86h-1.375v-3.509c0-.671-.22-1.078-.946-1.078-.484 0-.803.308-.99.726-.198.451-.187 1.045-.187 1.529V15h-1.375V9.28h1.155l.099.737c.341-.605 1.023-.88 1.683-.88 1.221 0 1.936.858 1.936 2.046V15z"/>
    </g>
</svg>
