<svg xmlns="http://www.w3.org/2000/svg" width="360" height="248" viewBox="0 0 360 248">
    <g fill="none" fill-rule="evenodd">
        <path fill="#FFF" d="M-160-4432h1280V540H-160z"/>
        <path fill="#262931" d="M254.087 148H105.913c-3.266 0-5.913-2.709-5.913-6.05v-35.9c0-3.341 2.647-6.05 5.913-6.05h148.174c1.568 0 3.072.637 4.181 1.772A6.122 6.122 0 0 1 260 106.05v35.973c-.039 3.313-2.675 5.977-5.913 5.977z"/>
        <path fill="#FFF" d="M112.51 109.453a2.391 2.391 0 0 0-.55 1.662v26.209a2.391 2.391 0 0 0 .55 1.662l.084.083 14.85-14.682v-.323l-14.85-14.695-.084.084zM133.95 129.115l-4.95-4.89v-.335l4.95-4.89.108.06 5.858 3.3c1.674.932 1.674 2.475 0 3.42l-5.858 3.287-.108.048zM133.003 129.998L127.946 125 113 139.766c.708.61 1.745.64 2.487.072l17.504-9.828M132.96 118.604l-17.517-9.828a1.973 1.973 0 0 0-2.487.072l14.934 14.766 5.07-5.01zM181.486 126.573a5.034 5.034 0 1 0 5.117 5.033 4.998 4.998 0 0 0-5.117-5.033zm0 8.094a3.06 3.06 0 1 1 2.881-3.049 2.93 2.93 0 0 1-2.881 3.05zm-11.156-8.094a5.034 5.034 0 1 0 5.118 5.033 4.998 4.998 0 0 0-5.13-5.033h.012zm0 8.094a3.06 3.06 0 1 1 2.87-3.049 2.93 2.93 0 0 1-2.882 3.05h.012zm-13.283-6.54v2.14h5.177a4.424 4.424 0 0 1-1.196 2.69 5.345 5.345 0 0 1-3.993 1.567 5.691 5.691 0 0 1 0-11.37 5.524 5.524 0 0 1 3.897 1.53l1.53-1.53a7.592 7.592 0 0 0-5.427-2.153 7.987 7.987 0 0 0-8.035 7.832 7.987 7.987 0 0 0 8.035 7.831 7.281 7.281 0 0 0 5.524-2.2 7.628 7.628 0 0 0 1.757-6.337h-7.27zm54.294 1.65a4.783 4.783 0 0 0-4.364-3.204 4.783 4.783 0 0 0-4.783 5.033 4.962 4.962 0 0 0 5.058 5.034 5.07 5.07 0 0 0 4.244-2.236l-1.734-1.195a2.917 2.917 0 0 1-2.51 1.399 2.595 2.595 0 0 1-2.487-1.46l6.815-2.82-.24-.55zm-6.947 1.674a2.774 2.774 0 0 1 2.666-2.941 1.985 1.985 0 0 1 1.901 1.064l-4.567 1.877zm-5.548 4.854h2.236V121.54h-2.236v14.766zm-3.646-8.608h-.072a3.587 3.587 0 0 0-2.678-1.124 5.046 5.046 0 0 0 0 10.08 3.503 3.503 0 0 0 2.678-1.197h.072v.718a2.595 2.595 0 0 1-2.726 2.965 2.822 2.822 0 0 1-2.571-1.793l-1.949.8a4.866 4.866 0 0 0 4.52 2.978c2.63 0 4.842-1.53 4.842-5.25v-8.99H195.2v.813zm-2.56 6.97a3.06 3.06 0 0 1 0-6.11 2.858 2.858 0 0 1 2.727 3.073 2.834 2.834 0 0 1-2.75 3.037h.024zm29.222-13.152h-5.392v14.79h2.236v-5.571h3.12a4.603 4.603 0 1 0 0-9.195l.036-.024zm0 7.174h-3.156v-5.093h3.18a2.54 2.54 0 0 1 0 5.081l-.024.012zm13.822-2.128a4.197 4.197 0 0 0-3.982 2.272l1.985.825a2.128 2.128 0 0 1 2.045-1.088 2.152 2.152 0 0 1 2.391 1.9v.156a4.962 4.962 0 0 0-2.391-.574c-2.14 0-4.316 1.196-4.316 3.336a3.443 3.443 0 0 0 3.718 3.264 3.168 3.168 0 0 0 2.858-1.447h.071v1.196h2.164v-5.751c.036-2.63-1.984-4.101-4.52-4.101l-.023.012zm-.275 8.118c-.73 0-1.746-.358-1.746-1.195 0-1.196 1.268-1.59 2.392-1.59a4.053 4.053 0 0 1 2.044.502 2.702 2.702 0 0 1-2.654 2.271l-.036.012zm12.686-7.795l-2.57 6.42h-.073l-2.654-6.42h-2.391l3.993 8.967-2.272 4.986h2.392l6.145-13.965-2.57.012zm-20.111 9.421h2.236V121.54h-2.236v14.766z"/>
        <text fill="#FFF" font-family="AkkuratPro-Bold, Akkurat Pro" font-size="11" font-weight="bold" letter-spacing=".7" transform="translate(100 100)">
            <tspan x="49" y="15">Get it on</tspan>
        </text>
    </g>
</svg>
