<svg xmlns="http://www.w3.org/2000/svg" width="24" height="24" viewBox="0 0 24 24">
    <g fill="#262931" fill-rule="evenodd">
        <path d="M12.401 3.048c-2.566 0-2.888.01-3.895.056-1.007.046-1.693.205-2.294.437a4.631 4.631 0 0 0-1.674 1.085 4.63 4.63 0 0 0-1.09 1.664c-.234.599-.393 1.282-.44 2.283-.045 1.003-.056 1.322-.056 3.877 0 2.553.01 2.873.057 3.876.046 1 .205 1.684.439 2.283a4.64 4.64 0 0 0 1.09 1.664 4.628 4.628 0 0 0 1.674 1.084c.601.233 1.287.392 2.294.438 1.007.045 1.329.056 3.895.056 2.567 0 2.889-.01 3.896-.056 1.007-.046 1.692-.205 2.294-.438a4.628 4.628 0 0 0 1.674-1.084 4.64 4.64 0 0 0 1.09-1.664c.233-.599.393-1.283.439-2.283.046-1.003.057-1.323.057-3.876 0-2.555-.011-2.874-.057-3.877-.046-1-.206-1.684-.44-2.283a4.63 4.63 0 0 0-1.089-1.664 4.631 4.631 0 0 0-1.674-1.085c-.602-.232-1.287-.39-2.294-.437-1.007-.045-1.33-.056-3.896-.056m0 1.693c2.524 0 2.821.01 3.819.055.921.042 1.422.195 1.754.324.441.171.755.374 1.087.704.33.328.535.642.707 1.08.13.331.283.829.325 1.747.046.99.056 1.288.056 3.799 0 2.51-.01 2.807-.056 3.799-.042.916-.196 1.414-.325 1.745a2.911 2.911 0 0 1-.707 1.081 2.95 2.95 0 0 1-1.087.704c-.332.128-.833.282-1.754.324-.998.045-1.295.054-3.819.054-2.523 0-2.82-.01-3.818-.054-.921-.042-1.422-.196-1.755-.324a2.95 2.95 0 0 1-1.086-.704 2.911 2.911 0 0 1-.707-1.08c-.13-.332-.283-.83-.325-1.746-.046-.992-.056-1.29-.056-3.799 0-2.51.01-2.809.056-3.8.042-.917.196-1.415.325-1.746.171-.438.376-.752.707-1.08.332-.33.645-.533 1.086-.704.333-.13.834-.282 1.755-.324.997-.045 1.295-.055 3.818-.055"/>
        <path d="M12.401 15.584a3.142 3.142 0 0 1-3.15-3.135c0-1.73 1.411-3.134 3.15-3.134 1.74 0 3.15 1.404 3.15 3.134 0 1.731-1.41 3.135-3.15 3.135m0-7.962c-2.68 0-4.852 2.161-4.852 4.827 0 2.667 2.173 4.828 4.852 4.828 2.68 0 4.853-2.161 4.853-4.828 0-2.666-2.173-4.827-4.853-4.827M18.579 7.43c0 .624-.507 1.13-1.134 1.13a1.131 1.131 0 0 1-1.134-1.13c0-.622.508-1.128 1.134-1.128.627 0 1.134.506 1.134 1.128"/>
    </g>
</svg>
