<svg xmlns="http://www.w3.org/2000/svg" width="24" height="24" viewBox="0 0 24 24">
    <g fill="none" fill-rule="evenodd">
        <path fill="#4672D5" d="M19.393 4H4.652C4.3 4 4 4.3 4 4.65V19.3c0 .4.3.7.652.7h14.69c.352 0 .653-.3.653-.65V4.65c.05-.35-.251-.65-.602-.65zM8.763 17.65H6.357V10h2.406v7.65zM7.56 8.95a1.4 1.4 0 1 1 0-2.8 1.4 1.4 0 1 1 0 2.8zm10.128 8.7h-2.356v-3.7c0-.9 0-2-1.254-2-1.253 0-1.404.95-1.404 1.95v3.8h-2.356V10h2.206v1.05h.05c.3-.6 1.103-1.25 2.256-1.25 2.407 0 2.858 1.6 2.858 3.65v4.2z"/>
    </g>
</svg>
