<svg class="lds-spinner" width="200px"  height="200px"  xmlns="http://www.w3.org/2000/svg" xmlns:xlink="http://www.w3.org/1999/xlink" viewBox="0 0 100 100" preserveAspectRatio="xMidYMid" style="background: none;"><g transform="rotate(0 50 50)" class="">
  <rect x="46" y="5.5" rx="46" ry="5.5" width="8" height="29" fill="#4672d5" class="">
    <animate attributeName="opacity" values="1;0" times="0;1" dur="0.9s" begin="-0.8s" repeatCount="indefinite" class=""></animate>
  </rect>
</g><g transform="rotate(40 50 50)" class="">
  <rect x="46" y="5.5" rx="46" ry="5.5" width="8" height="29" fill="#4672d5" class="">
    <animate attributeName="opacity" values="1;0" times="0;1" dur="0.9s" begin="-0.7s" repeatCount="indefinite" class=""></animate>
  </rect>
</g><g transform="rotate(80 50 50)" class="">
  <rect x="46" y="5.5" rx="46" ry="5.5" width="8" height="29" fill="#4672d5" class="">
    <animate attributeName="opacity" values="1;0" times="0;1" dur="0.9s" begin="-0.6000000000000001s" repeatCount="indefinite" class=""></animate>
  </rect>
</g><g transform="rotate(120 50 50)" class="">
  <rect x="46" y="5.5" rx="46" ry="5.5" width="8" height="29" fill="#4672d5" class="">
    <animate attributeName="opacity" values="1;0" times="0;1" dur="0.9s" begin="-0.5s" repeatCount="indefinite" class=""></animate>
  </rect>
</g><g transform="rotate(160 50 50)" class="">
  <rect x="46" y="5.5" rx="46" ry="5.5" width="8" height="29" fill="#4672d5" class="">
    <animate attributeName="opacity" values="1;0" times="0;1" dur="0.9s" begin="-0.4s" repeatCount="indefinite" class=""></animate>
  </rect>
</g><g transform="rotate(200 50 50)" class="">
  <rect x="46" y="5.5" rx="46" ry="5.5" width="8" height="29" fill="#4672d5" class="">
    <animate attributeName="opacity" values="1;0" times="0;1" dur="0.9s" begin="-0.30000000000000004s" repeatCount="indefinite" class=""></animate>
  </rect>
</g><g transform="rotate(240 50 50)" class="">
  <rect x="46" y="5.5" rx="46" ry="5.5" width="8" height="29" fill="#4672d5" class="">
    <animate attributeName="opacity" values="1;0" times="0;1" dur="0.9s" begin="-0.2s" repeatCount="indefinite" class=""></animate>
  </rect>
</g><g transform="rotate(280 50 50)" class="">
  <rect x="46" y="5.5" rx="46" ry="5.5" width="8" height="29" fill="#4672d5" class="">
    <animate attributeName="opacity" values="1;0" times="0;1" dur="0.9s" begin="-0.1s" repeatCount="indefinite" class=""></animate>
  </rect>
</g><g transform="rotate(320 50 50)" class="">
  <rect x="46" y="5.5" rx="46" ry="5.5" width="8" height="29" fill="#4672d5" class="">
    <animate attributeName="opacity" values="1;0" times="0;1" dur="0.9s" begin="0s" repeatCount="indefinite" class=""></animate>
  </rect>
</g></svg>