<svg xmlns="http://www.w3.org/2000/svg" width="169" height="30" viewBox="0 0 169 30">
    <g fill="#6C727E" fill-rule="evenodd">
        <path fill-rule="nonzero" d="M31 4H15.5L12.8.4A1 1 0 0 0 12 0H1a1 1 0 0 0-1 1v28a1 1 0 0 0 1 1h30a1 1 0 0 0 1-1V5a1 1 0 0 0-1-1zm-8 17a3 3 0 1 1-3-3c.353 0 .686.072 1 .184V12h-7v10a3 3 0 1 1-3-3c.353 0 .686.072 1 .184V10a1 1 0 0 1 1-1h9a1 1 0 0 1 1 1v11z"/>
        <path d="M58.6 25H50V10.82h1.78v12.52h6.82V25zm9.86-5.06c0 1.6-.34 3.06-1.44 4.14-.74.72-1.78 1.18-3.06 1.18s-2.32-.46-3.06-1.18c-1.1-1.08-1.44-2.54-1.44-4.14 0-1.6.34-3.06 1.44-4.14.74-.72 1.78-1.18 3.06-1.18s2.32.46 3.06 1.18c1.1 1.08 1.44 2.54 1.44 4.14zm-1.74 0c0-1.18-.22-2.4-.94-3.14-.42-.42-1.02-.72-1.82-.72s-1.4.3-1.82.72c-.72.74-.94 1.96-.94 3.14 0 1.18.22 2.4.94 3.14.42.42 1.02.72 1.82.72s1.4-.3 1.82-.72c.72-.74.94-1.96.94-3.14zm12.34 1.66c-.08 1.08-.5 1.9-1.18 2.56-.72.7-1.68 1.1-2.92 1.1-1.82 0-2.98-.84-3.7-1.9-.54-.8-.84-1.9-.84-3.42s.3-2.62.84-3.42c.72-1.06 1.86-1.9 3.68-1.9 1.2 0 2.18.4 2.88 1.08.68.66 1.12 1.5 1.2 2.6H77.3c-.08-.7-.34-1.2-.72-1.58-.4-.38-.98-.62-1.64-.62-.78 0-1.32.28-1.76.66-.8.68-1.02 1.94-1.02 3.18 0 1.24.22 2.5 1.02 3.18.44.38.98.66 1.76.66.7 0 1.32-.26 1.72-.68.36-.38.6-.84.68-1.5h1.72zm11.06 3.3c-.36.18-.7.24-1.12.24-.9 0-1.46-.68-1.46-1.54h-.04c-.58 1.02-1.84 1.66-3.26 1.66-2.32 0-3.48-1.56-3.48-3.12 0-1.3.84-3 3.6-3.16l3.08-.18v-.74c0-.5-.06-1.12-.52-1.54-.34-.32-.84-.52-1.66-.52-.92 0-1.5.26-1.84.6-.32.32-.5.72-.5 1.22h-1.66c.02-.92.36-1.58.88-2.12.68-.72 1.88-1.08 3.12-1.08 1.96 0 3.08.84 3.56 1.94.2.46.3.98.3 1.56v4.9c0 .54.22.68.56.68.18 0 .44-.06.44-.06v1.26zm-2.68-4.18v-.6l-2.72.16c-1.02.06-2.22.54-2.22 1.82 0 .9.56 1.74 2 1.74.78 0 1.54-.26 2.08-.82.6-.62.86-1.46.86-2.3zM95.88 25s-.38.12-1.2.12c-1.48 0-2.12-.88-2.12-2.48V10.56h1.7v11.98c0 .68.22 1.04.92 1.04.56 0 .7-.02.7-.02V25zm10.02 0s-.38.12-1.2.12c-1.48 0-2.12-.88-2.12-2.48V10.56h1.7v11.98c0 .68.22 1.04.92 1.04.56 0 .7-.02.7-.02V25zm4.22-12.44h-1.98v-2h1.98v2zM110 25h-1.74V14.88H110V25zm12.48-5.04c0 1.68-.5 3.22-1.46 4.2-.66.68-1.62 1.1-2.86 1.1-1.14 0-2.44-.56-3.02-1.58l-.12 1.32h-1.5V10.56h1.7v5.5c.54-.92 1.84-1.44 2.94-1.44 1.18 0 2.12.4 2.78 1.02 1.02.98 1.54 2.58 1.54 4.32zm-1.74-.02c0-1.86-.6-3.88-2.86-3.88-.74 0-1.24.3-1.64.66-.84.74-1.12 1.96-1.12 3.22 0 1.26.28 2.48 1.12 3.22.4.36.9.66 1.64.66 2.26 0 2.86-2.02 2.86-3.88zm9.94-3.4c-.3-.06-.64-.08-.94-.08-.8 0-1.46.36-1.92.8-.82.78-.92 2.18-.92 3.24V25h-1.68V14.88h1.5l.14 1.78c.52-1.24 1.74-1.84 3.02-1.84.26 0 .54.02.8.06v1.66zm10.3 8.36c-.36.18-.7.24-1.12.24-.9 0-1.46-.68-1.46-1.54h-.04c-.58 1.02-1.84 1.66-3.26 1.66-2.32 0-3.48-1.56-3.48-3.12 0-1.3.84-3 3.6-3.16l3.08-.18v-.74c0-.5-.06-1.12-.52-1.54-.34-.32-.84-.52-1.66-.52-.92 0-1.5.26-1.84.6-.32.32-.5.72-.5 1.22h-1.66c.02-.92.36-1.58.88-2.12.68-.72 1.88-1.08 3.12-1.08 1.96 0 3.08.84 3.56 1.94.2.46.3.98.3 1.56v4.9c0 .54.22.68.56.68.18 0 .44-.06.44-.06v1.26zm-2.68-4.18v-.6l-2.72.16c-1.02.06-2.22.54-2.22 1.82 0 .9.56 1.74 2 1.74.78 0 1.54-.26 2.08-.82.6-.62.86-1.46.86-2.3zm10.64-4.18c-.3-.06-.64-.08-.94-.08-.8 0-1.46.36-1.92.8-.82.78-.92 2.18-.92 3.24V25h-1.68V14.88h1.5l.14 1.78c.52-1.24 1.74-1.84 3.02-1.84.26 0 .54.02.8.06v1.66zm9.92-1.66l-4.56 12.2c-.48 1.3-1.22 2.16-2.74 2.16-.84 0-1.4-.16-1.54-.2v-1.48s.54.16 1.2.16c.72 0 1.24-.26 1.52-1.02l.64-1.7-4.04-10.12h1.92l2.98 7.98 2.84-7.98h1.78zm9.56-.12l-3.18.82 2.08 2.58-1.34.96-1.8-2.78-1.78 2.78-1.34-1 2.08-2.54-3.18-.82.52-1.58 3.06 1.2-.16-3.3h1.66l-.2 3.3 3.08-1.2.5 1.58z"/>
    </g>
</svg>
