<svg xmlns="http://www.w3.org/2000/svg" width="167" height="40" viewBox="0 0 167 40">
    <g fill="none" fill-rule="evenodd">
        <path fill="#262931" d="M54.282 19.365l-2.352-1.402c-1.095-.628-1.616-1.053-1.616-1.76 0-1.115.761-1.327 2.157-1.327.972 0 2.21.065 3.687.192h.068c.293 0 .457-.169.457-.458v-.785c0-.296-.168-.476-.494-.527a22.2 22.2 0 0 0-3.718-.31c-2.965 0-4.35 1.023-4.35 3.215 0 1.734 1.31 2.748 2.448 3.443l2.4 1.423c1.318.812 1.756 1.204 1.756 1.927 0 1.18-.646 1.633-2.3 1.633-.801 0-2.477-.129-3.727-.258h-.1c-.285 0-.476.164-.476.41v.83c0 .185.09.432.535.525 1.196.323 3.035.359 3.768.359 2.9 0 4.498-1.243 4.498-3.499 0-1.49-.742-2.51-2.641-3.63M61.387 18.839c0-2.598 1.059-3.916 3.134-3.916 2.092 0 3.158 1.318 3.158 3.916v1.805c0 2.562-1.092 3.92-3.158 3.92-2.075 0-3.134-1.322-3.134-3.92v-1.805zm3.134-5.85c-3.388 0-5.328 2.13-5.328 5.85v1.805c0 3.718 1.94 5.852 5.328 5.852 3.4 0 5.35-2.134 5.35-5.852v-1.805c0-3.72-1.95-5.85-5.35-5.85zM78.493 12.99c-1.481 0-2.534.401-3.727 1.056v-.365a.509.509 0 0 0-.502-.524h-1.19c-.282 0-.503.23-.503.524V25.8c0 .296.221.53.502.53h1.167c.29 0 .526-.238.526-.53v-9.992c1.27-.62 2.271-.909 3.154-.909 1.868 0 2.559.837 2.559 3.086V25.8c0 .292.24.53.531.53h1.14a.53.53 0 0 0 .53-.53v-7.815c0-3.317-1.41-4.995-4.187-4.995M87.172 22.57v-.285c0-1.51.554-2.278 3.579-2.278h1.706v3.745c-1.182.658-2.09.929-3.156.929-1.28 0-2.129-.36-2.129-2.112m2.795-9.58c-1.649 0-2.747.15-3.692.31-.363.053-.544.218-.544.505v.83c0 .197.085.434.482.434l.123-.002c.987-.097 2.112-.19 3.63-.19 1.865 0 2.49.664 2.49 2.632v.897h-1.705c-4.054 0-5.778 1.167-5.778 3.903v.285c0 3.226 2.136 3.9 3.926 3.9 1.14 0 2.252-.345 3.605-1.124v.43c0 .292.238.528.527.528h1.095c.288 0 .529-.236.529-.527v-8.292c0-2.997-1.576-4.52-4.688-4.52M103.344 12.99c-1.134 0-2.186.347-3.296 1.094v-.403a.51.51 0 0 0-.506-.524h-1.115c-.28 0-.506.23-.506.524V25.8c0 .296.226.53.506.53h1.166c.29 0 .527-.238.527-.53v-9.924c1.146-.696 2.085-.977 3.224-.977.352 0 .554-.16.554-.456v-.973c0-.22-.1-.48-.554-.48M122.52 13.157h-1.287c-.246 0-.43.22-.451.421l-1.97 10.832c-.066.245-.096.245-.14.245-.034 0-.092-.053-.142-.245l-2.325-10.533c-.169-.537-.448-.749-1.002-.749h-1.333c-.556 0-.835.212-.998.749l-2.33 10.533c-.048.192-.114.245-.139.245-.048 0-.081 0-.138-.24l-1.973-10.835c-.027-.203-.205-.423-.457-.423h-1.282a.507.507 0 0 0-.502.524v.11l2.304 11.024c.34 1.494.566 1.68 2.048 1.68 1.266 0 1.603-.295 2-1.751l2.066-9.475c.015-.044.027-.074.037-.1.005-.017.012-.034.005-.034.003-.002.022-.002.022-.002.012 0 .017 0 .017-.005.01.01.013.026.018.042l.036.091 2.064 9.483c.382 1.49.68 1.751 2.003 1.751 1.42 0 1.726-.134 2.045-1.682l2.307-11.036v-.096a.507.507 0 0 0-.502-.524M126.873 18.839c0-2.598 1.056-3.916 3.134-3.916 2.09 0 3.155 1.318 3.155 3.916v1.805c0 2.562-1.095 3.92-3.155 3.92-2.078 0-3.134-1.322-3.134-3.92v-1.805zm3.134-5.85c-3.39 0-5.327 2.13-5.327 5.85v1.805c0 3.718 1.937 5.852 5.327 5.852 3.395 0 5.35-2.134 5.35-5.852v-1.805c0-3.72-1.955-5.85-5.35-5.85zM143.523 12.99c-1.134 0-2.183.347-3.297 1.094v-.403a.508.508 0 0 0-.505-.524h-1.115a.507.507 0 0 0-.503.524V25.8c0 .296.22.53.503.53h1.163c.289 0 .53-.238.53-.53v-9.924c1.143-.696 2.084-.977 3.224-.977.354 0 .553-.16.553-.456v-.973c0-.22-.096-.48-.553-.48M155.812 13.469c0-.096-.042-.313-.405-.313h-1.667c-.28 0-.34.057-.515.23l-4.658 5.245v-5.023a.53.53 0 0 0-.53-.527h-1.14a.526.526 0 0 0-.523.527V25.8c0 .292.234.53.524.53h1.14a.53.53 0 0 0 .529-.53v-5.53l4.631 5.73c.195.27.307.33.59.33h1.712c.12 0 .312-.047.312-.362a.36.36 0 0 0-.08-.246l-5.246-6.333 5.194-5.62a.442.442 0 0 0 .132-.3M164.134 19.365l-2.351-1.402c-1.093-.628-1.616-1.053-1.616-1.76 0-1.115.758-1.327 2.157-1.327.974 0 2.21.065 3.68.192h.073c.295 0 .457-.169.457-.458v-.785c0-.296-.165-.476-.49-.527a22.307 22.307 0 0 0-3.72-.31c-2.972 0-4.355 1.023-4.355 3.215 0 1.734 1.314 2.748 2.448 3.443l2.4 1.423c1.324.812 1.759 1.204 1.759 1.927 0 1.18-.644 1.633-2.298 1.633-.802 0-2.478-.129-3.732-.258h-.093c-.29 0-.484.164-.484.41v.83c0 .185.093.432.538.525 1.194.323 3.037.359 3.771.359 2.9 0 4.493-1.243 4.493-3.499 0-1.49-.742-2.51-2.637-3.63"/>
        <path fill="#4571D5" d="M39.583 19.774c0 10.925-8.862 19.78-19.79 19.78C8.862 39.553 0 30.698 0 19.773 0 8.854 8.86 0 19.794 0c10.927 0 19.79 8.855 19.79 19.774"/>
        <path fill="#FEFEFE" d="M19.028 26.317c-1.41 0-2.066-1.321-2.23-2.102l-2.075-8.656a1.087 1.087 0 0 0-1.093-.811H9.621c-.318.007-1.964.135-1.964 2.062 0 1.925 1.63 2.048 1.959 2.052h1.053c1.369 0 3.963.773 3.963 3.704 0 2.924-2.587 3.727-3.953 3.744H6.83v-1.654h3.838c.369-.009 2.308-.151 2.308-2.09 0-1.928-1.925-2.047-2.313-2.05H9.61c-1.451 0-3.607-.986-3.607-3.706 0-2.715 2.161-3.71 3.614-3.715h4.012c1.751 0 2.536 1.362 2.705 2.083l2.079 8.673c.004.027.208.811.614.811.457 0 .575-.717.58-.745l.007-.04 1.722-8.652c.115-.753.727-2.13 2.243-2.13 1.408 0 2.03 1.357 2.171 2.099l2.089 8.65.007.037s.187.775.58.775c.449 0 .577-.74.578-.746 0-.009.007-.027.01-.034l1.736-8.647c.113-.759.722-2.134 2.32-2.134v1.653c-.57 0-.671.65-.682.721a.747.747 0 0 1-.01.06l-1.74 8.654c-.117.75-.725 2.127-2.212 2.127-1.403 0-2.04-1.308-2.2-2.093l-2.088-8.656c-.003-.017-.01-.033-.012-.05 0-.003-.168-.763-.547-.763-.498 0-.606.726-.608.733-.001.016-.003.031-.008.047l-1.724 8.655c-.116.753-.72 2.134-2.212 2.134"/>
    </g>
</svg>
