<?xml version="1.0" encoding="UTF-8" standalone="no"?>
<!-- Generator: Adobe Illustrator 19.0.0, SVG Export Plug-In . SVG Version: 6.00 Build 0)  -->

<svg
   xmlns:dc="http://purl.org/dc/elements/1.1/"
   xmlns:cc="http://creativecommons.org/ns#"
   xmlns:rdf="http://www.w3.org/1999/02/22-rdf-syntax-ns#"
   xmlns:svg="http://www.w3.org/2000/svg"
   xmlns="http://www.w3.org/2000/svg"
   xmlns:sodipodi="http://sodipodi.sourceforge.net/DTD/sodipodi-0.dtd"
   xmlns:inkscape="http://www.inkscape.org/namespaces/inkscape"
   version="1.1"
   id="Layer_1"
   x="0px"
   y="0px"
   viewBox="0 0 130 50"
   xml:space="preserve"
   inkscape:version="0.91 r13725"
   sodipodi:docname="sonarworks-logo-small.svg"
   width="130"
   height="50"><metadata
   id="metadata29"><rdf:RDF><cc:Work
       rdf:about=""><dc:format>image/svg+xml</dc:format><dc:type
         rdf:resource="http://purl.org/dc/dcmitype/StillImage" /><dc:title></dc:title></cc:Work></rdf:RDF></metadata><defs
   id="defs27" /><sodipodi:namedview
   pagecolor="#ffffff"
   bordercolor="#666666"
   borderopacity="1"
   objecttolerance="10"
   gridtolerance="10"
   guidetolerance="10"
   inkscape:pageopacity="0"
   inkscape:pageshadow="2"
   inkscape:window-width="1920"
   inkscape:window-height="1137"
   id="namedview25"
   showgrid="false"
   inkscape:zoom="1.5578947"
   inkscape:cx="64.645283"
   inkscape:cy="-85.149387"
   inkscape:window-x="1912"
   inkscape:window-y="-8"
   inkscape:window-maximized="1"
   inkscape:current-layer="g4157" />
<style
   type="text/css"
   id="style3">
	.st0{fill:#3C3C3B;}
	.st1{fill:#EE7203;}
	.st2{fill:#FFFFFF;}
</style>












<g
   id="g4157"><path
     style="fill:#ee7203"
     inkscape:connector-curvature="0"
     d="m 49.712811,24.850269 c 0,13.2 -10.7,24 -24,24 -13.2,0 -24.0000001,-10.7 -24.0000001,-24 0,-13.2 10.7000001,-23.9999996 24.0000001,-23.9999996 13.2,0.1 24,10.7999996 24,23.9999996"
     class="st1"
     id="XMLID_17_" /><path
     style="fill:#ffffff"
     inkscape:connector-curvature="0"
     d="m 24.812811,32.750269 c -1.7,0 -2.5,-1.6 -2.7,-2.5 l -2.6,-10.5 c 0,-0.2 -0.3,-1 -1.3,-1 l -4.9,0 c -0.4,0 -2.4,0.2 -2.4,2.5 0,2.3 2,2.5 2.4,2.5 l 1.3,0 c 1.7,0 4.8,0.9 4.8,4.5 0,3.5 -3.1,4.5 -4.8,4.5 l -4.7000003,0 0,-2 4.6000003,0 c 0.5,0 2.8,-0.2 2.8,-2.5 0,-2.3 -2.3,-2.5 -2.8,-2.5 l -1.3,0 c -1.8,0 -4.4000003,-1.2 -4.4000003,-4.5 0,-3.3 2.6000003,-4.5 4.4000003,-4.5 l 4.9,0 c 2.1,0 3.1,1.7 3.3,2.5 l 2.5,10.5 c 0,0 0.3,1 0.7,1 0.5,0 0.7,-0.9 0.7,-0.9 0,0 0,0 0,0 l 2.1,-10.5 c 0.1,-0.9 0.9,-2.6 2.7,-2.6 1.7,0 2.5,1.6 2.6,2.5 l 2.5,10.5 c 0,0 0,0 0,0 0,0 0.2,0.9 0.7,0.9 0.5,0 0.7,-0.9 0.7,-0.9 0,0 0,0 0,0 l 2.1,-10.5 c 0.1,-0.9 0.9,-2.6 2.8,-2.6 l 0,2 c -0.7,0 -0.8,0.8 -0.8,0.9 0,0 0,0 0,0.1 l -2.1,10.5 c 0.1,1 -0.7,2.6 -2.5,2.6 -1.7,0 -2.5,-1.6 -2.7,-2.5 l -2.4,-10.5 c 0,0 0,0 0,-0.1 0,0 -0.2,-0.9 -0.7,-0.9 -0.6,0 -0.7,0.9 -0.7,0.9 0,0 0,0 0,0.1 l -2.1,10.5 c -0.2,0.9 -0.9,2.5 -2.7,2.5"
     class="st2"
     id="XMLID_18_" /><g
     transform="translate(-208.08719,-47.249731)"
     id="XMLID_19_">
	<path
   style="fill:#3c3c3b"
   inkscape:connector-curvature="0"
   d="m 279.2,65.5 -4.3,0 0,14.2 c 0,0.2 -0.2,0.4 -0.4,0.4 l -1.2,0 c -0.2,0 -0.4,-0.2 -0.4,-0.4 l 0,-14.2 -4.3,0 c -0.2,0 -0.4,-0.1 -0.4,-0.4 l 0,-1 c 0,-0.2 0.2,-0.4 0.4,-0.4 l 10.6,0 c 0.2,0 0.4,0.2 0.4,0.4 l 0,1 c 0,0.3 -0.1,0.4 -0.4,0.4 z"
   class="st0"
   id="XMLID_20_" />
	<path
   style="fill:#3c3c3b"
   inkscape:connector-curvature="0"
   d="m 284.8,69.5 c -1,0 -1.9,0.3 -3,0.9 l 0,9.2 c 0,0.2 -0.2,0.4 -0.4,0.4 l -1.1,0 c -0.2,0 -0.4,-0.2 -0.4,-0.4 l 0,-11.1 c 0,-0.2 0.2,-0.4 0.4,-0.4 l 1,0 c 0.2,0 0.4,0.2 0.4,0.4 l 0,0.5 c 1.1,-0.8 2.1,-1.1 3.1,-1.1 0.3,0 0.5,0.1 0.5,0.4 l 0,0.9 c 0,0.2 -0.2,0.3 -0.5,0.3 z"
   class="st0"
   id="XMLID_22_" />
	<path
   style="fill:#3c3c3b"
   inkscape:connector-curvature="0"
   d="m 296.2,80.1 -1.1,0 c -0.2,0 -0.4,-0.2 -0.4,-0.4 l 0,-0.4 c -1.2,0.7 -2.2,1 -3.5,1 -2.6,0 -3.8,-1.6 -3.8,-4.6 l 0,-7.2 c 0,-0.2 0.2,-0.4 0.4,-0.4 l 1.1,0 c 0.2,0 0.4,0.2 0.4,0.4 l 0,7.2 c 0,2.2 0.7,2.9 2.4,2.9 0.9,0 2,-0.4 3,-0.9 l 0,-9.3 c 0,-0.2 0.2,-0.4 0.4,-0.4 l 1.1,0 c 0.2,0 0.4,0.2 0.4,0.4 l 0,11.2 c 0,0.3 -0.2,0.5 -0.4,0.5 z"
   class="st0"
   id="XMLID_24_" />
	<path
   style="fill:#3c3c3b"
   inkscape:connector-curvature="0"
   d="m 308.4,74.7 -7.4,0 0,0.3 c 0,2.6 1,3.6 3.1,3.6 1.3,0 2.9,-0.1 3.9,-0.2 0,0 0.1,0 0.1,0 0.2,0 0.4,0.1 0.4,0.3 l 0,0.7 c 0,0.3 -0.1,0.4 -0.4,0.5 -1.3,0.2 -2.5,0.4 -3.9,0.4 -2.5,0 -5,-1.2 -5,-5.3 l 0,-2 c 0,-3.1 1.7,-5.1 4.9,-5.1 3.2,0 4.8,2 4.8,5.1 l 0,1.2 c -0.1,0.3 -0.2,0.5 -0.5,0.5 z M 306.9,73 c 0,-2.5 -0.9,-3.4 -2.9,-3.4 -1.9,0 -2.9,1.1 -2.9,3.4 l 0,0.2 5.8,0 0,-0.2 z"
   class="st0"
   id="XMLID_26_" />
	<path
   style="fill:#3c3c3b"
   inkscape:connector-curvature="0"
   d="m 315.9,74.5 -4.4,0 c -0.2,0 -0.4,-0.1 -0.4,-0.4 l 0,-0.9 c 0,-0.2 0.2,-0.4 0.4,-0.4 l 4.4,0 c 0.2,0 0.4,0.2 0.4,0.4 l 0,0.9 c 0,0.2 -0.1,0.4 -0.4,0.4 z"
   class="st0"
   id="XMLID_29_" />
	<path
   style="fill:#3c3c3b"
   inkscape:connector-curvature="0"
   d="m 327.8,72.5 -6.7,0 0,7.2 c 0,0.2 -0.2,0.4 -0.4,0.4 l -1.1,0 c -0.2,0 -0.4,-0.2 -0.4,-0.4 l 0,-12 c 0,-2.9 1.6,-4.1 4.7,-4.1 1.3,0 3.4,0 4.3,0.1 0.1,0 0.2,0.2 0.2,0.3 l 0,1.1 c 0,0.2 -0.1,0.3 -0.2,0.3 l -4.2,0 c -2.3,0 -2.7,0.6 -2.7,2.3 l 0,3.1 6.7,0 c 0.2,0 0.4,0.2 0.4,0.4 l 0,0.8 c -0.1,0.3 -0.3,0.5 -0.6,0.5 z"
   class="st0"
   id="XMLID_31_" />
	<path
   style="fill:#3c3c3b"
   inkscape:connector-curvature="0"
   d="m 332.4,66.1 -1.1,0 c -0.2,0 -0.4,-0.2 -0.4,-0.4 l 0,-1.8 c 0,-0.2 0.2,-0.4 0.4,-0.4 l 1.1,0 c 0.2,0 0.4,0.2 0.4,0.4 l 0,1.8 c 0,0.2 -0.2,0.4 -0.4,0.4 z m 0,14 -1.1,0 c -0.2,0 -0.4,-0.2 -0.4,-0.4 l 0,-11.2 c 0,-0.2 0.2,-0.4 0.4,-0.4 l 1.1,0 c 0.2,0 0.4,0.2 0.4,0.4 l 0,11.2 c 0,0.2 -0.2,0.4 -0.4,0.4 z"
   class="st0"
   id="XMLID_33_" />
</g></g>
</svg>