<svg xmlns="http://www.w3.org/2000/svg" width="197" height="40" viewBox="0 0 197 40">
    <g fill="none" fill-rule="evenodd">
        <path fill="#262626" d="M54.361 19.365l-2.355-1.402c-1.096-.628-1.618-1.052-1.618-1.76 0-1.116.763-1.327 2.16-1.327.973 0 2.214.065 3.693.192h.067c.295 0 .459-.169.459-.458v-.786c0-.295-.169-.475-.496-.526a22.256 22.256 0 0 0-3.722-.31c-2.97 0-4.357 1.023-4.357 3.215 0 1.734 1.313 2.748 2.451 3.442l2.404 1.426c1.32.81 1.759 1.201 1.759 1.925 0 1.179-.648 1.634-2.304 1.634-.801 0-2.48-.13-3.732-.259h-.1c-.286 0-.478.164-.478.408v.832c0 .186.092.433.537.526 1.197.322 3.039.358 3.773.358 2.905 0 4.506-1.243 4.506-3.499 0-1.49-.744-2.51-2.647-3.63M61.478 18.839c0-2.597 1.06-3.915 3.138-3.915 2.095 0 3.163 1.318 3.163 3.915v1.805c0 2.562-1.094 3.92-3.163 3.92-2.078 0-3.138-1.323-3.138-3.92v-1.805zm3.138-5.85c-3.393 0-5.336 2.13-5.336 5.85v1.805c0 3.718 1.943 5.852 5.336 5.852 3.405 0 5.359-2.134 5.359-5.852v-1.805c0-3.72-1.954-5.85-5.359-5.85zM78.609 12.99c-1.484 0-2.538.402-3.732 1.056v-.365a.51.51 0 0 0-.504-.524h-1.192a.509.509 0 0 0-.503.524V25.8c0 .296.222.53.503.53h1.168a.53.53 0 0 0 .528-.53v-9.991c1.27-.622 2.274-.91 3.158-.91 1.87 0 2.563.837 2.563 3.086V25.8c0 .292.24.53.531.53h1.143a.53.53 0 0 0 .529-.53v-7.815c0-3.317-1.41-4.995-4.192-4.995M87.3 22.57v-.285c0-1.511.555-2.277 3.585-2.277h1.708v3.744c-1.184.658-2.093.929-3.16.929-1.283 0-2.133-.36-2.133-2.112m2.799-9.581c-1.65 0-2.75.15-3.696.31-.364.055-.546.22-.546.506v.83c0 .197.085.434.483.434l.123-.002c.988-.097 2.115-.19 3.636-.19 1.867 0 2.494.665 2.494 2.632v.898h-1.708c-4.06 0-5.786 1.166-5.786 3.902v.286c0 3.225 2.138 3.9 3.93 3.9 1.143 0 2.257-.346 3.611-1.125v.43a.53.53 0 0 0 .528.529h1.096c.29 0 .53-.237.53-.529v-8.291c0-2.998-1.578-4.52-4.695-4.52M103.496 12.99c-1.135 0-2.189.348-3.3 1.094v-.403a.51.51 0 0 0-.506-.524h-1.118c-.28 0-.507.23-.507.524V25.8c0 .296.226.53.507.53h1.169a.53.53 0 0 0 .526-.53v-9.923c1.148-.697 2.088-.978 3.23-.978.351 0 .554-.16.554-.456v-.972c0-.22-.1-.48-.555-.48M122.701 13.157h-1.288c-.247 0-.432.22-.453.422l-1.972 10.83c-.067.246-.097.246-.142.246-.034 0-.09-.053-.142-.245l-2.328-10.533c-.168-.537-.449-.75-1.003-.75h-1.334c-.557 0-.838.213-1 .75l-2.334 10.533c-.049.192-.115.245-.14.245-.048 0-.081 0-.138-.239l-1.976-10.836c-.027-.203-.205-.423-.457-.423h-1.284a.507.507 0 0 0-.503.522v.111l2.308 11.025c.34 1.494.566 1.68 2.05 1.68 1.269 0 1.606-.296 2.004-1.751l2.069-9.475.036-.1c.006-.016.012-.035.006-.035.004-.002.021-.002.021-.002.012 0 .019 0 .019-.004.008.01.011.026.018.042.008.024.021.055.036.09l2.066 9.484c.382 1.49.68 1.751 2.006 1.751 1.422 0 1.73-.135 2.049-1.683l2.31-11.035v-.098a.508.508 0 0 0-.504-.522M127.06 18.839c0-2.597 1.057-3.915 3.138-3.915 2.094 0 3.16 1.318 3.16 3.915v1.805c0 2.562-1.096 3.92-3.16 3.92-2.081 0-3.138-1.323-3.138-3.92v-1.805zm3.138-5.85c-3.395 0-5.334 2.13-5.334 5.85v1.805c0 3.718 1.94 5.852 5.334 5.852 3.4 0 5.359-2.134 5.359-5.852v-1.805c0-3.72-1.958-5.85-5.359-5.85zM143.734 12.99c-1.135 0-2.186.348-3.3 1.094v-.403a.508.508 0 0 0-.506-.524h-1.119a.507.507 0 0 0-.502.524V25.8c0 .296.22.53.502.53h1.166c.29 0 .53-.238.53-.53v-9.923c1.145-.697 2.088-.978 3.23-.978.354 0 .554-.16.554-.456v-.972c0-.22-.097-.48-.555-.48M156.042 13.469c0-.096-.042-.313-.407-.313h-1.669c-.28 0-.34.057-.515.23l-4.665 5.245v-5.023a.53.53 0 0 0-.53-.527h-1.142a.527.527 0 0 0-.524.527V25.8c0 .292.234.53.524.53h1.141a.53.53 0 0 0 .53-.53v-5.53l4.639 5.73c.196.27.307.33.59.33h1.715c.12 0 .313-.047.313-.36a.362.362 0 0 0-.081-.248l-5.254-6.333 5.202-5.619a.445.445 0 0 0 .133-.3M164.376 19.365l-2.355-1.402c-1.094-.628-1.618-1.052-1.618-1.76 0-1.116.76-1.327 2.16-1.327.976 0 2.214.065 3.687.192h.071c.296 0 .459-.169.459-.458v-.786c0-.295-.166-.475-.491-.526a22.372 22.372 0 0 0-3.726-.31c-2.976 0-4.361 1.023-4.361 3.215 0 1.734 1.316 2.748 2.451 3.442l2.404 1.426c1.325.81 1.762 1.201 1.762 1.925 0 1.179-.645 1.634-2.301 1.634-.804 0-2.482-.13-3.738-.259h-.093c-.29 0-.485.164-.485.408v.832c0 .186.093.433.539.526 1.195.322 3.042.358 3.777.358 2.903 0 4.5-1.243 4.5-3.499 0-1.49-.744-2.51-2.642-3.63"/>
        <path fill="#4672D5" d="M39.642 19.774c0 10.926-8.876 19.78-19.82 19.78C8.875 39.553 0 30.7 0 19.773 0 8.854 8.874 0 19.823 0c10.943 0 19.819 8.855 19.819 19.774"/>
        <path fill="#FEFEFE" d="M19.055 26.317c-1.412 0-2.069-1.32-2.232-2.103l-2.077-8.655a1.09 1.09 0 0 0-1.096-.813H9.636c-.32.01-1.968.137-1.968 2.064 0 1.924 1.634 2.048 1.962 2.052h1.055c1.37 0 3.969.773 3.969 3.704 0 2.924-2.591 3.726-3.96 3.745H6.842v-1.655h3.843c.369-.008 2.312-.151 2.312-2.09 0-1.928-1.93-2.047-2.318-2.05H9.625c-1.453 0-3.612-.985-3.612-3.706 0-2.716 2.165-3.71 3.62-3.715h4.017c1.754 0 2.54 1.362 2.708 2.084l2.084 8.672c.004.027.207.812.613.812.459 0 .576-.718.58-.746.004-.01.006-.03.008-.04l1.726-8.652c.114-.753.727-2.13 2.246-2.13 1.41 0 2.033 1.357 2.174 2.099l2.093 8.65c0 .012.004.024.006.036 0 .002.187.776.58.776.45 0 .579-.74.58-.745a.14.14 0 0 1 .01-.035l1.74-8.647c.112-.759.721-2.134 2.323-2.134v1.651c-.573 0-.674.652-.684.723l-.01.06-1.743 8.654c-.118.75-.726 2.128-2.216 2.128-1.404 0-2.042-1.309-2.201-2.094l-2.092-8.657c-.003-.016-.012-.032-.012-.049 0-.003-.17-.765-.548-.765-.5 0-.608.728-.609.736a.246.246 0 0 1-.008.046l-1.727 8.655c-.116.753-.721 2.134-2.216 2.134"/>
        <path fill="#4672D5" d="M194.232 16.547c0-1.085-.82-1.441-2.388-1.441-.374 0-1.266.036-1.586.071l-.713 4.004c.285.018 1.283.053 1.586.053 1.836 0 3.101-.675 3.101-2.687m2.495-.107c0 1.887-1.087 3.72-3.155 4.36l1.89 5.196c.09.231-.072.356-.25.356h-2.05c-.195 0-.267-.142-.338-.356l-1.693-4.75h-.356c-.463 0-.98-.036-1.587-.073l-.837 4.823c-.036.196-.089.356-.41.356h-1.782c-.214 0-.32-.107-.285-.356l2.156-12.242c.071-.356.285-.481.66-.534.944-.142 2.227-.232 3.528-.232 2.674 0 4.509 1.033 4.509 3.452m-14.809-3.452c1.176 0 2.78.178 3.368.321.16.036.303.106.267.338l-.23 1.316c-.037.232-.055.357-.393.321a30.954 30.954 0 0 0-3.494-.178c-.98 0-2.102.302-2.102 1.334 0 .624.303.961 1.194 1.513l1.924 1.192c1.444.89 1.89 1.868 1.89 3.203 0 2.954-2.46 4.146-5.383 4.146-1.336 0-2.28-.124-3.1-.32-.16-.036-.32-.107-.285-.356l.232-1.28c.035-.197.088-.375.427-.34.713.09 2.477.18 3.136.18 1.248 0 2.353-.428 2.353-1.656 0-.658-.286-1.068-1.212-1.69l-2.103-1.406c-1.212-.801-1.568-2.012-1.568-3.008 0-2.864 2.548-3.63 5.08-3.63"/>
    </g>
</svg>
