<svg xmlns="http://www.w3.org/2000/svg" width="32" height="32" viewBox="0 0 32 32">
    <g fill="#4672D5" fill-rule="nonzero">
        <path d="M16 19c-1.103 0-2-.897-2-2s.897-2 2-2 2 .897 2 2-.897 2-2 2zm0-2v.002V17z"/>
        <path d="M24.646 30.246a1 1 0 0 1-.578-1.817A14.028 14.028 0 0 0 30 17c0-7.72-6.28-14-14-14S2 9.28 2 17a14.03 14.03 0 0 0 5.933 11.43 1 1 0 1 1-1.155 1.633A16.033 16.033 0 0 1 0 17C0 8.178 7.178 1 16 1s16 7.178 16 16a16.03 16.03 0 0 1-6.778 13.062.988.988 0 0 1-.576.184z"/>
        <path d="M20.611 24.531a1.002 1.002 0 0 1-.579-1.817A7.011 7.011 0 0 0 23 17c0-3.859-3.141-7-7-7s-7 3.141-7 7c0 2.264 1.109 4.4 2.968 5.715a1 1 0 0 1-1.157 1.633A9.024 9.024 0 0 1 7 17c0-4.963 4.037-9 9-9s9 4.037 9 9a9.022 9.022 0 0 1-3.812 7.348.995.995 0 0 1-.577.183z"/>
    </g>
</svg>
