<?xml version="1.0" encoding="UTF-8"?>
<svg width="24px" height="24px" viewBox="0 0 24 24" version="1.1" xmlns="http://www.w3.org/2000/svg" xmlns:xlink="http://www.w3.org/1999/xlink">
    <!-- Generator: Sketch 52.1 (67048) - http://www.bohemiancoding.com/sketch -->
    <title>icon/24/speaker</title>
    <desc>Created with Sketch.</desc>
    <g id="icon/24/speaker" stroke="none" stroke-width="1" fill="none" fill-rule="evenodd">
        <path d="M12,13 C13.1048513,13 14,13.8949333 14,15 C14,16.1050667 13.1048513,17 12,17 C10.8951487,17 10,16.1050667 10,15 C10,13.8949333 10.8951487,13 12,13 M16,15 C16,12.7905778 14.2093913,11 12,11 C9.7906087,11 8,12.7905778 8,15 C8,17.2094222 9.7906087,19 12,19 C14.2093913,19 16,17.2094222 16,15 Z M10,7 C10,8.10466667 10.8950535,9 12,9 C13.1042781,9 14,8.10466667 14,7 C14,5.89533333 13.1042781,5 12,5 C10.8950535,5 10,5.89533333 10,7 Z M17.7826087,3 C18.4552174,3 19,3.537 19,4.2 L19,19.8 C19,20.463 18.4552174,21 17.7826087,21 L6.2173913,21 C5.54478261,21 5,20.463 5,19.8 L5,4.2 C5,3.537 5.54478261,3 6.2173913,3 L17.7826087,3 Z" id="speaker" fill="#262931"></path>
    </g>
</svg>
