<?xml version="1.0" encoding="UTF-8" standalone="no"?>
<svg
   xmlns:dc="http://purl.org/dc/elements/1.1/"
   xmlns:cc="http://creativecommons.org/ns#"
   xmlns:rdf="http://www.w3.org/1999/02/22-rdf-syntax-ns#"
   xmlns:svg="http://www.w3.org/2000/svg"
   xmlns="http://www.w3.org/2000/svg"
   viewBox="0 0 393.89066 169.748"
   height="169.748"
   width="393.89066"
   xml:space="preserve"
   id="svg2"
   version="1.1"><metadata
     id="metadata8"><rdf:RDF><cc:Work
         rdf:about=""><dc:format>image/svg+xml</dc:format><dc:type
           rdf:resource="http://purl.org/dc/dcmitype/StillImage" /></cc:Work></rdf:RDF></metadata><defs
     id="defs6"><clipPath
       id="clipPath18"
       clipPathUnits="userSpaceOnUse"><path
         id="path16"
         d="M 0,127.311 H 295.418 V 0 H 0 Z" /></clipPath></defs><g
     transform="matrix(1.3333333,0,0,-1.3333333,0,169.748)"
     id="g10"><g
       id="g12"><g
         clip-path="url(#clipPath18)"
         id="g14"><g
           transform="translate(100.8722,64.2216)"
           id="g20"><path
             id="path22"
             style="fill:#3d3d3c;fill-opacity:1;fill-rule:nonzero;stroke:none"
             d="m 0,0 -2.528,1.508 c -1.177,0.675 -1.737,1.131 -1.737,1.892 0,1.199 0.819,1.426 2.319,1.426 1.044,0 2.376,-0.07 3.964,-0.206 H 2.09 c 0.316,0 0.492,0.181 0.492,0.492 v 0.845 c 0,0.317 -0.181,0.511 -0.532,0.565 -1.297,0.221 -2.641,0.333 -3.996,0.333 -3.188,0 -4.676,-1.099 -4.676,-3.455 0,-1.865 1.409,-2.955 2.631,-3.701 l 2.58,-1.532 c 1.417,-0.871 1.888,-1.292 1.888,-2.07 0,-1.267 -0.695,-1.756 -2.473,-1.756 -0.86,0 -2.663,0.139 -4.006,0.278 h -0.107 c -0.307,0 -0.513,-0.176 -0.513,-0.439 v -0.894 c 0,-0.2 0.098,-0.465 0.576,-0.565 1.285,-0.347 3.262,-0.385 4.05,-0.385 3.118,0 4.837,1.336 4.837,3.761 C 2.841,-2.301 2.042,-1.205 0,0" /></g><g
           transform="translate(108.5108,64.7875)"
           id="g24"><path
             id="path26"
             style="fill:#3d3d3c;fill-opacity:1;fill-rule:nonzero;stroke:none"
             d="M 0,0 C 0,2.792 1.138,4.209 3.369,4.209 5.618,4.209 6.764,2.792 6.764,0 V -1.94 C 6.764,-4.695 5.59,-6.154 3.369,-6.154 1.138,-6.154 0,-4.732 0,-1.94 Z M 3.369,6.289 C -0.273,6.289 -2.359,3.998 -2.359,0 v -1.94 c 0,-3.997 2.086,-6.291 5.728,-6.291 3.655,0 5.752,2.294 5.752,6.291 V 0 c 0,3.998 -2.097,6.289 -5.752,6.289" /></g><g
           transform="translate(126.8995,71.0761)"
           id="g28"><path
             id="path30"
             style="fill:#3d3d3c;fill-opacity:1;fill-rule:nonzero;stroke:none"
             d="m 0,0 c -1.592,0 -2.724,-0.433 -4.006,-1.136 v 0.392 c 0,0.317 -0.239,0.564 -0.54,0.564 h -1.28 c -0.302,0 -0.54,-0.247 -0.54,-0.564 v -13.027 c 0,-0.318 0.238,-0.569 0.54,-0.569 h 1.254 c 0.311,0 0.566,0.255 0.566,0.569 V -3.03 c 1.364,0.668 2.441,0.978 3.39,0.978 2.008,0 2.751,-0.9 2.751,-3.318 v -8.401 c 0,-0.314 0.258,-0.569 0.571,-0.569 h 1.226 c 0.313,0 0.568,0.255 0.568,0.569 V -5.37 C 4.5,-1.804 2.986,0 0,0" /></g><g
           transform="translate(136.2296,60.7773)"
           id="g32"><path
             id="path34"
             style="fill:#3d3d3c;fill-opacity:1;fill-rule:nonzero;stroke:none"
             d="M 0,0 V 0.306 C 0,1.93 0.595,2.754 3.848,2.754 H 5.681 V -1.271 C 4.41,-1.979 3.434,-2.27 2.29,-2.27 0.912,-2.27 0,-1.883 0,0 M 3.004,10.3 C 1.232,10.3 0.052,10.139 -0.963,9.967 -1.354,9.908 -1.549,9.731 -1.549,9.423 V 8.531 c 0,-0.212 0.091,-0.467 0.518,-0.467 l 0.132,0.002 C 0.162,8.17 1.371,8.27 3.004,8.27 5.008,8.27 5.681,7.556 5.681,5.441 V 4.476 H 3.848 c -4.359,0 -6.211,-1.254 -6.211,-4.195 v -0.307 c 0,-3.467 2.295,-4.193 4.219,-4.193 1.226,0 2.422,0.372 3.876,1.209 v -0.462 c 0,-0.314 0.256,-0.568 0.566,-0.568 h 1.177 c 0.311,0 0.569,0.254 0.569,0.568 v 8.913 c 0,3.223 -1.694,4.859 -5.04,4.859" /></g><g
           transform="translate(153.6143,71.0761)"
           id="g36"><path
             id="path38"
             style="fill:#3d3d3c;fill-opacity:1;fill-rule:nonzero;stroke:none"
             d="m 0,0 c -1.219,0 -2.35,-0.375 -3.543,-1.177 v 0.433 c 0,0.317 -0.24,0.564 -0.543,0.564 h -1.2 c -0.301,0 -0.544,-0.247 -0.544,-0.564 v -13.027 c 0,-0.318 0.243,-0.569 0.544,-0.569 h 1.255 c 0.31,0 0.565,0.255 0.565,0.569 v 10.668 c 1.232,0.749 2.241,1.051 3.466,1.051 0.378,0 0.595,0.171 0.595,0.49 v 1.045 C 0.595,-0.28 0.488,0 0,0" /></g><g
           transform="translate(174.2291,70.8959)"
           id="g40"><path
             id="path42"
             style="fill:#3d3d3c;fill-opacity:1;fill-rule:nonzero;stroke:none"
             d="m 0,0 h -1.383 c -0.265,0 -0.463,-0.237 -0.486,-0.454 l -2.117,-11.643 c -0.071,-0.264 -0.104,-0.264 -0.152,-0.264 -0.036,0 -0.097,0.057 -0.152,0.264 l -2.499,11.323 c -0.181,0.577 -0.482,0.805 -1.077,0.805 h -1.432 c -0.598,0 -0.899,-0.228 -1.074,-0.805 l -2.505,-11.323 c -0.052,-0.207 -0.123,-0.264 -0.149,-0.264 -0.052,0 -0.088,0 -0.149,0.257 l -2.121,11.649 C -15.325,-0.237 -15.516,0 -15.787,0 h -1.378 c -0.304,0 -0.54,-0.247 -0.54,-0.562 v -0.119 l 2.477,-11.852 c 0.365,-1.606 0.608,-1.806 2.202,-1.806 1.361,0 1.723,0.318 2.15,1.883 l 2.221,10.185 c 0.016,0.048 0.029,0.081 0.039,0.107 0.006,0.018 0.013,0.038 0.006,0.038 0.004,0.002 0.023,0.002 0.023,0.002 0.013,0 0.02,0 0.02,0.005 0.009,-0.01 0.012,-0.028 0.019,-0.045 0.009,-0.026 0.023,-0.059 0.039,-0.098 l 2.217,-10.194 c 0.411,-1.602 0.731,-1.883 2.154,-1.883 1.526,0 1.856,0.145 2.199,1.809 l 2.48,11.863 v 0.105 C 0.541,-0.247 0.304,0 0,0" /></g><g
           transform="translate(178.9078,64.7875)"
           id="g44"><path
             id="path46"
             style="fill:#3d3d3c;fill-opacity:1;fill-rule:nonzero;stroke:none"
             d="M 0,0 C 0,2.792 1.135,4.209 3.369,4.209 5.616,4.209 6.761,2.792 6.761,0 V -1.94 C 6.761,-4.695 5.584,-6.154 3.369,-6.154 1.135,-6.154 0,-4.732 0,-1.94 Z M 3.369,6.289 C -0.275,6.289 -2.357,3.998 -2.357,0 v -1.94 c 0,-3.997 2.082,-6.291 5.726,-6.291 3.65,0 5.752,2.294 5.752,6.291 V 0 c 0,3.998 -2.102,6.289 -5.752,6.289" /></g><g
           transform="translate(196.8067,71.0761)"
           id="g48"><path
             id="path50"
             style="fill:#3d3d3c;fill-opacity:1;fill-rule:nonzero;stroke:none"
             d="m 0,0 c -1.219,0 -2.347,-0.375 -3.543,-1.177 v 0.433 c 0,0.317 -0.236,0.564 -0.543,0.564 h -1.201 c -0.303,0 -0.539,-0.247 -0.539,-0.564 v -13.027 c 0,-0.318 0.236,-0.569 0.539,-0.569 h 1.252 c 0.31,0 0.569,0.255 0.569,0.569 v 10.668 c 1.229,0.749 2.241,1.051 3.466,1.051 0.381,0 0.595,0.171 0.595,0.49 v 1.045 C 0.595,-0.28 0.491,0 0,0" /></g><g
           transform="translate(210.0177,70.5605)"
           id="g52"><path
             id="path54"
             style="fill:#3d3d3c;fill-opacity:1;fill-rule:nonzero;stroke:none"
             d="m 0,0 c 0,0.103 -0.045,0.336 -0.437,0.336 h -1.791 c -0.3,0 -0.365,-0.061 -0.553,-0.247 l -5.008,-5.638 v 5.399 c 0,0.312 -0.255,0.567 -0.569,0.567 h -1.225 c -0.311,0 -0.563,-0.255 -0.563,-0.567 v -13.105 c 0,-0.314 0.252,-0.57 0.563,-0.57 h 1.225 c 0.314,0 0.569,0.256 0.569,0.57 v 5.945 l 4.979,-6.161 c 0.21,-0.289 0.33,-0.354 0.634,-0.354 h 1.84 c 0.129,0 0.336,0.051 0.336,0.388 0,0.12 -0.036,0.21 -0.087,0.266 l -5.639,6.808 5.584,6.04 C -0.052,-0.229 0,-0.112 0,0" /></g><g
           transform="translate(218.964,64.2216)"
           id="g56"><path
             id="path58"
             style="fill:#3d3d3c;fill-opacity:1;fill-rule:nonzero;stroke:none"
             d="m 0,0 -2.528,1.508 c -1.174,0.675 -1.737,1.131 -1.737,1.892 0,1.199 0.815,1.426 2.319,1.426 1.047,0 2.376,-0.07 3.957,-0.206 h 0.077 c 0.317,0 0.492,0.181 0.492,0.492 v 0.845 c 0,0.317 -0.178,0.511 -0.527,0.565 -1.303,0.221 -2.648,0.333 -3.999,0.333 -3.195,0 -4.682,-1.099 -4.682,-3.455 0,-1.865 1.413,-2.955 2.632,-3.701 l 2.58,-1.532 c 1.422,-0.871 1.891,-1.292 1.891,-2.07 0,-1.267 -0.692,-1.756 -2.47,-1.756 -0.863,0 -2.664,0.139 -4.012,0.278 h -0.1 c -0.311,0 -0.521,-0.176 -0.521,-0.439 v -0.894 c 0,-0.2 0.1,-0.465 0.579,-0.565 1.283,-0.347 3.265,-0.385 4.054,-0.385 3.117,0 4.83,1.336 4.83,3.761 C 2.835,-2.301 2.037,-1.205 0,0" /></g><g
           transform="translate(85.0719,63.7827)"
           id="g60"><path
             id="path62"
             style="fill:#4c76ba;fill-opacity:1;fill-rule:nonzero;stroke:none"
             d="m 0,0 c 0,-11.745 -9.527,-21.263 -21.274,-21.263 -11.753,0 -21.278,9.518 -21.278,21.263 0,11.738 9.525,21.257 21.278,21.257 C -9.527,21.257 0,11.738 0,0" /></g><g
           transform="translate(62.9742,56.749)"
           id="g64"><path
             id="path66"
             style="fill:#ffffff;fill-opacity:1;fill-rule:nonzero;stroke:none"
             d="m 0,0 c -1.516,0 -2.221,1.419 -2.396,2.26 l -2.23,9.304 c -0.036,0.139 -0.277,0.874 -1.176,0.874 h -4.309 c -0.343,-0.01 -2.112,-0.147 -2.112,-2.218 0,-2.069 1.753,-2.202 2.105,-2.206 h 1.133 c 1.471,0 4.26,-0.831 4.26,-3.982 0,-3.143 -2.781,-4.006 -4.25,-4.026 h -4.135 v 1.779 h 4.125 c 0.396,0.009 2.482,0.163 2.482,2.247 0,2.073 -2.071,2.201 -2.488,2.204 h -1.132 c -1.56,0 -3.877,1.059 -3.877,3.984 0,2.919 2.324,3.988 3.885,3.993 h 4.313 c 1.882,0 2.726,-1.464 2.907,-2.24 L -0.659,2.651 C -0.654,2.622 -0.436,1.778 0,1.778 c 0.492,0 0.618,0.771 0.623,0.802 0.003,0.01 0.006,0.031 0.008,0.042 l 1.852,9.302 c 0.123,0.809 0.781,2.289 2.411,2.289 1.513,0 2.182,-1.458 2.334,-2.256 L 9.474,2.658 C 9.475,2.645 9.479,2.632 9.481,2.619 c 0,-0.002 0.201,-0.834 0.623,-0.834 0.483,0 0.621,0.795 0.623,0.801 0,0.01 0.006,0.03 0.009,0.038 l 1.868,9.295 c 0.121,0.816 0.775,2.294 2.494,2.294 v -1.775 c -0.615,0 -0.723,-0.7 -0.734,-0.777 -0.004,-0.022 -0.007,-0.042 -0.011,-0.065 L 12.482,2.294 C 12.356,1.487 11.703,0.006 10.104,0.006 8.596,0.006 7.912,1.413 7.741,2.257 l -2.246,9.306 c -0.003,0.018 -0.012,0.035 -0.013,0.053 0,0.003 -0.181,0.822 -0.588,0.822 -0.536,0 -0.652,-0.782 -0.653,-0.791 C 4.239,11.63 4.237,11.614 4.232,11.598 L 2.378,2.294 C 2.254,1.484 1.604,0 0,0" /></g><g
           transform="translate(251.0118,67.2509)"
           id="g68"><path
             id="path70"
             style="fill:#4c76ba;fill-opacity:1;fill-rule:nonzero;stroke:none"
             d="m 0,0 c 0,1.167 -0.88,1.55 -2.563,1.55 -0.402,0 -1.359,-0.039 -1.703,-0.077 L -5.031,-2.831 C -4.725,-2.85 -3.654,-2.888 -3.329,-2.888 -1.358,-2.888 0,-2.162 0,0 m 2.678,0.115 c 0,-2.028 -1.167,-3.998 -3.386,-4.687 L 1.32,-10.157 C 1.416,-10.406 1.243,-10.54 1.052,-10.54 h -2.2 c -0.21,0 -0.287,0.153 -0.363,0.383 l -1.818,5.107 h -0.382 c -0.497,0 -1.052,0.038 -1.703,0.077 l -0.899,-5.184 c -0.038,-0.211 -0.095,-0.383 -0.44,-0.383 h -1.913 c -0.229,0 -0.344,0.115 -0.306,0.383 l 2.315,13.16 c 0.076,0.383 0.306,0.517 0.708,0.574 1.013,0.153 2.391,0.249 3.787,0.249 2.87,0 4.84,-1.11 4.84,-3.711 m -15.896,3.711 c 1.262,0 2.984,-0.191 3.615,-0.345 0.172,-0.038 0.325,-0.114 0.287,-0.363 L -9.564,1.703 C -9.603,1.454 -9.622,1.32 -9.985,1.358 c -1.263,0.134 -2.334,0.192 -3.75,0.192 -1.052,0 -2.257,-0.325 -2.257,-1.435 0,-0.67 0.325,-1.033 1.282,-1.626 l 2.065,-1.281 c 1.55,-0.957 2.028,-2.009 2.028,-3.444 0,-3.175 -2.639,-4.457 -5.777,-4.457 -1.434,0 -2.448,0.134 -3.328,0.344 -0.172,0.039 -0.344,0.115 -0.306,0.383 l 0.249,1.377 c 0.038,0.211 0.095,0.402 0.459,0.364 0.765,-0.096 2.658,-0.192 3.366,-0.192 1.339,0 2.525,0.459 2.525,1.779 0,0.708 -0.306,1.148 -1.3,1.818 l -2.258,1.511 c -1.301,0.861 -1.683,2.162 -1.683,3.233 0,3.079 2.735,3.902 5.452,3.902" /></g></g></g></g></svg>