<?xml version="1.0" encoding="UTF-8"?>
<svg width="62px" height="46px" viewBox="0 0 62 46" version="1.1" xmlns="http://www.w3.org/2000/svg" xmlns:xlink="http://www.w3.org/1999/xlink">
    <!-- Generator: Sketch 44.1 (41455) - http://www.bohemiancoding.com/sketch -->
    <title>icon/large/audible</title>
    <desc>Created with Sketch.</desc>
    <defs></defs>
    <g id="New" stroke="none" stroke-width="1" fill="none" fill-rule="evenodd" stroke-linecap="square">
        <g id="True-Fi-Landing-with-Icons" transform="translate(-454.000000, -2061.000000)" stroke="#FC7801" stroke-width="2">
            <g id="icon/large/audible" transform="translate(453.000000, 2051.000000)">
                <circle id="Oval" cx="32" cy="33" r="6"></circle>
                <path d="M53.423,11.999 C58.728,17.41 62,24.823 62,33 C62,41.176 58.729,48.589 53.424,54" id="Shape"></path>
                <path d="M45.002,20.552 C48.098,23.785 50,28.17 50,33 C50,37.831 48.097,42.217 45,45.45" id="Shape"></path>
                <path d="M10.577,11.999 C5.272,17.41 2,24.823 2,33 C2,41.176 5.271,48.589 10.576,54" id="Shape"></path>
                <path d="M18.998,20.552 C15.902,23.785 14,28.17 14,33 C14,37.831 15.903,42.217 19,45.45" id="Shape"></path>
            </g>
        </g>
    </g>
</svg>