<?xml version="1.0" encoding="UTF-8"?>
<svg width="58px" height="62px" viewBox="0 0 58 62" version="1.1" xmlns="http://www.w3.org/2000/svg" xmlns:xlink="http://www.w3.org/1999/xlink">
    <!-- Generator: Sketch 44.1 (41455) - http://www.bohemiancoding.com/sketch -->
    <title>icon/large/headphones</title>
    <desc>Created with Sketch.</desc>
    <defs></defs>
    <g id="New" stroke="none" stroke-width="1" fill="none" fill-rule="evenodd" stroke-linecap="square">
        <g id="True-Fi-Landing-with-Icons" transform="translate(-690.000000, -879.000000)" stroke="#FC7801">
            <g id="icon/large/headphones" transform="translate(687.000000, 878.000000)">
                <g id="Group" transform="translate(4.000000, 2.000000)">
                    <path d="M56,47 L56,28 C56,12.536 43.464,0 28,0 L28,0 C12.536,0 0,12.536 0,28 L0,47" id="Shape" stroke-width="2"></path>
                    <path d="M43.003,11.923 C39.07,8.251 33.793,6 28,6 C22.167,6 16.857,8.282 12.915,12" id="Shape" stroke-width="2"></path>
                    <path d="M17,36 L5,36 L5,54 C5,57.314 7.686,60 11,60 L17,60 L17,36 Z" id="Shape" stroke-width="2"></path>
                    <path d="M39,36 L51,36 L51,54 C51,57.314 48.314,60 45,60 L39,60 L39,36 Z" id="Shape" stroke-width="2"></path>
                </g>
            </g>
        </g>
    </g>
</svg>