<svg xmlns="http://www.w3.org/2000/svg" width="24" height="24" viewBox="0 0 24 24">
    <path fill="#262931" fill-rule="evenodd" d="M20 7.39a6.645 6.645 0 0 1-1.885.518 3.302 3.302 0 0 0 1.443-1.817 6.557 6.557 0 0 1-2.084.796 3.283 3.283 0 0 0-5.593 2.994 9.317 9.317 0 0 1-6.768-3.429 3.28 3.28 0 0 0 1.017 4.382 3.248 3.248 0 0 1-1.487-.41v.04a3.284 3.284 0 0 0 2.633 3.22 3.31 3.31 0 0 1-1.482.056 3.284 3.284 0 0 0 3.065 2.28A6.58 6.58 0 0 1 4 17.38a9.297 9.297 0 0 0 5.032 1.474c6.039 0 9.34-5.002 9.34-9.34a8.97 8.97 0 0 0-.01-.424A6.658 6.658 0 0 0 20 7.39"/>
</svg>
