<svg xmlns="http://www.w3.org/2000/svg" width="1440" height="770" viewBox="0 0 1440 770">
    <path fill="#E4E6EB" fill-rule="evenodd" d="M-414 952.638s2.487 1.37 7.437 3.813c4.958 2.422 12.236 6.185 22.09 10.421 2.475 1.048 5.145 2.027 7.935 3.13 2.782 1.087 5.711 2.31 8.933 3.152 3.174.944 6.5 1.934 9.966 2.967 3.525.932 7.247 1.6 11.148 2.135 7.76 1.01 16.456 1.262 25.101-.994 4.415-.765 8.63-2.636 12.967-4.267 4.022-2.283 8.443-4.27 12.154-7.311 15.714-11.28 28.587-27.925 41.34-46.201 6.442-9.152 12.67-18.964 19.272-29.032 6.618-10.06 13.472-20.49 20.835-31.094 7.34-10.607 15.27-21.359 24.192-31.92a991.682 991.682 0 0 1 28.459-31.948c10.044-10.693 20.807-21.343 31.35-32.623 2.622-2.83 5.264-5.684 7.918-8.546 2.502-3.001 5.028-6.018 7.565-9.055 2.312-3.14 4.64-6.297 6.987-9.47 2.172-3.292 4.36-6.597 6.555-9.916 17.155-26.858 30.098-57.07 42.466-88.462 6.104-15.756 12.337-31.722 17.936-48.244 5.273-16.75 7.946-34.157 10.519-51.812l3.59-26.682 3.963-26.892c.882-4.493 1.772-8.99 2.658-13.505l1.337-6.783c.49-2.178 1.08-4.446 1.678-6.655 2.526-8.806 5.398-17.826 11.168-25.188 2.84-3.553 6.866-6.515 11.626-7.043 4.779-.59 9.764 1.033 14.217 3.257 4.504 2.26 8.677 5.192 12.663 8.306 4.042 3.145 7.706 6.457 11.28 10.11l10.896 10.748c3.493 3.506 6.94 7.451 10.359 11.128a1366.022 1366.022 0 0 1 20.14 23.142c13.323 15.608 26.631 31.497 41.055 46.787 14.35 15.566 31.182 28.92 47.191 43.173 16.219 14.118 32.733 28.13 50.156 41.437 17.346 13.36 36.043 25.74 56.431 35.57l7.682 3.495 3.99 1.798 3.995 1.429 8.005 2.861c3 1.037 5.576 1.515 8.389 2.303l4.138 1.067c.77.19 1.2.342 2.242.556l2.114.345 8.455 1.398c.796.12 1.208.233 2.32.35l2.14.132 4.283.267 4.282.257 1.064.07c.323.035 1.08.019 1.267 0l2.145-.082 8.56-.338c3.159-.237 5.747-.644 8.65-.951l4.25-.505 4.306-.811 8.428-1.612c11.078-2.442 22.175-4.884 33.28-7.33 11.105-2.365 22.199-5.223 33.207-7.261 11.334-2.124 22.482-2.61 33.832-2.19l8.63.68c2.541.19 5.615.834 8.4 1.23l4.271.68c1.108.151 2.72.621 4.06.916l8.405 2.02c2.472.69 5.41 1.696 8.086 2.527l4.108 1.312 1.025.326c.074.016.591.233.867.334l2.001.792 7.997 3.153 2.005.788c.415.148 1.224.567 1.818.835l3.874 1.821c20.559 9.587 39.65 21.616 58.677 33.722 19.005 12.157 38.033 24.338 57.912 35.31 4.88 2.82 10.09 5.413 15.08 7.968l3.777 1.93c1.43.71 2.627 1.211 3.948 1.828l7.752 3.53c5.389 2.427 10.65 4.205 15.973 6.337 2.965 1.071 5.534 1.704 8.324 2.578l4.103 1.227 2.051.613c.175.05.902.28 1.217.319l1.053.21 8.42 1.65c1.453.271 2.689.555 4.32.815 1.442.198 2.892.365 4.337.5 5.805.556 11.66.63 17.454.113 11.533-1.067 22.918-4.34 32.325-10.53 9.392-6.072 16.549-14.385 22.432-23.04 5.879-8.686 10.658-17.99 14.754-27.28 8.284-18.805 14.652-38.021 20.885-57.124 12.473-38.153 23.862-76.274 42.357-110.978 4.714-8.574 9.71-17.085 15.663-24.808l4.531-5.874c.746-.909 1.527-2.1 2.242-2.776l2.58-2.703 5.14-5.397c.386-.396.949-1.017 1.198-1.227l1.449-1.207 2.887-2.412c1.888-1.537 3.928-3.347 5.68-4.667l6.37-4.131 3.174-2.062c.936-.574 2.141-1.2 3.221-1.77a82.214 82.214 0 0 1 6.843-3.165c9.252-3.906 19.669-4.954 29.888-4.185 20.614 1.86 40.275 8.049 59.233 14.902 18.977 6.95 37.372 14.661 55.767 21.767 9.224 3.576 18.39 6.989 27.654 10.114 9.256 3.2 18.523 5.956 28.07 8.057 9.516 2.132 19 3.363 28.71 3.444l7.1.027c2.627.062 4.752-.376 7.153-.536l7.111-.71 6.8-1.406c18.274-3.875 34.629-12.13 48.57-22.186 13.981-10.11 25.825-21.876 36.693-33.792 21.468-23.992 41.767-47.222 65.539-65.363 11.804-9.113 24.16-17.006 37.341-23.033 13.18-5.901 26.916-9.955 40.683-11.865 13.774-1.942 27.413-1.833 40.488-.567 13.118 1.172 25.638 2.982 37.633 5.082 23.97 4.225 45.668 9.626 65.348 14.118 19.658 4.559 37.345 8.317 52.942 10.348 7.76 1.114 15.057 1.677 21.694 1.81 3.334.073 6.489.321 9.524.236 3.007-.14 5.863-.264 8.556-.392 2.716-.039 5.234-.396 7.58-.71 2.351-.32 4.55-.544 6.579-.89 3.979-.873 7.332-1.615 10.033-2.21 2.716-.543 4.725-1.094 6.057-1.521 1.341-.388 2.021-.587 2.021-.587l-2.024.579c-1.333.415-3.35.963-6.07 1.495-2.7.578-6.054 1.305-10.048 2.159-2.001.334-4.224.547-6.57.858-2.363.307-4.858.644-7.57.675-2.697.11-5.553.226-8.564.346-2.988.078-6.182-.186-9.496-.272-6.66-.175-13.876-.76-21.659-1.914-15.566-2.104-33.195-5.929-52.837-10.584-19.646-4.582-41.324-10.088-65.333-14.437-11.995-2.155-24.592-4.038-37.687-5.269-13.09-1.328-26.908-1.518-40.838.385-13.934 1.867-27.891 5.91-41.23 11.811-13.266 5.976-25.899 13.955-37.793 23.045-24.02 18.132-44.498 41.592-65.935 65.42-10.826 11.835-22.587 23.468-36.397 33.428-13.775 9.905-29.869 18-47.801 21.77l-6.8 1.39-6.854.66c-2.273.152-4.784.61-6.89.517l-7.099-.043c-9.244-.066-18.903-1.324-28.17-3.432-9.268-2.042-18.601-4.838-27.74-8.018-9.19-3.11-18.375-6.55-27.518-10.11-18.348-7.126-36.743-14.868-55.767-21.876-9.532-3.402-19.3-6.85-29.224-9.455-2.444-.746-5.11-1.309-7.558-1.895l-3.773-.881-.944-.222-1.057-.186-1.915-.322c-5.063-.788-10.255-1.91-15.562-2.217-10.511-.816-21.535.268-31.253 4.345a87.186 87.186 0 0 0-7.071 3.269c-1.174.613-2.239 1.153-3.459 1.895l-3.186 2.058-6.372 4.123c-2.27 1.693-3.944 3.223-5.953 4.846l-2.891 2.403-1.45 1.204c-.687.621-.928.947-1.418 1.433l-5.152 5.385-2.584 2.703c-1.069 1.075-1.597 1.976-2.425 2.974l-4.542 5.867c-6.143 7.948-11.156 16.459-15.95 25.145-18.71 34.953-30.204 73.21-42.743 111.288-6.256 19.06-12.675 38.253-20.881 56.805-4.154 9.354-8.832 18.37-14.606 26.877-5.774 8.457-12.64 16.358-21.581 22.128-8.778 5.766-19.673 8.911-30.689 9.905-5.533.486-11.148.408-16.724-.132-1.403-.14-2.79-.299-4.189-.489-1.18-.194-2.743-.532-4.095-.788l-8.416-1.662c-5.087-1.309-11.024-3.16-16.075-4.788-5.226-2.1-10.795-4.014-15.749-6.27l-7.744-3.541c-1.247-.583-2.673-1.196-3.78-1.752l-3.777-1.945c-5.094-2.617-10.04-5.078-14.937-7.92-19.727-10.93-38.674-23.1-57.643-35.28-19.005-12.126-38.239-24.33-59.093-34.06l-3.874-1.82c-.711-.315-1.158-.575-2.08-.933l-1.996-.788-8-3.14-2.01-.785c-.388-.148-.517-.23-1.134-.431l-1.03-.326-4.111-1.305c-2.813-.866-5.312-1.743-8.39-2.601-10.972-2.82-23.064-5.095-34.434-5.572-11.672-.458-23.663.163-34.784 2.279-11.435 2.14-22.327 4.985-33.463 7.37-11.086 2.461-22.172 4.919-33.238 7.377l-8.308 1.603-4.056.777-4.243.509c-2.76.302-5.805.753-8.331.943l-8.56.353-2.145.086c-.528.012-.474.039-.874.004l-1.073-.066-4.286-.253-4.282-.26-2.137-.128c-.314-.027-1.301-.206-1.92-.303l-8.458-1.382-2.11-.342c-.362-.066-1.29-.326-1.908-.481l-4.134-1.06c-2.67-.738-5.72-1.355-8.067-2.19l-8.004-2.85-4.006-1.417L288.7 659l-7.69-3.479c-20.105-9.672-38.526-21.82-55.802-35.077-17.35-13.197-33.867-27.164-50.074-41.22-16.029-14.218-32.943-27.61-47.048-42.881-14.388-15.201-27.693-31.031-41.067-46.625a1292.427 1292.427 0 0 0-20.213-23.153c-3.548-3.8-6.796-7.525-10.515-11.256-3.652-3.588-7.293-7.164-10.922-10.732-3.54-3.607-7.453-7.144-11.525-10.29-4.092-3.187-8.385-6.204-13.18-8.604-4.745-2.337-10.262-4.224-15.962-3.525-5.77.675-10.325 4.162-13.418 8.045-6.135 7.89-8.968 17.088-11.524 26.01a151.433 151.433 0 0 0-1.702 6.807l-1.321 6.787c-.882 4.516-1.76 9.02-2.639 13.505-1.313 9.07-2.626 18.086-3.932 27.043l-3.532 26.668c-2.514 17.58-5.187 35.053-10.336 51.49-5.525 16.42-11.742 32.452-17.8 48.17-12.29 31.376-25.14 61.503-42.117 88.193-2.168 3.3-4.332 6.589-6.485 9.847-2.331 3.184-4.659 6.34-6.967 9.485-2.49 2.994-4.962 5.964-7.421 8.923-2.642 2.862-5.265 5.708-7.88 8.534-10.503 11.28-21.25 21.93-31.253 32.725a998.74 998.74 0 0 0-28.31 32.134c-8.899 10.646-16.794 21.471-24.087 32.141-7.317 10.662-14.113 21.127-20.676 31.226-6.551 10.118-12.698 19.918-19.09 29.101-12.656 18.35-25.33 34.934-40.9 46.229-3.676 3.052-8.048 5.024-11.976 7.292-4.387 1.67-8.436 3.514-12.865 4.306-8.564 2.275-17.179 2.073-24.915 1.095-3.878-.509-7.62-1.165-11.101-2.07-3.474-1.017-6.804-1.984-9.987-2.92-3.229-.83-6.116-2.019-8.925-3.102-2.786-1.087-5.475-2.058-7.938-3.09-9.885-4.19-17.17-7.914-22.148-10.317-4.962-2.415-7.457-3.778-7.457-3.778m-4-11.718l7.429 4.168c4.93 2.69 12.239 6.754 22.181 11.319 10.005 4.32 22.407 10.26 38.403 12.687 3.974.54 8.14 1.089 12.468.848 2.16-.11 4.3-.113 6.581-.308 2.164-.404 4.371-.812 6.61-1.228 2.3-.33 4.452-1.124 6.663-1.87 2.195-.747 4.359-1.758 6.406-2.897 2.087-1.132 4.212-2.127 6.341-3.406 1.935-1.392 3.905-2.808 5.898-4.235 2.079-1.341 3.886-3.114 5.68-4.782 1.823-1.711 3.692-3.34 5.537-5.18 1.683-1.881 3.392-3.786 5.117-5.715 1.737-1.89 3.516-3.888 5.063-6.007 6.636-8.2 12.825-17.322 18.933-26.942 6.108-9.631 12.177-19.791 18.451-30.355 6.244-10.565 12.62-21.565 19.676-32.673a832.119 832.119 0 0 1 22.686-33.898c8.182-11.4 17.204-22.789 26.673-34.31 9.593-11.454 19.395-23.22 29.905-34.924 10.518-11.719 20.83-24.119 30.142-37.514 9.333-13.402 17.286-27.948 24.657-42.996 7.428-15.028 14.08-30.693 20.569-46.728 3.182-8.03 6.356-16.125 9.324-24.446 2.778-8.25 4.97-17.019 6.559-25.67 3.31-17.462 5.082-35.449 6.752-53.595 1.663-18.17 3.047-36.554 5.218-55.147.564-4.62.86-9.386 1.648-13.92.715-4.654 1.437-9.32 2.16-13.994 1.259-9.324 3.411-18.617 6.535-27.583 1.628-4.452 3.582-8.815 6.384-12.695 2.708-3.783 6.648-7.108 11.48-7.773 4.85-.723 9.978 1.02 14.505 3.38 4.573 2.406 8.785 5.501 12.794 8.79a146.427 146.427 0 0 1 5.855 5.125c1.8 1.695 3.618 3.698 5.428 5.53 3.625 3.751 7.262 7.504 10.906 11.275 3.485 3.678 6.862 7.8 10.312 11.692 3.322 4.001 6.655 8.018 9.993 12.034 13.23 16.218 26.175 32.848 39.436 49.47 13.28 16.61 26.886 33.26 42.055 48.96 7.642 7.87 15.98 15.258 24.485 22.284 8.455 7.127 16.983 14.25 25.67 21.261 8.7 7.034 17.523 13.897 26.68 20.515 9.17 6.59 18.437 13.099 28.399 18.9l7.347 4.367c2.665 1.555 5.144 2.679 7.72 4.04 2.61 1.314 4.993 2.581 7.79 3.935l7.95 3.437 3.974 1.71.999.436c.536.226.734.272 1.115.42l2.043.75 8.175 2.983 2.044.746c.936.315 1.468.436 2.214.665l4.197 1.221c2.879.778 5.412 1.703 8.586 2.364l8.59 1.761 2.153.44c.183.046.94.19 1.267.214l1.091.109 4.371.462 4.371.463 2.184.23c1.177.046 1.585.007 2.417.011l8.784-.066c11.994-.828 23.557-3.06 34.836-5.595 11.35-2.465 22.718-4.938 34.094-7.415 11.396-2.524 22.663-4.787 34.167-5.673 11.855-.828 23.215-.117 34.801 1.458l8.711 1.555 2.176.39c.478.092.571.085.956.186l1.072.26 4.293 1.038c2.786.724 5.91 1.303 8.412 2.15l8.4 2.664 2.106.661c.482.16.525.152.89.307l1.022.409 4.075 1.625 8.031 3.22c5.195 2.527 10.708 4.902 15.646 7.546l7.682 4.114 3.765 2.014 3.753 2.197c5.02 2.955 9.981 5.759 14.877 8.83 19.613 12.085 38.612 24.998 57.996 37.428 19.45 12.342 39.222 24.426 60.677 33.68l3.975 1.746c1.573.72 2.797 1.034 4.204 1.57l8.217 2.917c.766.249 1.19.467 2.23.747l2.118.548 4.23 1.085 4.228 1.08c.8.183 1.19.362 2.331.549l2.172.307 8.653 1.233c3.128.408 5.991.439 9.002.443 5.945-.05 11.878-.75 17.589-2.154 5.7-1.408 11.229-3.492 16.198-6.365 4.985-2.854 9.414-6.396 13.315-10.285 3.858-3.958 7.42-8.052 10.234-12.702l4.266-6.677 2.176-3.445 1.841-3.472c9.826-18.753 16.59-38.384 23.103-57.9 12.91-39.006 23.933-78.172 41.425-114.251 8.862-17.855 19.019-35.313 33.297-49.564 1.799-1.707 3.582-3.76 5.397-5.187l5.933-4.852 1.484-1.213c.202-.156.583-.506.645-.506l.804-.536 3.225-2.131c2.137-1.361 4.313-2.955 6.407-4.13 4.44-2.503 9.084-4.661 14.022-6.065 4.923-1.411 10.102-2.162 15.304-2.356 5.265-.206 10.327.14 15.611.976 2.553.396 5.401.598 7.701 1.158l7.716 1.715a281.338 281.338 0 0 1 29.785 8.978c19.423 6.878 38.158 14.962 56.827 22.47 18.657 7.532 37.295 14.733 56.294 20.028 9.601 2.473 19.377 4.25 29.183 4.923l7.254.284 7.316-.358 3.594-.183 1.791-.093c.878-.086 1.251-.19 1.9-.288l7.017-1.158 3.5-.58 3.51-1.003 6.71-1.94 1.798-.537 1.593-.66 3.178-1.327 6.337-2.636c4.185-2.329 7.95-4.191 11.963-6.653 3.648-2.558 7.367-4.774 10.914-7.582 13.972-10.654 25.72-22.964 36.398-35.441 21.054-25.153 39.805-50.294 62.386-70.49 11.268-10.105 23.374-18.819 36.515-25.464 13.144-6.567 26.867-11.424 40.741-14.227 13.82-2.823 27.834-3.892 41.18-3.044 13.316.983 26.164 2.745 38.41 4.95 24.478 4.354 46.788 9.378 67.12 13.044 20.3 3.795 38.624 6.28 54.655 7.322 16.015.952 29.691.583 40.656-.385 10.952-1.186 19.213-2.796 24.671-4.18 5.522-1.213 8.284-2.08 8.284-2.08s-2.77.851-8.291 2.041c-5.475 1.357-13.739 2.932-24.684 4.063-10.987.922-24.602 1.225-40.629.199-15.988-1.112-34.276-3.675-54.546-7.559-20.297-3.764-42.556-8.885-67.072-13.356-12.227-2.26-25.095-4.094-38.562-5.148-13.49-.91-27.442.09-41.499 2.877-14.038 2.765-27.959 7.613-41.266 14.188-13.276 6.626-25.686 15.456-37.027 25.534-22.85 20.23-41.682 45.516-62.748 70.545-10.665 12.419-22.345 24.6-36.172 35.11-3.28 2.594-7.208 4.95-10.805 7.458-3.56 2.197-7.895 4.355-11.583 6.423l-6.337 2.625-3.178 1.322-1.593.661-1.546.443-6.718 1.933-3.236.937-3.497.567-7.017 1.151c-.525.078-1.31.23-1.624.253l-1.791.086-3.586.178-7.091.35-7.25-.299c-9.554-.68-19.096-2.422-28.538-4.864-18.882-5.3-37.377-12.474-56.003-20.025-18.642-7.535-37.315-15.63-56.908-22.61a283.31 283.31 0 0 0-30.096-9.118l-7.708-1.726c-2.837-.661-5.3-.793-7.973-1.217-5.175-.832-10.762-1.248-16.12-1.023-5.405.195-10.817.96-16.016 2.442-5.214 1.47-10.082 3.733-14.643 6.303-2.413 1.365-4.367 2.811-6.582 4.215l-3.229 2.127-.808.532c-.497.327-.56.44-.862.665l-1.489 1.21-5.94 4.844c-2.203 1.77-3.715 3.57-5.603 5.354-14.574 14.504-24.874 32.137-33.888 50.186-17.705 36.367-28.79 75.548-41.767 114.493-6.516 19.422-13.334 39.042-23.028 57.433l-1.857 3.468-2.056 3.24-4.281 6.668c-2.654 4.39-6.186 8.44-9.865 12.193-7.437 7.54-17.022 13.189-27.955 15.728-5.42 1.326-11.058 1.987-16.726 2.022-2.802 0-5.778-.062-8.428-.42l-8.648-1.248-2.172-.311c-.303-.02-1.298-.315-1.908-.463l-4.227-1.093-4.231-1.092-2.118-.545c-.365-.077-1.282-.443-1.892-.649l-8.206-2.932c-1.297-.49-2.894-.96-3.943-1.473l-3.971-1.754c-21.132-9.145-40.757-21.179-60.083-33.485-19.298-12.42-38.297-25.387-57.996-37.56-4.872-3.068-9.99-5.977-14.935-8.9l-3.746-2.198-3.9-2.103-7.67-4.122c-5.304-2.838-10.541-5.093-15.825-7.667l-8.256-3.336-4.08-1.63-1.018-.404c-.307-.14-.971-.346-1.189-.412l-2.102-.661c-10.968-3.791-23.102-6.459-34.583-8.325-11.784-1.629-24.09-2.313-35.71-1.466-11.94.926-23.58 3.301-34.883 5.825l-34.058 7.461c-11.353 2.582-22.71 4.744-34.032 5.56l-8.78.082-1.967.016-2.187-.226-4.375-.455-4.367-.45-1.096-.117c-.404-.031-.361-.055-.886-.156l-2.148-.431-8.594-1.75c-2.557-.506-5.533-1.532-8.28-2.275l-4.196-1.213-1.97-.583-2.052-.743-8.174-2.97-2.044-.747c-.291-.109-.789-.28-.913-.338l-.995-.428-3.982-1.71-7.953-3.419-7.585-3.826c-2.494-1.306-5.26-2.59-7.521-3.915l-7.355-4.359c-19.408-11.552-37.432-25.172-54.749-39.05-8.664-6.967-17.18-14.06-25.647-21.167-8.582-7.069-16.73-14.277-24.275-22.011-15.102-15.576-28.685-32.14-41.977-48.7-13.28-16.584-26.257-33.198-39.541-49.424-3.369-4.04-6.73-8.068-10.082-12.096-3.505-3.939-6.734-7.881-10.444-11.797-3.652-3.764-7.293-7.512-10.926-11.256-1.86-1.878-3.531-3.73-5.54-5.619a137.376 137.376 0 0 0-5.987-5.222c-4.115-3.363-8.447-6.548-13.315-9.106-4.814-2.48-10.499-4.53-16.393-3.67-5.964.878-10.346 4.77-13.287 8.872-2.969 4.138-4.99 8.69-6.648 13.263-3.182 9.2-5.323 18.567-6.586 27.996-.715 4.681-1.426 9.347-2.133 14.001-.8 4.736-1.072 9.36-1.632 14.025-2.133 18.578-3.489 37.059-5.117 55.201-1.632 18.154-3.357 36.005-6.613 53.39-1.616 8.771-3.675 17.12-6.465 25.475-2.898 8.185-6.069 16.311-9.231 24.34-6.434 15.993-13.04 31.647-20.425 46.64-7.313 15.005-15.176 29.45-24.412 42.77-9.235 13.337-19.458 25.679-29.944 37.405-10.502 11.747-20.316 23.536-29.828 35.053-9.433 11.595-18.385 23.03-26.536 34.512a827.777 827.777 0 0 0-22.543 34.08c-7.01 11.163-13.319 22.19-19.508 32.794-6.201 10.58-12.223 20.775-18.265 30.421-6.054 9.655-12.134 18.722-18.731 26.969-1.547 2.13-3.24 4.055-4.993 5.992-1.721 1.936-3.415 3.85-5.09 5.735-1.74 1.757-3.671 3.464-5.462 5.164-1.838 1.722-3.513 3.398-5.591 4.755l-5.875 4.265c-1.985 1.206-4.204 2.279-6.248 3.39-2.059 1.16-4.122 2.132-6.321 2.894-2.176.75-4.344 1.551-6.57 1.878-2.234.427-4.437.851-6.601 1.26-2.126.186-4.375.217-6.5.33-4.259.257-8.436-.268-12.383-.79-15.934-2.34-28.367-8.22-38.375-12.488-9.978-4.519-17.29-8.543-22.244-11.206-4.91-2.734-7.448-4.141-7.448-4.141M-482 722s2.359 2.102 6.936 6.176c4.633 4.033 11.41 10.1 20.635 17.648 4.656 3.717 9.73 8.04 15.867 12.173 3.023 2.114 6.104 4.402 9.481 6.647 3.482 2.04 6.98 4.436 10.978 6.324 1.994.963 3.882 2.117 6.062 2.979 2.142.843 4.314 1.71 6.529 2.583 2.273.874 4.66 1.305 7.045 1.993 2.363.691 4.897 1.22 7.465 1.367 5.15.385 10.55-.237 15.595-2.082 5.048-1.83 9.656-4.817 13.678-8.456 3.96-3.69 7.699-7.816 10.528-12.61 1.507-2.326 3.038-4.684 4.585-7.065 1.547-2.474 2.62-5.062 3.975-7.63 5.522-10.223 9.653-21.554 13.908-33.308 4.162-11.817 8.09-24.22 12.272-37.054 4.174-12.823 8.755-26.057 13.038-39.85 8.627-27.577 16.67-57.207 26.693-88.003 5.06-15.39 10.733-31.006 17.417-46.703 6.443-15.767 14.976-31.223 20.906-48.124 5.98-16.843 10.788-34.3 15.354-52.215 4.34-18 7.888-36.448 10.52-55.397 5.79-37.788 8.805-77.238 12.267-117.648 3.52-40.418 6.77-82.024 14.557-123.868 4.065-20.855 8.88-41.952 17.293-62.062 4.274-10.018 9.35-19.814 16.469-28.387 7.033-8.519 16.476-15.83 28.025-18.521 11.522-2.809 24.059-.556 35.165 4.051 11.25 4.603 21.365 11.327 30.932 18.63 9.525 7.315 18.548 15.456 27.086 23.878A569.4 569.4 0 0 1-5.823 63.59c32.2 35.822 61.298 74.566 91.434 113.034 14.984 19.282 30.342 38.537 46.185 57.47 3.85 4.801 8.16 9.424 12.163 14.089 4.158 4.654 8.02 9.346 12.42 13.972l12.924 13.534 3.241 3.383c1.224 1.286 2.316 2.203 3.482 3.321l6.898 6.43 6.901 6.428c2.507 2.366 4.978 4.055 7.47 6.11l7.456 5.916c1.29 1.006 2.398 1.93 3.824 3l3.991 2.753c5.394 3.605 11.033 6.903 17.017 9.735a122.894 122.894 0 0 0 9.12 3.888c3.362 1.134 6.432 1.942 9.754 2.696 6.575 1.437 13.419 2.222 20.246 1.355l9.72-1.208 9.741-1.891c12.808-2.704 25.41-5.672 38.067-8.573l9.44-2.16 9.551-1.973c2.957-.564 6.385-.956 9.552-1.442l2.425-.35c.501-.073 1.546-.116 2.293-.174l4.896-.346c12.925-.753 25.818-.213 38.918 1.53 12.921 1.78 25.585 4.27 38.293 7.653 12.462 3.574 24.707 7.587 36.815 12.434 24.047 9.28 46.652 21.839 69.486 33.53 22.822 11.65 45.742 23.86 70.721 31.255.859.249 1.356.474 2.499.742l2.37.501 4.745.995 4.737 1.01c1.791.342 3.315.497 4.986.687 6.551.7 13.22.711 19.725-.21a68.88 68.88 0 0 0 9.583-2.047c.828-.244 1.465-.42 2.42-.753l2.189-.87 4.367-1.733 1.267-.513 1.03-.547 2.04-1.096 4.1-2.187c2.907-1.868 5.071-3.352 7.873-5.275l7.127-5.8 6.625-6.23 6.12-6.502c2.06-2.374 3.817-4.576 5.74-6.872l2.822-3.407 1.46-1.779 1.283-1.783 5.153-7.116 2.604-3.605 2.413-3.64c1.628-2.408 3.202-4.925 4.74-7.357 12.506-19.67 22.435-40.437 32.437-60.81a906.305 906.305 0 0 1 15.49-30.238c2.681-4.96 5.327-9.97 8.207-14.753l4.329-7.283c.723-1.165 1.434-2.533 2.172-3.527l2.413-3.492 4.827-6.969c1.562-2.074 3.594-4.246 5.526-6.23 3.952-4.01 8.374-7.603 13.36-10.427 9.909-5.772 22.103-7.765 33.878-6.401 5.864.68 11.794 1.853 17.308 3.787l8.514 2.879c1.36.485 2.938.936 4.13 1.449l4.143 1.67c11.075 4.362 21.8 9.132 32.615 13.79 21.583 9.353 43.022 18.358 64.488 26.771 10.757 4.223 21.486 8.177 32.332 11.794 10.819 3.597 21.75 7.07 32.697 9.707 11.047 2.641 22.24 4.517 33.446 5.333l4.244.307 4.158.082 4.158.081c1.597-.05 2.817-.163 4.24-.237l8.238-.52c3-.412 5.46-.92 8.203-1.383l4.018-.7c1.609-.365 2.666-.765 4.022-1.141l7.714-2.292c2.732-1.049 4.955-2.07 7.445-3.104l3.645-1.546c1.407-.633 2.355-1.25 3.56-1.88l6.836-3.73c2.401-1.374 4.367-2.8 6.56-4.194l3.205-2.102 1.66-1.095 1.519-1.142 6.054-4.545c16.158-12.205 29.487-26.814 41.576-41.385 12.024-14.753 23.215-29.55 33.797-44.302 5.347-7.303 10.344-14.827 15.754-21.765 5.483-6.848 12.427-12.822 20.996-15.736 8.53-3.006 18.14-2.358 26.766.125 4.353 1.227 8.557 2.874 12.61 4.727 3.964 1.79 7.807 4.234 11.682 6.293l2.89 1.608 2.659 1.771 5.417 3.624c1.756 1.208 3.676 2.382 5.289 3.613l5.106 3.853c6.863 5.062 13.251 10.29 19.535 15.627 3.124 2.661 6.221 5.314 9.303 7.936 3.163 2.56 6.07 5.202 9 7.925a16243.01 16243.01 0 0 0 17.347 15.821c22.838 20.7 44.273 40.045 65.292 56.79 10.512 8.38 20.996 15.985 31.185 23.043 10.158 7.097 20.18 13.437 29.88 19.26 9.796 5.624 19.46 10.418 28.954 14.123 9.45 3.792 18.548 6.86 27.361 8.558 17.662 3.407 33.634-.12 43.376-6.7 5.106-3.007 9.02-6.375 12.342-9.28 3.074-3.132 5.662-5.765 7.74-7.886l5.713-6.872s-1.959 2.33-5.747 6.848c-2.091 2.11-4.687 4.736-7.772 7.847-3.335 2.886-7.271 6.23-12.373 9.206-9.758 6.526-25.652 9.964-43.209 6.499-8.74-1.717-17.852-4.828-27.221-8.643-9.459-3.737-19.065-8.542-28.83-14.205-9.602-5.831-19.609-12.21-29.72-19.341-10.143-7.09-20.569-14.722-31.014-23.124-20.903-16.8-42.233-36.227-64.962-57.005a176886.94 176886.94 0 0 0-17.258-15.887c-2.872-2.692-5.88-5.45-9.016-8.01-3.066-2.637-6.151-5.298-9.26-7.97-6.217-5.33-12.726-10.702-19.527-15.764l-5.083-3.877c-1.787-1.363-3.575-2.455-5.37-3.701l-5.398-3.64-2.778-1.869-2.892-1.616c-3.92-2.109-7.558-4.463-11.79-6.409-4.119-1.911-8.42-3.593-12.909-4.871-8.907-2.58-19.014-3.306-28.076-.136-9.074 3.073-16.31 9.338-21.917 16.323-5.569 7.104-10.477 14.496-15.863 21.826-10.581 14.7-21.816 29.495-33.78 44.14-12.16 14.578-25.232 28.88-41.305 40.992l-6.062 4.54-1.523 1.14-1.543 1.01-3.21 2.093c-2.126 1.348-4.321 2.913-6.408 4.094l-6.847 3.725c-1.108.575-2.363 1.34-3.357 1.768l-3.638 1.542c-2.382.986-4.978 2.144-7.193 3.002l-7.71 2.28c-1.231.346-2.712.836-3.738 1.065l-4.018.695c-21.276 4.02-43.78 1.457-65.537-3.71-10.994-2.668-21.68-6.09-32.48-9.691-10.771-3.609-21.528-7.59-32.19-11.797-21.374-8.406-42.828-17.453-64.345-26.815-10.76-4.66-21.61-9.497-32.673-13.867l-4.135-1.678c-1.55-.645-2.864-1.002-4.314-1.523l-8.502-2.89c-5.798-2.028-11.814-3.228-17.961-3.95-12.257-1.457-25.27.633-35.74 6.724-5.25 2.967-9.89 6.731-13.978 10.864-2.06 2.117-3.967 4.114-5.817 6.557l-4.842 6.97-2.429 3.483c-.932 1.302-1.5 2.444-2.269 3.679l-4.344 7.272c-2.954 4.898-5.585 9.862-8.293 14.842a929.61 929.61 0 0 0-15.575 30.291c-10.061 20.401-19.947 40.993-32.413 60.52-1.566 2.474-3.082 4.883-4.718 7.299l-2.42 3.64-2.542 3.503-5.16 7.105-1.295 1.783-1.352 1.632-2.83 3.402-5.63 6.732-6.124 6.491-6.502 6.083-6.971 5.64c-9.288 6.91-20.887 12.652-33.214 14.264-6.17.87-12.516.85-18.808.17-1.535-.174-3.23-.368-4.609-.64l-4.737-1.006-4.74-1.01-2.371-.501c-.431-.086-1.442-.443-2.137-.653-24.622-7.326-47.234-19.403-70.06-31.095-22.85-11.735-45.304-24.29-69.828-33.818-12.02-4.832-24.598-8.996-37.278-12.628-12.591-3.38-25.722-6.002-38.837-7.816-12.944-1.74-26.452-2.373-39.684-1.596l-4.9.334c-.886.074-1.484.074-2.604.21l-2.42.341c-3.28.501-6.362.832-9.801 1.469l-9.552 1.957-9.544 2.187c-12.649 2.918-25.305 5.92-37.927 8.6l-9.408 1.853-9.715 1.22c-6.151.812-12.649.101-18.85-1.247-3.075-.687-6.347-1.569-9.18-2.517a119.6 119.6 0 0 1-8.829-3.748c-5.75-2.708-11.265-5.928-16.523-9.428l-3.91-2.684-3.675-2.882-7.47-5.905c-2.389-1.965-5.199-3.93-7.246-5.904l-6.914-6.421-6.913-6.421c-1.096-1.049-2.417-2.18-3.338-3.166l-3.237-3.38-12.952-13.517c-4.205-4.401-8.223-9.25-12.338-13.844-4.076-4.724-8.258-9.187-12.128-13.996-15.89-18.93-31.197-38.056-46.228-57.339C58.2 136.463 29.043 97.757-3.37 61.807a576.583 576.583 0 0 0-25.096-26.228c-8.662-8.507-17.627-16.583-27.377-24.053-9.703-7.388-20.09-14.294-31.721-19.033-11.487-4.759-24.82-7.183-37.174-4.157-12.392 2.914-22.305 10.702-29.545 19.5-7.337 8.876-12.509 18.937-16.799 29.048-8.487 20.378-13.259 41.56-17.312 62.509-7.753 42.045-10.924 83.71-14.378 124.128-3.393 40.456-6.33 79.798-12.043 117.551a571.591 571.591 0 0 1-10.387 55.23c-4.516 17.852-9.315 35.383-15.218 52.094-5.833 16.718-14.335 32.21-20.782 48.054-6.676 15.752-12.365 31.445-17.328 46.878-9.89 30.885-17.774 60.55-26.253 88.138-4.205 13.802-8.717 27.036-12.836 39.894-4.111 12.853-7.974 25.264-12.07 37.073-4.197 11.785-8.265 23.116-13.706 33.297-1.32 2.545-2.44 5.233-3.897 7.583-1.531 2.389-3.05 4.747-4.55 7.085-2.767 4.758-6.463 8.872-10.357 12.531-3.956 3.62-8.483 6.577-13.441 8.395-4.951 1.833-10.26 2.47-15.33 2.117-2.558-.144-4.983-.641-7.376-1.325-2.363-.672-4.827-1.115-6.995-1.95-2.219-.862-4.399-1.72-6.544-2.556-2.106-.816-4.057-1.989-6.039-2.94-4.014-1.873-7.469-4.227-10.986-6.262-3.35-2.21-6.466-4.502-9.493-6.6-6.16-4.11-11.227-8.39-15.91-12.1-9.26-7.5-16.068-13.549-20.716-17.554l-6.971-6.153m-12-41.061s9.193 8.229 26.988 23.12c9.002 7.311 19.983 16.613 34.855 25.191 7.374 4.295 16.07 7.984 25.85 10.172 4.94.879 10.273.793 15.38-.532 5.123-1.31 9.893-3.91 14.017-7.276 4.136-3.367 7.7-7.444 10.868-11.871 1.516-2.294 2.842-4.641 4.295-7.005 1.369-2.413 3.04-4.645 4.19-7.288 2.333-5.119 4.976-10.219 7.203-15.684 2.247-5.418 4.358-11.027 6.445-16.764 4.093-11.49 8.342-23.485 12.159-36.064 3.798-12.601 7.292-25.766 10.685-39.402 6.81-27.279 12.999-56.524 20.621-87.088 3.845-15.28 8.09-30.885 13.282-46.604 2.527-7.899 5.462-15.743 8.47-23.676 3.164-7.914 6.161-15.948 9.108-24.161 2.709-8.217 5.403-16.582 7.914-25.056 2.487-8.462 5.263-17.001 7.498-25.72 4.812-17.394 8.563-35.32 12.116-53.632 7.035-36.596 13.325-74.595 19.462-113.69 6.278-39.041 12.353-79.295 23.925-119.257 5.9-19.878 12.707-39.904 24.034-58.211l2.045-3.483c.579-.933 1.547-2.15 2.305-3.207l4.839-6.588c1.423-1.96 3.654-4.008 5.45-6.013l2.849-3.02.707-.758.7-.642 1.543-1.364c8.299-7.199 18.518-12.812 29.888-15.222 11.346-2.487 23.517-1.67 34.944 1.446 1.435.385 2.861.801 4.276 1.256l1.061.342c.171.039.646.253.957.37l2.095.843 8.384 3.366c.622.26 1.586.59 1.92.8l1.983 1.058 3.968 2.11c2.59 1.396 5.427 2.83 7.829 4.206C-36.555 8.198-18.566 23.84-1.404 40.048c34.361 32.604 65.023 68.904 96.928 104.746 8.026 8.89 15.94 17.993 24.208 26.781l12.353 13.313 12.715 13.014c2.165 2.169 4.147 4.337 6.46 6.514l6.647 6.293 6.647 6.301 3.323 3.148 3.577 3.056 14.152 12.034 14.973 11.023c10.375 7.214 21.488 13.577 33.965 17.58 6.231 1.964 12.797 3.177 19.42 3.301 6.643.171 13.243-1.026 19.362-2.686a2519.07 2519.07 0 0 1 36.682-9.301c12.232-2.974 24.547-5.967 36.962-8.245 12.4-2.375 24.87-3.918 37.533-4.4 12.843-.482 25.395.163 38.055 1.45l9.45 1.127 9.48 1.497 2.37.377 2.283.435 4.703.921c3.195.634 6.192 1.178 9.306 1.952 12.55 2.705 24.577 6.246 36.69 10.028 24.134 7.774 47.958 16.644 72.524 23.302l4.58 1.26 1.146.307 1.263.284 2.317.513 9.286 2.04 9.57 1.345 2.356.335c.221.035 1.01.14 1.364.136l1.19.046 4.746.202 4.742.195c.493 0 .567.054 1.407.023l1.174-.09 2.363-.174c3.203-.288 6.142-.335 9.558-.824a80.734 80.734 0 0 0 18.297-5.158c11.272-5.104 21.799-12.264 30.02-20.457 2.41-2.181 4.05-4.327 6.11-6.484l2.939-3.242c.52-.583.917-.975 1.535-1.714l1.33-1.718 5.294-6.86 1.317-1.715.704-.94.606-.894 2.387-3.576c12.979-19.1 22.82-39.593 32.853-59.646 5.007-10.06 10.216-19.932 15.6-29.755 2.67-4.823 5.6-9.674 8.384-14.494 2.989-4.536 6.032-9.504 9.185-13.877l5.096-6.709c.832-1.06 1.737-2.363 2.503-3.222l2.88-3.113 5.695-6.173c2.021-1.943 4.12-3.782 6.355-5.469 4.45-3.382 9.512-6.067 15.016-7.673 5.496-1.628 11.362-2.165 17.196-1.8 5.823.378 11.658 1.59 17.36 3.06 5.512 1.585 11.405 3.603 16.8 5.36 5.45 2.2 11.07 4.31 16.349 6.569 5.333 2.398 10.755 4.726 15.987 7.163 21.107 9.885 41.876 20.026 62.889 29.211 5.213 2.344 10.588 4.482 15.82 6.674 5.376 2.04 10.67 4.198 16.07 6.025a352.606 352.606 0 0 0 32.608 9.954c21.966 5.671 44.44 8.715 66.66 7.576l8.306-.494 8.089-1.096 4.136-.567 3.957-.855 7.875-1.715 7.759-2.289 3.813-1.131 3.782-1.465 7.323-2.873 7.067-3.49 3.471-1.73c1.33-.676 2.247-1.333 3.39-2.002l6.526-3.98c4.353-2.958 8.26-5.741 12.337-8.92l5.718-4.758c.964-.82 1.874-1.516 2.877-2.438l2.666-2.522 5.322-5.038c1.846-1.764 3.37-3.521 5.068-5.274 13.314-14.106 24.31-29.44 34.172-44.903 9.923-15.478 17.071-31.943 26.163-46.764 4.882-7.136 11.005-13.85 19.19-17.37 8.183-3.631 17.908-2.764 26.227.4 8.384 3.167 16.069 7.828 22.77 13.2 3.401 2.67 6.99 5.282 10.177 7.952 3.257 2.807 6.42 5.555 9.484 8.447 12.376 11.377 23.49 23.232 34.564 34.602 11.023 11.4 22.012 22.233 32.686 32.724 21.356 20.967 41.988 40.06 61.98 56.87 20.142 16.64 39.503 31.197 58.585 42.248 4.812 2.713 9.52 5.337 14.297 7.517 1.181.56 2.351 1.116 3.517 1.672 1.237.52 2.418.944 3.623 1.41 2.383.918 4.735 1.824 7.047 2.71 4.552 1.967 9.349 3.016 13.788 4.346 2.301.583 4.548.936 6.763 1.403 1.112.218 2.208.431 3.297.649 1.111.12 2.207.237 3.3.358 17.398 2.188 32.426-1.66 42.524-7.168 5.154-2.674 9.384-5.504 12.785-8.178 3.335-2.764 5.893-5.302 8.073-7.238 2.18-1.94 3.755-3.475 4.715-4.579l1.52-1.617-1.528 1.61c-.967 1.104-2.546 2.631-4.738 4.555-2.192 1.928-4.77 4.462-8.1 7.199-3.417 2.659-7.654 5.469-12.812 8.116-10.126 5.446-25.056 9.208-42.412 6.958-1.073-.12-2.157-.241-3.25-.366-1.088-.217-2.188-.439-3.288-.664-2.204-.47-4.505-.84-6.725-1.423-4.474-1.353-9.17-2.398-13.721-4.385-2.309-.898-4.657-1.807-7.04-2.736-1.177-.463-2.367-.933-3.568-1.407-1.154-.56-2.332-1.123-3.51-1.691-4.758-2.2-9.43-4.828-14.2-7.54-18.988-11.106-38.24-25.72-58.255-42.412-19.882-16.869-40.406-36.032-61.63-57.064-10.6-10.526-21.545-21.41-32.495-32.837-10.98-11.385-22.094-23.338-34.455-34.812-3.043-2.896-6.274-5.733-9.484-8.524-3.359-2.846-6.814-5.341-10.25-8.05-6.826-5.48-14.6-10.238-23.311-13.542-4.362-1.602-9.034-2.737-13.842-2.92-4.8-.198-9.675.653-14.028 2.515-8.777 3.782-15.063 10.752-20.081 18.036-9.302 15.116-16.38 31.41-26.277 46.768-9.838 15.357-20.807 30.598-34.023 44.553-13.298 13.919-28.387 26.886-46.8 36.125l-6.876 3.393-7.335 2.861-3.576 1.388-3.821 1.127-7.565 2.231-7.887 1.699-3.945.851-3.93.529-8.093 1.08-8.1.463c-21.682 1.104-44.134-1.955-65.777-7.588a349.08 349.08 0 0 1-32.34-9.927c-5.384-1.823-10.624-3.972-15.918-5.986-5.27-2.227-10.534-4.314-15.746-6.682-20.944-9.18-41.643-19.337-62.773-29.26-5.333-2.5-10.677-4.797-16.034-7.215-5.52-2.371-10.954-4.416-16.458-6.643-5.865-1.928-11.218-3.778-17.157-5.508-5.842-1.508-11.809-2.775-17.982-3.183-6.153-.4-12.438.16-18.327 1.893-5.89 1.71-11.308 4.587-15.995 8.135-2.348 1.765-4.544 3.69-6.616 5.675l-5.82 6.278-2.883 3.11c-1.108 1.255-1.773 2.27-2.679 3.416l-5.111 6.705c-3.417 4.727-6.208 9.305-9.399 14.133-2.803 4.851-5.687 9.585-8.447 14.553-5.387 9.795-10.677 19.761-15.696 29.81-10.086 20.09-19.905 40.42-32.78 59.291l-2.397 3.572-.599.894-.599.782-1.321 1.71-5.306 6.853-1.33 1.718-1.383 1.531-2.947 3.23c-1.97 2.068-3.918 4.513-5.908 6.266-8.482 8.369-18.11 14.77-29.102 19.812a77.274 77.274 0 0 1-17.473 4.905c-2.798.412-6.188.502-9.251.774l-2.356.17-1.181.086c.05.016-.665-.023-.96-.035l-4.746-.202-4.743-.202-1.185-.054c-.436 0-.428-.04-.991-.105l-2.352-.335-9.267-1.306-9.278-2.056-2.32-.513-1.066-.233-1.143-.315-4.583-1.263c-24.375-6.64-48.051-15.502-72.291-23.35-12.147-3.82-24.578-7.486-37.024-10.18-3.083-.769-6.375-1.383-9.446-1.993l-4.707-.93-2.426-.47-2.37-.377-9.485-1.512-9.617-1.166c-12.804-1.337-25.907-1.998-38.626-1.531-12.897.462-25.77 2.029-38.287 4.435-12.555 2.328-24.823 5.329-37.133 8.345a2392.746 2392.746 0 0 0-36.721 9.368c-6.025 1.636-12.058 2.724-18.242 2.58-6.17-.104-12.338-1.228-18.25-3.078-11.832-3.759-22.848-10.02-32.842-16.959l-14.996-11-13.963-11.851-3.436-2.923-3.335-3.145-6.654-6.289-6.651-6.285c-2.138-1.99-4.253-4.288-6.387-6.414l-12.734-12.994-12.31-13.223c-8.295-8.793-16.143-17.795-24.22-26.712-31.92-35.74-62.69-72.06-97.282-104.78C-16.43 21.801-34.475 6.148-55.193-6.325c-2.795-1.594-5.341-2.865-8.027-4.307l-3.973-2.106-1.986-1.054c-.976-.501-1.477-.618-2.235-.948l-8.396-3.35-2.091-.84c-.4-.148-.603-.26-1.155-.436l-1.088-.354a102.767 102.767 0 0 0-4.424-1.29c-11.832-3.21-24.593-4.066-36.5-1.434-11.944 2.553-22.583 8.442-31.162 15.905l-1.597 1.419-.836.781-.711.754-2.842 3.024c-1.877 2.115-3.82 3.825-5.632 6.255l-4.828 6.6c-.82 1.154-1.582 2.068-2.445 3.42l-2.029 3.49c-11.412 18.499-18.277 38.8-24.166 58.78-11.54 40.156-17.554 80.499-23.765 119.555-12.532 78.078-23.311 152.37-46.532 217.892-2.896 8.12-5.885 16.193-9.026 24.084-3.009 7.957-5.951 15.87-8.462 23.777-5.186 15.792-9.426 31.426-13.166 46.744-7.478 30.65-13.511 59.907-20.177 87.197-3.32 13.643-6.737 26.8-10.464 39.39-3.755 12.602-7.922 24.578-11.96 36.083-2.05 5.738-4.125 11.343-6.34 16.765-2.174 5.399-4.809 10.56-7.106 15.676-1.065 2.523-2.783 4.855-4.109 7.245-1.438 2.348-2.79 4.754-4.24 6.985-3.122 4.408-6.632 8.454-10.694 11.793-4.046 3.34-8.723 5.909-13.74 7.215-5.011 1.325-10.255 1.43-15.13.587-9.729-2.142-18.311-5.734-25.743-10.013-14.849-8.47-25.896-17.744-34.926-25.013C-484.768 689.134-494 680.94-494 680.94M1560 334c.934.236 1.86.468 2.782.696l1.001.367c.564.165 1.129.33 1.689.498A300.749 300.749 0 0 0 1574 340a269.874 269.874 0 0 1-14-6m99 2c-.5.319-1.008.638-1.523.957a60.955 60.955 0 0 1-8.648 3.914c-1.63.47-3.3.96-5.017 1.465-1.73.512-3.44 1.05-5.334 1.276-3.75.56-7.598 1.521-11.775 1.373-4.093-.086-8.4-.486-12.703-1.48 11.722.081 22.091-1.651 30.823-4.1 3.116-.59 6.212-1.253 9.236-2.125 1.665-.386 3.307-.816 4.941-1.28m-.581-1.158c-1.757.518-3.522.998-5.314 1.42-2.342.687-4.714 1.243-7.105 1.738a102.07 102.07 0 0 0 6.988-2.469A130.677 130.677 0 0 0 1665 330a102.786 102.786 0 0 1-6.581 4.842M1611 342.4c.24.06.473.12.717.18 11.408.276 21.576-1.248 30.283-3.58-1.996.376-3.999.736-5.995 1.108-5.99 1.164-12.113 1.68-18.22 2.056-2.259.116-4.522.196-6.785.236m-1.94.6c-1.113-.284-2.235-.567-3.367-.855-1.541-.482-3.11-1.061-4.693-1.64 2.658.097 5.27.117 7.821.056 17.55-.069 32.083-3.873 43.24-7.798 5.699-1.767 10.372-4.145 14.518-5.923 1.977-1 3.776-1.957 5.421-2.84a105.865 105.865 0 0 1-6.469 5.935 131.153 131.153 0 0 1-12.749 6.077 101.262 101.262 0 0 1-9.062 3.184c-2.816.563-5.648 1.057-8.472 1.584-5.937 1.15-12.021 1.645-18.097 1.997-2.693.126-5.39.207-8.09.223m-1.061.008c.528 0 1.06 0 1.596-.008.14.036.284.068.432.104-.348-.012-.7-.028-1.052-.048-.328-.016-.652-.028-.976-.048m-7.677-1.14a149.491 149.491 0 0 1-20.724-3.437c-3.196-.624-6.369-1.513-9.599-2.431 10.242 2.009 20.02 3.275 29.188 3.68 1.988.646 3.908 1.325 5.896 1.883.644.147 1.28.294 1.916.437a184.085 184.085 0 0 1-6.677-.132m-24.177-1.852A281.582 281.582 0 0 1 1568 336c3.783 1.124 7.469 2.235 11.174 2.98A145.524 145.524 0 0 0 1595 342c-1.878-.127-3.74-.299-5.622-.474-3.107-.251-6.17-.522-9.241-.992-1.335-.156-2.665-.33-3.991-.518M1680 327c-.233.174-.47.353-.715.539-2.5 1.853-5.519 4.28-9.282 6.93-4.063 2.295-8.46 5.408-14.215 7.753-5.679 2.43-12.382 4.581-20.053 5.74-7.725 1.028-16.223 1.524-25.436.388-9.846-1.229-20.243-3.826-31.033-7.516-.423-.19-.847-.38-1.266-.57.796.097 1.589.19 2.38.28 3.046.445 6.145.697 9.206.934 3.053.255 6.148.53 9.224.577.738.035 1.472.062 2.21.09 2.51.228 4.98.387 7.407.484.885.038 1.763.066 2.64.085.444.109.89.213 1.333.318 4.482 1.058 8.921 1.469 13.163 1.543 4.291.135 8.245-.896 12.04-1.489 1.922-.244 3.725-.833 5.45-1.364 1.74-.535 3.444-1.055 5.103-1.562a59.524 59.524 0 0 0 8.8-4.132c.665-.427 1.313-.853 1.946-1.28 3.978-1.182 7.877-2.57 11.757-3.969 3.092-1.294 6.234-2.508 9.341-3.779m-32 24c-3.056 1.048-6.207 1.88-9.392 2.556l.015-.004a86.41 86.41 0 0 1-12.994.652c-2.175.012-4.32-.26-6.49-.576-1.37-.204-2.77-.332-4.139-.524.76.008 1.517.016 2.262.016 11.564-.128 21.856-.892 30.738-2.12m2.079-.07c-9.333 1.245-20.205 1.995-32.491 2.07a215.067 215.067 0 0 1-4.729-.075c-4.317-1.107-8.709-1.806-12.875-3.372l-6.341-2.093c-2.077-.691-4.104-1.65-6.166-2.462-1.163-.475-2.322-.97-3.477-1.469 9.182 2.91 18.057 4.967 26.55 6.012 9.166 1.115 17.79.577 25.452-.499 7.693-1.213 14.38-3.42 20.046-5.917 5.74-2.4 10.127-5.58 14.166-7.916 3.755-2.713 6.74-5.175 9.24-7.068.279-.216.55-.428.818-.632 1.93-.801 3.844-1.626 5.728-2.509l-3.67 3.864c-1.593 1.712-3.446 3.212-5.151 4.825l-2.609 2.38c-.868.785-1.887 1.445-2.818 2.171l-5.716 4.272c-1.88 1.457-3.837 2.808-5.961 3.958a61.584 61.584 0 0 1-6.535 3.145 59.295 59.295 0 0 1-3.461 1.316m.842-1.19a63.525 63.525 0 0 0 9.172-4.159c2.118-1.15 4.096-2.502 5.966-3.956l5.713-4.248c.936-.727 1.939-1.376 2.821-2.165l2.608-2.37c1.702-1.606 3.552-3.094 5.145-4.793l3.673-3.86c.44-.201.886-.411 1.317-.621-.431.21-.87.408-1.305.61l1.134-1.193-1.154 1.2a145.328 145.328 0 0 1-5.654 2.418l2.335-1.791c.875-.774 1.613-1.419 2.2-1.948a951.164 951.164 0 0 1 1.78-1.566s-.603.52-1.788 1.563l-2.207 1.935c-.73.548-1.547 1.174-2.456 1.862-3.16 1.278-6.35 2.495-9.495 3.797-3.75 1.337-7.516 2.662-11.348 3.801a104.236 104.236 0 0 0 6.84-5.072c4.807-2.53 8.585-4.92 11.473-6.88 2.588-1.682 4.574-2.934 5.813-3.878 1.267-.91 1.916-1.372 1.916-1.372l-1.92 1.36c-1.243.945-3.24 2.18-5.837 3.86a117.774 117.774 0 0 1-11.056 6.591 102.108 102.108 0 0 0 6.249-5.546c1.617-.828 3.074-1.586 4.391-2.246 2.72-1.353 4.742-2.441 6.055-3.234l2.01-1.15s-.677.38-2.013 1.138c-1.322.786-3.343 1.874-6.075 3.215-1.267.625-2.666 1.344-4.213 2.122a121.637 121.637 0 0 0 4.792-4.905c3.953-4.598 5.9-7.035 5.9-7.035s-1.959 2.433-5.935 7.004c-1.38 1.48-3.023 3.19-4.974 5.052a249.305 249.305 0 0 1-5.678 2.799c-4.197 1.694-8.9 3.948-14.66 5.623-11.27 3.704-25.91 7.292-43.561 7.28-2.97.058-6.016.008-9.122-.144-.287-.097-.57-.194-.855-.287-1.162-.405-2.331-.805-3.505-1.213l-3.436-1.457c-2.324-1-4.679-2.014-7.073-3.04-9.315-4.528-19.047-9.732-28.836-15.853-19.72-12.115-40.488-26.876-62.609-43.471-11.049-8.306-22.47-17.04-33.982-26.437-11.53-9.382-23.271-19.305-35.405-29.565-6.222-5.057-12.552-10.035-19.093-15.072l-9.906-7.571c-3.39-2.437-6.833-4.956-10.377-7.327-3.451-2.471-7.298-4.648-10.92-6.968-1.885-1.139-3.6-2.301-5.64-3.448l-5.88-3.05c-7.667-4.287-16.33-7.867-25.436-9.869-9.082-2.04-19.268-1.869-27.954 2.014-4.368 1.885-8.2 4.598-11.558 7.703-1.788 1.624-3.035 3.323-4.586 4.99l-2.223 2.515-2.122 2.67c-11.185 14.023-21.666 28.998-32.552 44.09-10.804 15.169-22.56 30.17-34.763 45.352-12.288 15.08-24.834 30.513-40.616 43.67-7.947 6.412-16.75 12.164-26.66 16.078-9.883 3.949-20.862 5.744-31.965 5.476-2.763-.175-5.752-.167-8.344-.497l-8.325-1.069-8.313-1.885c-2.568-.641-5.41-1.57-8.11-2.344-10.816-3.358-21.5-7.392-32.125-11.733-21.262-8.753-42.205-18.73-63.56-28.714-21.383-9.892-43.236-19.635-66.002-28.05-3.024-1.107-5.838-1.857-8.776-2.806-2.864-.847-5.833-1.927-8.872-2.584-6.032-1.423-12.219-2.39-18.472-2.729-12.46-.703-25.424 1.353-36.325 7.144-5.445 2.876-10.303 6.553-14.601 10.657a94.963 94.963 0 0 0-6.098 6.432c-2.056 2.375-3.436 4.71-5.192 7.074-1.64 2.41-3.373 4.582-4.951 7.198l-4.489 7.372c-3.043 4.874-5.884 10.008-8.682 15.014-5.585 10.125-10.99 20.35-16.373 30.654-5.29 10.33-10.594 20.7-15.926 31.108-5.367 10.393-10.758 20.824-16.164 31.295-5.336 10.49-10.629 21.03-16.365 31.38-5.81 10.28-11.799 20.669-19.498 29.822-1.908 2.3-3.832 4.819-5.728 6.945a81.505 81.505 0 0 1-6.537 6.253c-4.605 3.93-9.786 7.334-15.53 9.662-5.74 2.344-12.044 3.487-18.425 3.409-6.397-.066-12.801-1.24-19.02-3.032-3.074-.893-6.268-1.947-9.125-3.101l-9.02-3.953-4.512-1.978-4.267-2.173c-2.946-1.469-5.678-3.016-8.573-4.629-22.63-12.802-43.749-27.952-65.722-42.231-10.944-7.163-21.927-14.33-33.166-21.22-11.247-6.942-22.863-13.37-34.561-19.57-23.672-12.417-48.704-22.616-75.667-27.738l-4.967-.968-1.24-.24-1.383-.187-2.51-.327c-3.405-.4-6.56-.944-10.175-1.236l-10.097-.734c-3.641-.101-6.82-.082-10.248-.125-13.703.058-27.294 2.507-40.24 5.441-13.042 2.772-26.072 5.807-39.13 8.337-3.273.707-6.467 1.15-9.814 1.741l-4.803.8-5.013.49c-3.405.292-6.615.743-9.91.801-3.3.11-6.588.055-9.825-.264-12.98-1.384-25.149-7.33-36.034-14.264-5.46-3.513-10.695-7.38-15.717-11.43-2.471-2.033-5.063-4.108-7.302-6.234l-7.054-6.646-7.042-6.639-1.764-1.655-.793-.75-.816-.879-3.268-3.521-13.07-14.065c-8.43-9.398-16.595-19.22-24.465-29.049-15.786-19.74-30.725-39.938-45.388-60.176C65.01 185.88 36.932 145.078 6.844 106.092c-15.137-19.5-30.772-38.408-48.055-56.095-8.608-8.87-17.66-17.202-27.655-24.797l-1.83-1.422-1.998-1.372-3.847-2.631c-2.72-1.905-5.402-3.242-8.103-4.89-5.663-3.078-11.613-5.554-18.044-6.926-6.378-1.372-13.253-1.356-19.46.595-6.221 1.904-11.526 5.519-15.813 9.724-8.554 8.508-13.835 19.072-18.013 29.534-4.178 10.545-7.054 21.303-9.514 32.189-2.436 10.878-4.34 21.707-5.856 32.593-6.11 43.498-7.38 86.402-8.974 128.094-1.461 41.69-2.398 82.321-5.526 121.362-.474 4.881-.945 9.74-1.411 14.582-.459 4.874-.89 9.62-1.632 14.388-.657 4.78-1.318 9.534-1.967 14.264-.703 4.621-1.772 9.344-2.63 13.976l-1.346 6.907-1.772 6.836c-1.224 4.563-2.254 9.064-3.606 13.53-1.287 4.461-2.573 8.9-3.852 13.319-1.399 4.4-2.794 8.772-4.173 13.12-1.454 4.233-3.176 8.532-4.73 12.757-1.531 4.112-3.762 8.204-5.596 12.27-4.066 7.944-8.5 15.787-12.592 23.58-8.247 15.616-16.097 30.975-22.89 46.296-3.393 7.653-6.604 15.259-9.693 22.803-2.923 7.586-5.802 15.072-8.643 22.445-5.503 14.812-10.84 29.2-16.008 43.14-10.56 27.852-18.056 54.596-26.61 78.828-8.561 24.155-17.601 46.414-32.221 62.905-7.326 8.04-17.054 13.96-27.558 14.874-5.185.563-10.295-.028-15.072-1.14-4.791-1.08-9.288-2.615-13.462-4.383a121.898 121.898 0 0 1-21.83-12.068l-9.07-5.982c-2.736-2.071-5.324-4.034-7.777-5.888-9.805-7.4-16.882-13.54-21.751-17.57-4.788-4.109-7.264-6.223-7.264-6.223s2.464 2.126 7.24 6.253c4.846 4.046 11.889 10.214 21.667 17.66 2.44 1.862 5.025 3.833 7.745 5.912l9.051 6.028a122.608 122.608 0 0 0 21.841 12.185c4.178 1.795 8.694 3.354 13.51 4.462 4.795 1.134 9.983 1.76 15.242 1.208a39.054 39.054 0 0 0 15.23-4.765c4.741-2.623 8.985-6.152 12.77-10.175 3.895-3.972 6.712-8.826 10.109-13.408 3.078-4.882 5.647-9.993 8.527-15.267 2.382-5.422 4.931-10.902 7.337-16.627 2.308-5.732 4.52-11.64 6.692-17.7 8.682-24.224 16.311-50.937 26.983-78.687a81388.56 81388.56 0 0 0 16.222-43.063c2.88-7.361 5.798-14.831 8.755-22.395a873.868 873.868 0 0 1 9.782-22.713c6.875-15.235 14.714-30.556 22.969-46.126 4.127-7.815 8.514-15.538 12.677-23.63 1.857-4.124 4.014-8.022 5.666-12.39 1.578-4.264 3.26-8.43 4.78-12.838l4.197-13.113c1.29-4.435 2.589-8.889 3.89-13.366 1.353-4.45 2.43-9.06 3.646-13.576l1.78-6.829 1.384-7.003c.874-4.676 1.923-9.25 2.666-14.07.66-4.733 1.32-9.483 1.997-14.256.742-4.757 1.201-9.658 1.656-14.465.482-4.843.96-9.701 1.442-14.583 3.206-39.2 4.2-79.768 5.736-121.46 1.663-41.648 3.02-84.59 9.171-127.856 1.52-10.797 3.452-21.672 5.884-32.398 2.422-10.696 5.344-21.528 9.48-31.894 4.142-10.334 9.307-20.494 17.472-28.597 4.07-3.988 8.997-7.303 14.66-9.029 5.642-1.756 11.884-1.78 17.85-.493 12.043 2.611 22.688 9.374 32.497 16.689 9.731 7.396 18.845 15.81 27.32 24.575 17.054 17.497 32.72 36.487 47.705 55.865 29.964 38.944 57.961 79.764 87.24 120.332 14.652 20.28 29.584 40.534 45.378 60.355 7.935 9.934 15.996 19.666 24.6 29.286l13.046 14.084 3.261 3.522.816.882.96.921 1.76 1.66 7.035 6.65 7.038 6.653c2.448 2.313 4.951 4.318 7.497 6.417 5.11 4.14 10.415 8.073 16.035 11.691 11.18 7.128 23.753 13.397 37.818 14.948 6.913.727 13.963.214 20.566-.51l5.014-.481 5.102-.832c3.238-.567 6.689-1.053 9.942-1.753 13.186-2.542 26.135-5.538 39.216-8.294 13.05-2.934 25.95-5.293 39.287-5.39l9.98.108 10.105.715c3.109.237 6.63.809 9.922 1.197l2.51.327 1.127.14 1.244.237 4.963.964c26.17 4.885 51.381 15.08 74.555 27.225 11.721 6.192 23.244 12.55 34.387 19.402 11.192 6.844 22.163 13.984 33.119 21.128 21.911 14.19 43.103 29.359 66.017 42.27 2.802 1.566 5.76 3.23 8.682 4.68 1.512.757 2.794 1.46 4.485 2.27l4.52 1.97 9.024 3.94c3.24 1.303 6.323 2.298 9.58 3.254 6.45 1.85 13.201 3.086 20.022 3.144 6.82.082 13.664-1.166 19.805-3.688 6.163-2.511 11.604-6.122 16.4-10.218a86.459 86.459 0 0 0 6.774-6.495c2.149-2.429 3.878-4.734 5.841-7.108 7.916-9.46 13.866-19.868 19.723-30.253 5.756-10.424 11.045-21.003 16.358-31.501 5.39-10.47 10.753-20.898 16.1-31.29 5.317-10.42 10.603-20.794 15.873-31.132 5.355-10.292 10.745-20.53 16.291-30.619 2.822-5.072 5.546-10.023 8.597-14.936l4.48-7.38c1.376-2.317 3.25-4.711 4.847-7.059 1.683-2.281 3.268-4.885 5.029-6.894 1.877-2.165 3.832-4.264 5.915-6.254 4.146-3.976 8.794-7.501 13.967-10.241 10.35-5.515 22.689-7.513 34.744-6.852 6.04.315 12.051 1.244 17.935 2.62 2.954.633 5.717 1.651 8.682 2.522 2.857.921 5.935 1.757 8.59 2.728 22.695 8.352 44.494 18.03 65.865 27.879 21.305 9.934 42.369 19.926 63.693 28.675 10.687 4.341 21.456 8.399 32.424 11.788 2.79.789 5.351 1.644 8.305 2.378l8.32 1.874 8.558 1.1c3.024.361 5.697.322 8.565.501 11.41.272 22.817-1.597 33.023-5.698 10.228-4.061 19.218-9.977 27.286-16.514 15.902-13.296 28.537-28.889 40.806-43.992 12.168-15.2 23.948-30.28 34.732-45.477 10.886-15.142 21.286-30.062 32.424-44.07l2.044-2.584 2.223-2.523c1.5-1.616 2.907-3.486 4.47-4.881 3.217-2.997 6.89-5.59 10.982-7.361 8.25-3.677 17.838-3.91 26.68-1.97 8.927 1.942 17.22 5.293 24.985 9.591l5.888 3.024c1.787.995 3.696 2.25 5.526 3.354 3.696 2.344 7.411 4.411 10.894 6.883 3.563 2.363 6.944 4.812 10.376 7.26 3.323 2.523 6.626 5.026 9.902 7.51 6.53 4.978 12.97 9.995 19.113 14.955 12.184 10.21 23.979 20.09 35.568 29.433 11.574 9.37 23.05 18.068 34.142 26.335 22.206 16.518 43.08 31.21 62.873 43.266 9.855 6.102 19.594 11.259 28.995 15.78 2.398 1.017 4.757 2.02 7.081 3.007 1.17.494 2.336.98 3.483 1.466 1.014.345 2.028.687 3.03 1.03-10.345-.615-21.417-2.32-33.048-4.968-8.504-4.403-16.79-9.176-24.931-14.108-29.867-18.395-58.443-38.461-86.759-58.757-14.146-10.175-28.012-20.665-42.586-30.385-14.547-9.658-29.738-19.033-46.656-25.053-8.507-2.834-17.721-4.555-26.827-3.39-9.129 1.178-17.205 5.943-23.019 12.069-11.352 12.402-20.99 25.744-30.873 38.982-9.805 13.253-19.606 26.56-28.844 40.168-9.331 13.552-18.425 27.229-27.986 40.603-9.583 13.354-19.863 26.327-31.728 38.057-2.891 2.83-6.167 5.725-9.21 8.438-3.206 2.643-6.708 4.994-10.404 7.089-7.376 4.186-15.596 7.19-24.239 8.488-2.16.335-4.34.564-6.533.708-1.06.062-2.258.143-3.222.128l-3.353-.105-3.354-.101-1.543-.055-1.664-.221-6.653-.913c-1.966-.358-4.302-.96-6.436-1.427l-3.272-.75-3.105-.948-6.401-1.963-6.203-2.266c-16.621-6.176-32.513-13.84-48.357-21.683-31.604-15.71-62.772-32.468-95.915-45.718l-6.202-2.437-1.555-.61c-.688-.264-1.1-.373-1.671-.567l-3.183-1.03-6.35-2.084-1.594-.513-1.756-.42-3.269-.753-6.537-1.508c-2.526-.502-4.531-.58-6.828-.894-2.27-.237-4.34-.548-6.778-.727a81.932 81.932 0 0 0-6.84-.027c-9.132.315-18.133 2.53-26.123 6.354-8.06 3.81-14.873 9.402-20.505 15.675a92.839 92.839 0 0 0-7.745 9.864c-2.348 3.405-4.8 6.63-7.062 10.179l-6.669 10.393-6.272 10.544c-8.161 14.202-16 28.566-22.941 43.308-13.773 29.542-25.024 59.931-38.032 89.594-6.665 14.76-13.314 29.639-23.197 42.666-1.193 1.625-2.398 3.475-3.587 4.91a73.092 73.092 0 0 1-4.116 4.53c-2.88 2.908-6.024 5.59-9.514 7.813-6.933 4.512-15.401 6.996-24.025 6.86-17.473-.288-33.951-8.854-48.684-17.56-15.067-8.787-29.035-19.188-43.03-29.472-27.962-20.641-54.793-42.686-84.325-61.824-14.679-9.658-29.843-18.624-45.878-26.44-15.973-7.777-32.692-14.668-50.344-18.764-17.586-4.124-35.968-5.651-53.919-3.825-4.749.389-8.88 1.256-13.357 1.862l-13.113 2.825-25.937 5.683-12.965 2.817c-4.069 1.003-8.686 1.489-13 2.259-4.08.63-8.79.8-13.151 1.22-4.046.101-9.024.043-13.074.027-4.368-.4-9.136-.657-13.186-1.166-4.341-.781-8.997-1.465-13.062-2.343-8.39-2.142-16.225-6.087-23.504-10.68-7.268-4.614-14.174-9.931-20.45-15.547-6.164-5.908-12.736-11.745-18.573-17.715-11.822-12.196-22.844-25.212-33.314-38.423-42.03-52.978-78.212-109.465-116.5-164.76C14.282 152.33-5.13 124.77-26.967 98.63c-10.964-13.024-22.506-25.737-35.626-37.14l-2.44-2.126-.615-.536-.711-.552-1.286-.999-5.161-3.98c-3.626-2.654-7.326-5.025-11.321-7.143-3.968-2.087-8.24-3.89-12.763-4.979-4.52-1.08-9.382-1.368-14.01-.342-4.59.991-8.745 3.23-12.102 6.036-3.397 2.806-6.137 6.121-8.476 9.596-4.738 6.98-7.71 14.617-10.412 22.336-5.103 15.434-8.095 31.369-10.287 47.342-4.205 32.018-5.488 64.25-6.144 96.461-.645 32.212-.537 64.448-.77 96.652-.186 32.208-.804 64.404-3.288 96.453-2.429 31.948-7.889 63.996-19.626 94.012-5.6 15.065-15.32 28.594-23.61 42.667-8.526 13.992-16.699 28.174-24.568 42.469-7.96 14.268-15.557 28.722-22.518 43.425-6.914 14.726-13.995 29.37-19.94 44.47-11.959 30.164-21.045 61.178-33.007 91.26a340.361 340.361 0 0 1-9.798 22.259c-1.888 3.607-3.622 7.26-5.84 10.707-2.185 3.448-4.07 7.136-6.503 10.382-2.541 3.245-4.95 6.634-7.613 9.759-2.787 3.066-5.826 5.958-9.21 8.488-6.685 5.11-15.15 8.531-24.092 8.722a43.411 43.411 0 0 1-6.661-.292c-2.176-.3-4.38-.867-6.568-1.286l-3.257-.688-3.183-1.026c-2.098-.727-4.298-1.287-6.307-2.154-8.305-3.233-16.027-7.466-23.548-11.99-14.814-9.355-28.634-19.946-42.057-30.886 13.369 10.987 27.138 21.636 41.925 31.057 7.493 4.552 15.266 8.846 23.536 12.107 2.071.902 4.224 1.446 6.327 2.188l3.183 1.042 3.295.711c2.204.431 4.35.999 6.603 1.318 2.239.283 4.497.388 6.74.322 9.054-.151 17.663-3.595 24.44-8.737 3.436-2.542 6.518-5.445 9.343-8.523 2.732-3.183 5.11-6.514 7.683-9.76 2.526-3.346 4.376-6.949 6.6-10.411 2.23-3.444 4.018-7.14 5.922-10.743 3.568-7.299 6.906-14.75 9.918-22.255 12.137-30.093 21.371-61.081 33.45-91.105 6-15.025 13.159-29.662 20.13-44.322 7.027-14.657 14.672-29.037 22.69-43.254 7.962-14.256 16.124-28.391 24.658-42.356 8.297-14.038 18.04-27.517 23.808-42.865 11.915-30.37 17.395-62.387 19.91-94.51 2.545-32.126 3.213-64.37 3.458-96.581.284-32.228.23-64.436.925-96.628.711-32.162 2.052-64.37 6.288-96.178 2.2-15.884 5.204-31.703 10.276-46.961 2.639-7.505 5.608-15.072 10.159-21.722 4.426-6.596 10.61-12.698 18.887-14.466 8.22-1.811 17.038 1.06 24.558 5.06 3.79 2.013 7.477 4.388 10.87 6.88l5.153 3.983 1.287.999.57.44.611.536 2.433 2.13c12.945 11.274 24.383 23.91 35.257 36.864 21.662 26.009 41.016 53.572 60.114 81.198 38.16 55.294 74.256 111.863 116.364 165.102 10.532 13.323 21.472 26.289 33.442 38.687 6.12 6.273 12.471 11.904 18.69 17.882 6.552 5.884 13.462 11.205 20.978 16.005 7.496 4.741 15.666 8.904 24.65 11.213 4.672 1.01 8.893 1.605 13.366 2.429 4.823.61 9.028.808 13.57 1.232 4.89.043 8.881.105 13.762-.008 4.505-.431 8.756-.548 13.47-1.24 4.415-.781 8.702-1.205 13.226-2.281l12.988-2.802 25.949-5.648 12.844-2.77c4.333-.6 8.904-1.52 13.05-1.85 17.54-1.816 35.432-.347 52.668 3.668 17.247 3.984 33.636 10.712 49.43 18.372 15.779 7.66 30.955 16.592 45.517 26.145 29.318 18.935 56.17 40.922 84.228 61.579 7.027 5.185 14.034 10.327 21.243 15.32 7.268 4.995 14.391 9.923 22.187 14.319l5.717 3.292 2.856 1.648c.548.291.797.497 1.586.87l1.504.7 12.145 5.628c8.371 3.3 17.41 5.775 26.703 5.845 9.308.144 18.545-2.588 25.941-7.431 3.723-2.382 7.03-5.22 10.027-8.251a78.359 78.359 0 0 0 4.27-4.71c1.447-1.777 2.46-3.386 3.705-5.084 10.088-13.37 16.757-28.403 23.403-43.188 13.004-29.798 24.2-60.184 37.853-89.59 6.883-14.683 14.663-28.993 22.762-43.14l6.257-10.553 6.603-10.326c2.134-3.374 4.667-6.736 6.984-10.101a89.14 89.14 0 0 1 7.543-9.647c5.464-6.094 11.974-11.438 19.642-15.076 7.64-3.673 16.202-5.791 24.946-6.106a75.728 75.728 0 0 1 6.576.02c2.028.136 4.399.474 6.583.7 2.138.283 4.633.438 6.49.823l6.541 1.504 3.268.743 1.508.353 1.59.513 6.362 2.068 3.183 1.03c.485.163 1.154.365 1.496.497l1.55.61 6.21 2.43c32.941 13.117 64.067 29.79 95.76 45.492 15.837 7.808 31.895 15.527 48.669 21.73l6.342 2.309 6.397 1.95 3.3 1 3.272.746c2.238.478 4.228 1.018 6.669 1.453l6.657.902 1.663.225c.84.063 1.197.047 1.82.07l3.357.101 3.35.098c1.275.015 2.308-.07 3.474-.136a78.419 78.419 0 0 0 6.75-.743c8.955-1.356 17.478-4.485 25.052-8.81 3.793-2.154 7.408-4.583 10.707-7.323 3.237-2.884 6.28-5.573 9.366-8.597 11.943-11.842 22.253-24.913 31.849-38.322 9.58-13.436 18.65-27.14 27.946-40.688 9.207-13.611 18.95-26.88 28.744-40.16 9.809-13.21 19.544-26.631 30.632-38.862 5.604-5.95 13.22-10.459 21.876-11.625 8.635-1.143 17.62.463 25.96 3.21 16.785 5.912 31.775 15.088 46.349 24.672 14.577 9.627 28.506 20.075 42.699 30.195 28.436 20.195 57.117 40.16 87.089 58.458 7.563 4.536 15.242 8.932 23.108 13.028-3.397-1.17-6.875-2.274-10.365-3.529a246.1 246.1 0 0 1-2.064-.968c-21.172-10.14-43.628-23.082-67.665-37.626-11.993-7.326-24.472-14.951-37.417-22.857-12.953-7.858-26.338-16.253-40.877-23.692-3.719-1.92-7.48-3.479-11.274-5.259-3.715-1.81-7.792-3.303-11.838-4.625-8.13-2.6-16.99-4.411-25.945-3.494-8.903.86-17.531 4.89-23.438 11.057-6.374 5.795-11.947 12.173-17.702 18.68-11.302 13.02-22.355 26.856-32.587 41.613-10.326 14.695-20.023 30.23-30.182 45.9a1271.402 1271.402 0 0 1-15.584 23.646c-2.7 3.883-5.402 7.956-8.243 11.757-2.984 3.786-5.852 7.836-8.962 11.458l-4.916 5.542-2.464 2.779-.621.696c-.078.109-.409.4-.607.59l-1.364 1.295-5.491 5.18c-.886.813-1.877 1.847-2.693 2.48l-3.07 2.305-6.168 4.621c-1.959 1.43-4.28 2.756-6.522 3.992-4.547 2.471-9.4 4.531-14.5 6.04-10.186 3.011-21.304 3.828-32.268 2.323-10.936-1.321-21.643-4.578-32.124-8.542-20.979-8.158-41.254-18.395-61.766-28.885-20.484-10.498-41.269-21.314-63.137-30.731-10.92-4.676-22.311-9.01-33.838-12.554-3.152-.847-5.95-1.446-8.954-2.18-1.52-.342-2.86-.731-4.532-1.034-1.52-.265-3.054-.502-4.59-.696-6.152-.785-12.451-.944-18.654-.249-12.522 1.302-24.095 6.938-33.003 14.742-2.258 1.955-4.36 3.933-6.4 6.176l-5.628 6.576c-.94 1.139-1.854 2.103-2.837 3.389l-2.58 3.455-5.17 6.93c-6.56 9.596-12.746 19.29-18.331 29.445-5.53 10.148-10.47 20.606-15.114 31.205-9.288 21.21-17.387 43.036-25.203 65.077-7.928 21.99-15.34 44.357-25.743 65.664-5.305 10.56-11.247 21.061-19.797 29.608-4.263 4.244-9.238 7.89-14.97 10.28-5.705 2.417-12.052 3.567-18.464 3.435-6.4-.112-12.821-1.426-18.996-3.393a92.732 92.732 0 0 1-4.59-1.597c-1.353-.466-2.954-1.31-4.415-1.943l-8.993-4.112c-2.639-1.29-5.616-3.176-8.41-4.734-2.775-1.656-5.83-3.23-8.367-4.956a335.683 335.683 0 0 1-16.094-10.968c-21.032-15.208-40.958-31.873-61.528-48.01-20.601-16.122-41.3-32.212-63.681-46.737-11.247-7.197-22.844-13.665-34.915-19.91-11.966-5.698-24.865-11.233-37.771-14.948-13.167-3.805-26.983-6.281-40.834-6.324l-10.35.323-10.077 1.166c-3.618.528-6.707 1.197-10.085 1.792-3.459.621-6.614 1.403-9.937 2.102l-39.36 8.578c-3.261.626-6.654 1.488-9.798 1.916l-9.844 1.496-10.124.774-1.271.093c-.459.05-.501.016-1.084.02l-2.546-.028-5.095-.054c-13.35-.51-26.446-2.604-39.446-6.743l-2.44-.688c-.541-.152-1.52-.529-2.259-.785l-4.764-1.699-4.757-1.702c-.75-.276-1.695-.583-2.278-.832l-2.261-.975c-6.013-2.67-11.66-5.982-17.007-9.694-21.348-15.103-38.413-34.512-54.782-54.023-16.07-19.643-30.947-40.152-45.373-60.697-28.871-41.131-55.617-83.001-83.167-123.791-13.797-20.385-27.76-40.537-42.548-60.02-3.692-4.936-7.535-9.64-11.29-14.459-4.018-4.741-7.702-9.432-11.888-14.046-7.955-9.2-16.696-18.06-26.314-25.958l-3.599-2.9c-1.461-1.057-2.62-1.795-3.94-2.708-1.326-.879-2.488-1.71-3.938-2.628a62.676 62.676 0 0 0-4.197-2.316c-5.685-2.86-12.246-5.072-19.047-4.474-6.84.545-12.654 4.357-16.606 8.839-2.01 2.27-3.79 4.636-5.192 7.271l-2.064 3.759c-.342.68-.68 1.111-1.034 2.005l-.82 1.963c-4.52 10.54-7.314 21.629-9.253 32.554-1.978 11.069-3.389 22.037-4.33 33.07-3.695 44.012-3.287 87.332-2.941 129.362.373 42.048 1.216 82.978-.198 122.45-.35 9.868-.921 19.616-1.82 29.282-.411 4.819-.82 9.623-1.231 14.4-.638 4.768-1.267 9.514-1.897 14.24l-.94 7.073c-.381 2.212-.93 4.614-1.38 6.899-.971 4.586-1.834 9.332-2.887 13.723-1.376 4.482-2.744 8.943-4.108 13.382-1.349 4.256-3.482 8.566-5.17 12.81-3.815 8.286-8.584 16.258-13.092 24.128l-13.505 23.417c-8.915 15.406-17.73 30.42-26.956 44.71-9.269 14.292-18.39 28.186-26.536 42.073-8.16 13.887-14.787 28.01-20.601 41.85-11.515 27.731-20.415 54.296-30.247 78.3-9.774 23.968-20.248 45.73-34.204 62.756-6.743 8.555-15.464 15.391-25.316 18.625-4.92 1.582-10.034 2.23-14.966 2.09-2.483-.023-4.865-.388-7.224-.85-2.328-.494-4.746-.665-6.88-1.404-17.85-4.94-30.942-13.58-41.533-20.035-5.246-3.366-9.824-6.405-13.664-9.168-3.902-2.694-7.089-5.057-9.67-6.953-5.117-3.84-7.756-5.826-7.756-5.826l7.726 5.853c2.569 1.908 5.756 4.287 9.642 6.996 3.824 2.782 8.394 5.837 13.625 9.219 1.302.859 2.643 1.737 4.023 2.635 1.434.831 2.907 1.683 4.422 2.557 3.028 1.741 6.21 3.568 9.545 5.484 1.71.933 3.513 1.733 5.324 2.639 1.796.906 3.685 1.8 5.67 2.546 1.979.789 3.937 1.644 6.048 2.406 2.126.645 4.282 1.302 6.49 1.97 2.227.773 4.57.933 6.921 1.442 2.34.474 4.796.855 7.291.882 4.979.167 10.167-.466 15.153-2.056 9.988-3.23 18.822-10.105 25.661-18.698 14.1-17.043 24.71-38.815 34.616-62.78 9.96-23.996 18.989-50.514 30.624-78.16 5.876-13.789 12.526-27.784 20.726-41.597 8.192-13.82 17.376-27.665 26.715-41.917 9.339-14.28 18.172-29.305 27.13-44.719l13.54-23.393c4.551-7.913 9.296-15.8 13.233-24.303 1.718-4.314 3.774-8.38 5.25-12.97 1.369-4.438 2.748-8.896 4.128-13.377 1.15-4.707 1.959-9.223 2.957-13.875.463-2.348.988-4.567 1.411-7.027l.952-7.07c.638-4.722 1.275-9.467 1.924-14.236.42-4.804.84-9.635 1.263-14.49.917-9.665 1.508-19.483 1.873-29.366 1.485-39.558.708-80.484.408-122.536-.276-42.045-.61-85.23 3.148-129.136.956-10.929 2.39-21.967 4.353-32.83 1.97-10.999 4.741-21.784 9.172-32.095l.82-1.955c.136-.443.63-1.201.932-1.784l2.068-3.754c1.279-2.414 3.012-4.71 4.873-6.806 3.724-4.178 8.826-7.435 14.726-7.897 5.876-.529 11.9 1.434 17.298 4.17 1.36.68 2.69 1.426 3.999 2.208l3.793 2.557 3.739 2.55 3.587 2.91c9.405 7.754 17.939 16.394 25.925 25.66 4.034 4.446 7.874 9.34 11.753 13.93 3.727 4.795 7.617 9.58 11.227 14.415 14.71 19.44 28.615 39.573 42.357 59.958 27.465 40.786 54.137 82.698 82.993 123.943 14.438 20.622 29.24 41.108 45.458 61 4.178 4.873 8.103 9.81 12.495 14.636l6.416 7.187 6.731 7.034c9.149 9.258 18.752 18.26 29.754 25.87 5.484 3.82 11.36 7.279 17.617 10.073l2.355 1.019c.972.396 1.636.598 2.468.91l4.764 1.705 4.757 1.707c.86.295 1.446.552 2.53.878l2.437.684c12.767 4.104 26.777 6.463 40.523 6.957l5.091.062 2.545.027c.26.012 1.073.02 1.454-.027l1.267-.093 10.124-.754 10.166-1.52c3.549-.493 6.654-1.306 10.004-1.943l39.438-8.531c3.265-.684 6.623-1.504 9.794-2.075 3.257-.58 6.75-1.318 9.805-1.769l10.074-1.174 9.987-.31c13.358.046 26.575 2.397 39.42 6.074 13.17 3.793 25.074 8.928 37.32 14.71 11.686 6.029 23.411 12.535 34.499 19.616 22.082 14.284 42.874 30.386 63.433 46.426 20.558 16.074 40.518 32.725 61.73 48.018a338.23 338.23 0 0 0 16.249 11.046c2.876 1.924 5.697 3.35 8.542 5.045 2.93 1.624 5.472 3.276 8.733 4.877l8.993 4.097c1.554.676 2.852 1.387 4.624 2.029 1.59.594 3.175 1.142 4.788 1.655 6.428 2.04 13.19 3.428 20.073 3.54 6.848.137 13.746-1.118 19.89-3.738 6.184-2.585 11.508-6.518 15.958-10.968 8.93-8.974 14.915-19.682 20.279-30.366 10.493-21.582 17.865-44.011 25.75-66.005 7.777-22.033 15.818-43.794 25.024-64.933 4.602-10.56 9.503-20.965 14.974-31.039 2.69-5.103 5.756-9.887 8.706-14.862 2.88-4.812 6.342-9.65 9.393-14.334l5.153-6.933 2.577-3.46c.754-1.006 1.827-2.172 2.72-3.252l5.616-6.58c1.842-2.045 3.976-4.066 6.121-5.927 8.589-7.544 19.568-12.873 31.456-14.128 5.93-.68 11.974-.537 17.936.217a97.37 97.37 0 0 1 4.446.665c1.333.237 2.918.669 4.368.995 2.895.704 6.031 1.391 8.728 2.103 11.605 3.552 22.642 7.75 33.578 12.402 21.803 9.359 42.501 20.09 63.037 30.575 20.516 10.46 40.938 20.731 62.03 28.905 10.594 3.995 21.56 7.326 32.854 8.67 11.19 1.52 22.728.681 33.252-2.46 5.27-1.562 10.275-3.7 14.939-6.245 2.343-1.302 4.59-2.573 6.786-4.174l6.16-4.63 3.066-2.308c1.177-.944 1.904-1.756 2.876-2.643l5.475-5.184 1.364-1.295c.25-.248.405-.353.731-.719l.614-.695 2.468-2.787 4.905-5.546c3.283-3.852 6.016-7.742 9.031-11.582 2.946-3.96 5.538-7.898 8.29-11.862a1279.319 1279.319 0 0 0 15.569-23.696c10.139-15.71 19.781-31.206 30.06-45.89 10.175-14.737 21.154-28.472 32.366-41.558 5.647-6.433 11.278-12.931 17.469-18.602 5.763-6.055 13.858-9.825 22.4-10.715 8.574-.921 17.22.79 25.235 3.323 4.053 1.306 7.928 2.697 11.69 4.509 3.75 1.745 7.656 3.354 11.2 5.169 14.609 7.4 27.896 15.667 40.923 23.49 12.984 7.859 25.502 15.434 37.53 22.717 22.417 13.436 43.426 25.477 63.367 35.209-21.006-8.108-43.197-18.92-67.066-30.976-12.413-6.246-25.258-12.88-38.747-19.491-13.45-6.635-27.725-13.188-43.31-18.038-7.842-2.2-16.225-3.696-24.763-3.105-8.5.598-16.855 3.972-23.112 9.312-13.066 10.035-24.842 21.975-35.906 34.808-21.985 25.974-39.998 56.243-60.02 86.958-2.562 3.801-5.146 7.618-7.734 11.458-2.736 3.754-5.48 7.524-8.24 11.318-2.972 3.676-5.953 7.369-8.957 11.08-3.16 3.382-6.553 7.128-9.786 10.463l-5.476 4.92-2.744 2.472-1.302 1.147-1.527 1.088-6.117 4.372c-1.003.7-2.08 1.528-3.027 2.126a104.456 104.456 0 0 1-3.246 1.916c-8.775 4.948-18.728 8.419-29.24 9.67-10.575 1.271-21.235.428-32.055-1.873-10.559-2.43-20.819-6.219-31.055-10.323-20.454-8.34-40.391-18.352-60.713-28.415-20.282-10.043-41.004-20.237-62.95-28.578l-8.333-2.965c-2.736-1.034-5.732-1.838-8.491-2.701l-4.237-1.29-2.234-.657-2.173-.49-8.701-1.963c-11.92-2.328-24.643-2.207-36.12 1.87-11.554 3.948-20.92 11.613-28.366 20.233l-5.515 6.444-1.38 1.613-.738.874-.625.852-2.534 3.385-5.1 6.86-4.589 7.089c-12.265 19.083-21.725 39.674-30.29 60.704-8.48 21.077-15.58 42.772-22.735 64.564-7.264 21.745-14.298 43.786-24.406 64.754-5.17 10.385-10.987 20.712-19.381 29.11-4.159 4.163-9.048 7.801-14.62 10.226-5.574 2.468-11.76 3.801-18.041 3.965-6.292.178-12.65-.774-18.814-2.418-3.035-.843-6.23-1.741-9.012-2.992l-8.962-3.782-2.243-.945c-.42-.178-1.336-.707-1.985-1.045l-4.252-2.305c-2.787-1.523-5.79-3.078-8.406-4.586-5.495-3.323-10.863-6.763-16.097-10.389-21.014-14.52-40.632-30.836-60.623-46.891-19.953-16.098-40.38-31.94-61.972-46.507-5.39-3.669-10.893-7.206-16.447-10.642-2.876-1.78-5.553-3.323-8.522-5.087l-8.655-4.676-4.322-2.34c-1.648-.893-3.031-1.445-4.562-2.187l-8.962-4.175c-3.25-1.426-6.207-2.49-9.32-3.754l-4.62-1.827c-1.854-.637-3.246-1.03-4.897-1.558-3.253-.972-6.149-2.04-9.708-2.93l-9.767-2.193c-3.618-.777-6.7-.99-10.085-1.516l-2.48-.334-1.239-.175-1.454-.07-5.001-.206c-13.66-.625-27.189 1.594-39.979 4.524l-38.688 8.477c-12.961 2.806-25.49 5.363-38.953 5.803-13.03.252-26.194-1.61-38.871-4.532l-9.545-2.857-2.386-.715c-.529-.151-1.48-.54-2.2-.8l-4.648-1.746-4.64-1.749-2.2-.831-2.254-1.019-8.997-4.069c-5.709-2.662-11.76-5.962-17.275-8.885-2.685-1.71-5.798-3.307-8.141-5.103l-3.937-2.825-1.87-1.337-1.857-1.528c-2.41-2.04-5.091-4.088-7.28-6.12l-7.034-6.476-6.63-6.7c-2.285-2.227-4.26-4.493-6.435-6.856-16.964-18.602-32.07-38.314-46.59-58.315-28.949-40.07-55.535-81.046-82.367-121.218-13.439-20.086-26.928-39.997-41.047-59.375-3.506-4.812-7.085-9.682-10.754-14.4-3.575-4.773-7.36-9.514-11.126-14.104l-2.818-3.483c-1.06-1.275-2.025-2.273-3.05-3.42l-6.024-6.662-6.02-6.646a88.505 88.505 0 0 0-6.323-6.521c-4.388-4.167-9.005-8.166-14.061-11.726-5.056-3.517-10.579-6.747-16.968-8.298-3.163-.766-6.599-1.003-9.867-.404-3.276.583-6.296 2.01-8.78 3.867-4.986 3.77-8.13 8.838-10.632 13.914-4.893 10.311-7.38 21.135-9.34 32.033-.722 5.422-1.445 10.832-2.168 16.23l-1.076 8.08-.587 8.19c-1.823 21.566-2.363 43.11-2.487 64.288-.136 21.205.104 42.15.353 62.807.47 41.302 1.248 81.517-.936 120.239a616.474 616.474 0 0 1-2.282 28.733c-.47 4.683-1.15 9.468-1.721 14.081-.848 4.617-1.302 9.414-2.476 13.833-1.06 4.562-2.118 9.11-3.171 13.634-1.038 4.43-2.6 8.826-4.275 13.07-1.613 4.275-4.1 8.178-6.203 12.301-2.11 4.104-4.496 7.948-6.77 11.951-9.016 15.904-17.838 31.478-26.458 46.698a937.124 937.124 0 0 1-26.621 43.844c-8.888 14.136-18.775 27.249-26.89 40.875-8.072 13.63-14.78 27.412-20.819 40.868-11.977 27.015-21.755 52.76-32.38 75.994-10.572 23.187-20.975 44.52-35.386 60.802-6.902 8.235-15.63 14.71-25.276 17.928-4.823 1.578-9.821 2.313-14.667 2.32-2.437.008-4.792-.135-7.12-.567-2.309-.389-4.652-.657-6.817-1.123-8.865-2.08-16.544-5.282-23.466-8.469-3.338-1.78-6.52-3.486-9.548-5.107-1.52-.808-2.993-1.601-4.435-2.37-1.395-.81-2.724-1.676-4.026-2.473-10.508-6.358-18.141-11.764-23.349-15.324l-7.811-5.504s2.65 1.885 7.78 5.53c5.192 3.584 12.81 9.026 23.287 15.427 1.306.804 2.615 1.663 4.022 2.491 1.434.773 2.911 1.578 4.423 2.39 3.027 1.633 6.214 3.354 9.545 5.158 6.875 3.198 14.647 6.47 23.477 8.577 2.258.498 4.532.758 6.86 1.159 2.308.443 4.76.602 7.193.606 4.893.012 9.945-.711 14.838-2.29 9.778-3.217 18.616-9.72 25.615-17.986 1.768-2.049 3.571-4.128 5.398-6.223a4856.49 4856.49 0 0 1 4.815-6.895c3.307-4.597 6.308-9.56 9.149-14.718 5.736-10.296 11.072-21.368 16.427-32.978 10.754-23.21 20.675-48.955 32.758-75.846 6.113-13.452 12.856-27.117 20.951-40.646 8.13-13.502 18.095-26.592 27.076-40.724 18.538-27.975 35.113-58.838 53.325-90.51 2.25-3.933 4.725-7.925 6.836-12.01 2.083-4.073 4.624-8.06 6.296-12.448 1.721-4.35 3.287-8.718 4.38-13.324 1.057-4.52 2.125-9.063 3.19-13.63 1.236-4.664 1.663-9.273 2.534-13.953.595-4.765 1.267-9.378 1.757-14.19a610.954 610.954 0 0 0 2.331-28.81c2.258-38.828 1.551-79.054 1.15-120.36-.213-20.657-.419-41.587-.244-62.765.16-21.193.73-42.542 2.588-64.144 2.227-21.321 3.782-43.677 13.054-63.677 2.406-4.89 5.45-9.647 9.887-12.978 4.372-3.408 10.412-4.442 16.117-2.953 5.72 1.39 11.01 4.438 15.876 7.835 4.877 3.447 9.393 7.365 13.703 11.473a86.02 86.02 0 0 1 6.167 6.386l6.009 6.657 6.016 6.67c.971 1.092 2.094 2.27 2.938 3.292l2.81 3.486c3.8 4.656 7.473 9.266 11.052 14.058 3.669 4.734 7.159 9.506 10.688 14.368 14.053 19.34 27.48 39.24 40.876 59.329 26.761 40.195 53.282 81.214 82.227 121.413 14.508 20.055 29.73 39.977 46.733 58.675 2.095 2.278 4.26 4.754 6.518 6.97l6.739 6.816 7.026 6.49c2.483 2.302 4.94 4.16 7.419 6.258l1.854 1.535 2.063 1.493 3.937 2.825c2.81 2.115 5.581 3.494 8.371 5.274 3.051 1.742 5.846 3.094 8.787 4.66l4.353 2.278c.77.392 1.345.727 2.281 1.174l2.25 1.018c11.722 5.616 24.671 10.513 37.352 14.019 13.233 3.101 26.707 5.014 40.36 4.757 13.248-.393 26.761-3.05 39.563-5.838l38.704-8.418c12.887-2.946 25.816-5.052 38.89-4.47l5.006.199c.326.007 1.049.03 1.049.03l1.244.168 2.475.338c3.222.49 6.832.793 9.728 1.438l9.762 2.177c2.9.71 6.273 1.9 9.382 2.829l4.609 1.457 4.625 1.815c3.015 1.213 6.303 2.418 9.094 3.642l8.973 4.163c1.438.692 3.12 1.395 4.349 2.075l4.333 2.332 8.663 4.668 8.313 4.951a446.113 446.113 0 0 1 16.346 10.537c21.499 14.462 41.848 30.19 61.796 46.242 20 16.01 39.695 32.34 60.907 46.958 5.312 3.669 10.773 7.151 16.287 10.478 2.966 1.706 5.717 3.113 8.59 4.68l4.25 2.293c.794.404 1.248.715 2.31 1.197l2.242.94 8.973 3.77c3.14 1.384 6.261 2.239 9.49 3.145 6.425 1.698 13.148 2.709 19.875 2.506 6.72-.182 13.389-1.632 19.362-4.283 6.028-2.642 11.181-6.506 15.561-10.898 8.775-8.822 14.636-19.35 19.855-29.876 10.206-21.255 17.209-43.378 24.438-65.143 7.131-21.815 14.173-43.46 22.571-64.447 8.476-20.921 17.89-41.47 29.972-60.335l4.578-7.09 4.994-6.738 2.522-3.39.633-.847.626-.75 1.38-1.609 5.503-6.456c7.24-8.41 16.237-15.744 27.18-19.502 10.855-3.895 23.109-4.023 34.5-1.82l8.701 1.948 2.177.486 2.017.602 4.247 1.279c2.872.898 5.597 1.609 8.364 2.65l8.247 2.92c21.849 8.27 42.446 18.367 62.78 28.398 20.302 10.016 40.359 20.051 60.918 28.4 10.298 4.112 20.749 7.967 31.615 10.439 10.614 2.262 22.043 3.199 32.824 1.846 10.843-1.302 21.11-4.905 30.092-10a85.837 85.837 0 0 0 3.326-1.963c1.19-.762 2.095-1.473 3.152-2.211l6.106-4.377 1.523-1.092c.669-.536.976-.859 1.48-1.302l2.74-2.468 5.469-4.928c3.525-3.645 6.591-7.062 9.992-10.707 2.996-3.716 5.969-7.416 8.93-11.096 2.775-3.821 5.538-7.622 8.282-11.404 2.6-3.867 5.188-7.703 7.757-11.531 19.972-30.81 38-61.047 59.69-86.904 10.975-12.837 22.6-24.734 35.483-34.723 6.132-5.27 14.006-8.45 22.218-9.087 8.22-.606 16.455.809 24.204 2.95 15.44 4.742 29.64 11.182 43.13 17.77 13.513 6.549 26.385 13.129 38.836 19.328 24.857 12.429 47.966 23.552 69.76 31.675 1.446.58 2.9 1.127 4.353 1.64.544.253 1.088.502 1.636.75-1.547-.42-3.097-.85-4.66-1.294-21.783-6.18-45.046-15.379-70.23-25.546-12.615-5.049-25.696-10.408-39.54-15.434-13.897-4.897-28.435-9.969-44.544-10.983-7.963-.459-16.311.637-23.664 4.022-3.669 1.66-7.108 3.615-10.505 5.807-3.245 2.243-6.51 4.493-9.813 6.767-12.743 9.774-24.348 21.232-34.84 33.937-10.537 12.666-20.288 26.316-29.906 40.498-9.596 14.182-18.923 28.928-29.249 43.507-10.396 14.586-21.744 29.06-35.999 41.605-3.618 2.74-7.528 6.075-11.328 8.62l-6.296 3.821-3.102 1.878a90.093 90.093 0 0 1-3.307 1.636c-8.919 4.209-18.853 6.875-29.144 7.703-10.341.703-20.807-.237-31.11-2.51-2.545-.638-5.293-1.186-7.69-1.897l-7.668-2.363c-4.979-1.73-10.066-3.471-15.04-5.473-20.054-7.742-39.606-17.175-59.59-26.545-19.98-9.37-40.258-18.904-61.952-26.413-10.644-3.696-22.167-6.856-33.523-8.675-11.682-1.788-23.994-1.322-35.032 2.907-5.499 2.076-10.543 5.049-15.016 8.527a71.624 71.624 0 0 0-3.284 2.694l-3.04 2.918-5.945 5.784-5.457 6.335-2.681 3.14c-1.038 1.19-1.675 2.235-2.53 3.362l-4.827 6.658-1.213 1.663-1.142 1.796-2.192 3.47-4.38 6.95-4.038 7.221-3.991 7.237-3.72 7.365c-4.83 9.872-9.202 20.024-13.19 30.265-8.01 20.575-14.748 41.706-21.522 62.939-6.856 21.224-13.482 42.616-22.525 63.41l-3.556 7.699-3.867 7.5c-2.857 5.003-5.663 9.873-9.195 14.416-6.817 9.102-15.977 17.031-27.694 20.323-11.597 3.498-24.5 2.41-36.392-1.088l-2.246-.676-2.114-.805-4.439-1.683-4.438-1.687-2.048-.777-2.11-1.05-8.469-4.19-2.114-1.048-.944-.467-1.003-.598-4.053-2.39c-11.022-6.196-21.076-13.145-31.22-20.463-10.072-7.311-19.917-14.913-29.733-22.616-19.591-15.384-39.046-31.128-59.706-45.699-10.314-7.28-21.002-14.287-31.97-20.762-5.417-3.288-11.254-6.253-16.792-9.281l-2.106-1.135-2.282-1.077-4.356-2.028c-2.997-1.322-5.616-2.764-8.923-3.996-11.803-4.85-24.744-8.581-37.771-10.696-12.732-1.873-26.45-1.648-39.272.315-12.914 1.959-25.323 4.987-37.884 7.668-12.518 2.674-25.102 5.69-37.515 7.952l-9.362 1.388-9.684.548c-.731.031-1.792.124-2.243.105l-2.425-.074-4.862-.14-4.675-.144-4.83-.544-4.831-.548-2.414-.272c-.42-.02-1.484-.3-2.188-.427l-9.494-2.021-1.19-.253c-.435-.078-.435-.128-.986-.28l-2.309-.715-4.62-1.43-4.614-1.427c-1.263-.365-2.926-1.115-4.364-1.648-23.843-9.075-45.878-21.978-66.445-35.842l-7.403-5.538-7.062-6.06c-2.176-1.92-4.438-4.2-6.653-6.28-1.073-1.057-2.313-2.153-3.25-3.167l-3.178-3.316c-8.503-8.702-16.327-18.06-23.971-27.315-30.317-37.59-56.686-77.168-83.307-115.925-13.272-19.397-26.44-38.698-40.022-57.606-6.785-9.453-13.703-18.811-20.838-27.949-3.518-4.757-7.439-8.966-11.123-13.463-3.8-4.419-7.353-8.857-11.329-13.238-8.013-8.46-16.396-16.797-26.831-23.059-5.192-2.992-11.294-5.623-17.904-5.13-6.704.474-11.92 4.773-15.184 9.3-6.588 9.356-9.242 20.048-11.55 30.456-1.089 5.212-2.002 10.564-2.5 15.814-.606 5.259-1.204 10.502-1.803 15.73-3.738 42.064-2.938 83.417-3.043 123.538.086 40.114-.194 79.232-3.835 116.69-1.046 9.36-2.134 18.649-3.93 27.696-.47 2.235-.835 4.637-1.39 6.72l-1.878 6.658-1.877 6.634-.937 3.304-1.165 3.148c-6.89 16.79-17.155 32.1-25.996 47.479-8.985 15.355-17.531 30.498-26.384 45.03-8.908 14.52-17.963 28.504-27.325 41.854-9.374 13.354-18.165 26.611-25.654 40.028-7.458 13.428-13.913 26.817-19.925 39.853-11.807 26.157-22.692 50.693-33.485 73.087-5.437 11.17-10.843 21.839-16.925 31.555-1.52 2.437-3.016 4.847-4.504 7.225-1.422 2.352-3.253 4.544-4.823 6.778-1.679 2.177-3.152 4.52-4.932 6.475-1.818 2.006-3.622 3.988-5.394 5.94-7.077 7.741-15.844 13.684-25.296 16.603a50.969 50.969 0 0 1-14.286 2.192c-2.37.027-4.66-.09-6.93-.467-2.257-.326-4.531-.556-6.649-.952-8.643-1.862-16.288-4.602-23.03-7.668a8363.61 8363.61 0 0 1-9.452-4.699c-3.02-1.48-5.841-2.903-8.39-4.454-10.435-5.869-18.049-10.894-23.206-14.24-5.106-3.409-7.741-5.166-7.741-5.166s2.627 1.773 7.722 5.2c5.13 3.362 12.731 8.423 23.135 14.334 2.538 1.559 5.379 3.008 8.379 4.493l9.44 4.746c6.715 3.093 14.43 5.888 23.054 7.78 2.203.42 4.414.65 6.688.992 2.25.38 4.629.52 6.995.493a51.498 51.498 0 0 0 14.442-2.145c9.588-2.923 18.448-8.881 25.634-16.658 1.788-1.943 3.595-3.918 5.43-5.92 1.873-2.044 3.295-4.31 5.001-6.502 1.597-2.246 3.393-4.368 4.89-6.797 1.495-2.371 3.015-4.777 4.546-7.202 6.152-9.74 11.616-20.389 17.12-31.559 10.916-22.36 21.934-46.86 33.877-72.959 6.078-13 12.576-26.32 20.072-39.662 7.528-13.32 16.354-26.495 25.79-39.799 9.46-13.311 18.557-27.342 27.496-41.862 8.911-14.56 17.488-29.698 26.497-45.03 8.865-15.387 19.101-30.521 26.202-47.696l1.224-3.296.944-3.304 1.881-6.63 1.897-6.658c.63-2.386.948-4.57 1.434-6.871 1.838-9.15 2.938-18.458 4.003-27.836 3.723-37.673 4.073-76.744 4.057-116.9.175-40.141-.544-81.432 3.249-123.275l1.823-15.729c.517-5.286 1.407-10.396 2.495-15.608 2.27-10.257 5.01-20.813 11.192-29.523 3.082-4.24 7.594-7.808 13.14-8.189 5.507-.431 11.115 1.866 16.035 4.742 9.922 5.954 18.242 14.19 26.12 22.557 3.8 4.198 7.47 8.78 11.228 13.164 3.637 4.454 7.675 8.815 11.017 13.37 7.109 9.141 13.976 18.457 20.722 27.898C35.875 301.365 49 320.67 62.244 340.09c26.535 38.777 52.87 78.436 83.233 116.217 7.761 9.417 15.503 18.722 24.126 27.575l3.176 3.32c1.142 1.228 2.23 2.18 3.35 3.28 2.27 2.141 4.325 4.24 6.781 6.42l7.046 6.067 7.586 5.702c21.002 14.21 43.057 27.148 67.269 36.425 1.57.58 2.821 1.193 4.648 1.753l4.62 1.434 4.614 1.438 2.308.715c.226.074.976.319 1.341.377l1.185.257 9.49 2.032c.88.164 1.384.35 2.577.494l2.414.276 4.823.552 4.838.56 5.033.167 4.854.151 2.43.074c1.165.012 1.713-.074 2.599-.105l9.685-.532c3.571-.44 6.474-.945 9.739-1.415 12.868-2.32 25.222-5.278 37.806-7.948 12.53-2.659 25.067-5.686 37.65-7.563 12.64-1.862 25.13-2.196 38.157-.327 12.603 2.091 24.71 5.484 36.726 10.385 2.751.999 5.775 2.604 8.65 3.875l4.357 2.021 2.076.964 2.102 1.13c5.659 3.087 11.24 5.893 16.684 9.196 10.936 6.429 21.433 13.293 31.713 20.522 20.558 14.45 39.994 30.128 59.659 45.515 9.82 7.68 19.715 15.306 29.854 22.636 10.097 7.28 20.649 14.524 31.561 20.622l4.054 2.386 1.014.595 1.17.595 2.118 1.045 8.476 4.182 2.114 1.042 2.383.92 4.442 1.68 4.438 1.675 2.324.874 2.312.692c12.32 3.61 26.043 4.8 38.463 1.034 6.168-1.811 11.908-4.769 16.774-8.55 4.873-3.77 8.954-8.228 12.518-12.92 3.618-4.663 6.548-9.763 9.362-14.714l3.972-7.73 3.579-7.793c9.036-20.879 15.689-42.46 22.494-63.662 6.739-21.252 13.42-42.337 21.344-62.811 3.987-10.272 8.29-20.311 13.077-30.137l3.677-7.314 3.936-7.167 3.96-7.105 4.365-6.96 2.18-3.471 1.057-1.664 1.205-1.671 4.82-6.662c.8-1.06 1.612-2.332 2.397-3.21l2.678-3.144 5.285-6.172 5.938-5.795 2.923-2.825a77.655 77.655 0 0 1 3.167-2.604c4.314-3.366 9.094-6.184 14.31-8.162 10.419-4.035 22.288-4.5 33.434-2.81 11.546 1.85 22.272 4.788 33.158 8.523 21.41 7.377 41.728 16.876 61.676 26.203 19.968 9.324 39.652 18.78 59.803 26.53 10.136 3.856 20.174 7.563 30.76 9.794 10.513 2.32 21.371 3.269 31.93 2.527 10.571-.867 20.796-3.627 29.952-7.968 1.143-.54 2.278-1.1 3.39-1.679l3.221-1.955 6.292-3.828c4.271-2.892 7.664-5.842 11.667-8.912 14.38-12.705 25.809-27.358 36.15-41.913 10.357-14.664 19.67-29.449 29.218-43.619 9.545-14.143 19.295-27.773 29.695-40.436 10.354-12.678 21.86-24.105 34.336-33.778 3.276-2.29 6.54-4.563 9.778-6.817 3.245-2.115 6.685-4.097 10.229-5.71 7.073-3.295 15.11-4.391 22.906-3.983 3.898.19 7.815.672 11.554 1.36 3.793.859 7.559 1.71 11.286 2.557 7.271 2.064 14.45 4.276 21.336 6.802 13.812 4.951 26.924 10.256 39.563 15.25 25.234 10.07 48.548 19.177 70.443 25.287 2.682.754 5.344 1.469 7.975 2.134a282.52 282.52 0 0 0 15.646 6.39c-3.493-.553-6.975-1.179-10.473-1.812-5.993-1.236-12.075-2.449-18.006-3.957-5.98-1.461-11.919-2.98-17.826-4.675-5.935-1.605-11.807-3.358-17.69-5.115l-35.219-10.785c-5.895-1.757-11.752-3.525-17.717-5.115l-8.935-2.363-8.993-2.09c-3.066-.759-6.082-1.105-9.125-1.68l-4.551-.777-4.671-.393-4.61-.377-2.296-.194-2.36.058-9.292.272h-.011l-.035.008c-3.766.567-7.485 1.415-11.069 2.565l-10.384 4.104c-3.435 1.664-6.587 3.327-9.894 4.987-3.323 1.834-6.215 3.851-9.347 5.764-12.238 7.983-22.731 17.952-32.385 28.267-19.195 20.906-34.876 44.132-50.938 66.934-7.97 11.42-16.373 22.675-25.436 33.332-8.95 10.711-19.222 20.808-30.87 28.997l-4.418 3.13c-1.317.854-3.125 1.756-4.664 2.634-3.276 1.745-6.264 3.642-9.661 5.006-6.7 2.88-13.824 4.987-21.165 6.153-14.605 2.444-30.092.85-44.619-2.744-14.593-3.731-28.572-9.254-42.532-14.913-13.905-5.733-27.593-11.928-41.335-18.061-13.738-6.125-27.535-12.212-41.677-17.618-7.07-2.682-14.2-5.239-21.523-7.431-3.703-1.018-7.115-2.278-11.044-3.094-3.774-.773-7.256-1.764-11.27-2.359-3.837-.435-7.365-1.123-11.47-1.349-3.862-.023-7.446-.326-11.538-.116-7.64.579-15.355 2.266-22.156 5.57-3.385 1.678-6.65 3.423-9.552 5.818-2.834 2.296-5.663 4.244-8.496 6.828l-7.648 7.427-6.96 8.108-1.715 2.01-1.605 2.195-3.074 4.248-3.07 4.248c-1.108 1.559-1.9 2.973-2.864 4.466l-5.55 8.908-4.963 9.118c-6.645 12.211-12.117 24.948-17.103 37.773-9.957 25.675-17.839 51.956-26.23 78.02-4.204 13.016-8.518 26.063-13.47 38.772-2.533 6.37-5.125 12.729-8.118 18.873-.742 1.508-1.516 3.21-2.227 4.56l-2.588 4.508-5.157 8.939c-3.79 5.725-8.115 11.182-13.342 15.78-5.243 4.597-11.367 8.278-18.305 10.42-13.816 4.48-29.52 3.097-43.457-1.633-3.482-1.236-7.38-2.37-10.524-3.677l-10.29-4.61c-3.207-1.375-6.56-3.447-9.83-5.13l-4.931-2.662c-1.512-.789-3.171-1.87-4.753-2.79-12.74-7.614-24.806-16.033-36.772-24.711-23.886-17.338-46.842-35.733-71.354-52.62-6.093-4.144-12.385-8.365-18.7-12.228-3.242-2.083-6.471-3.785-9.705-5.698l-4.846-2.794c-.851-.474-1.504-.91-2.534-1.415l-2.499-1.282c-13.073-7.082-27.328-13.11-42.038-17.432-14.757-4.318-30.461-6.269-45.762-5.243-15.312.836-30.302 3.763-44.88 7.097-14.639 3.172-29.407 6.53-43.919 9.526-3.641.58-7.613 1.29-10.975 1.76l-11.332.79-11.185-.28-1.22-.039-1.415-.182-2.821-.366-5.659-.73c-14.78-2.364-29.066-6.992-42.738-12.896l-10.19-4.796c-3.264-1.438-6.583-3.436-9.879-5.127-6.684-3.482-12.93-7.143-19.319-11.08-12.58-7.742-24.783-16.188-36.757-24.789-11.923-8.41-22.362-18.531-32.21-29.16-19.435-21.233-36.706-44.148-53.588-67.18-16.863-23.083-33.112-46.51-49.839-69.718-8.406-11.578-16.78-23.164-25.572-34.528l-3.264-4.275-3.447-4.213-6.844-8.349c-4.563-5.51-9.02-11.236-14.034-16.53-4.959-5.34-10.1-10.532-15.767-15.351-5.69-4.726-11.799-9.351-19.357-11.952-3.74-1.255-8.057-1.815-12.067-.722-4.023 1.049-7.245 3.532-9.646 6.292-4.816 5.667-7.314 12.274-9.425 18.862-2.02 6.626-3.424 13.37-4.543 20.132-1.08 6.852-1.59 13.587-2.405 20.389-.354 3.416-.809 6.72-1.07 10.241l-.574 10.222c-.366 6.832-.832 13.607-1.104 20.478-.991 27.315-1.154 54.653-1.928 81.949-.84 27.272-1.888 54.602-5.293 81.606-1.792 13.514-4.22 27.027-8.892 39.729-4.982 12.701-11.43 25.037-18.005 37.113-6.553 12.137-14.209 23.805-21.507 35.616-7.345 11.796-14.714 23.584-22.51 35.127-7.706 11.61-15.736 22.981-24.029 34.264a820.913 820.913 0 0 0-23.714 34.544c-7.602 11.722-14.217 23.887-20.648 36.137-6.436 12.259-12.596 24.618-18.717 36.99-12.3 24.722-23.602 49.891-38.028 73.63-7.4 11.734-15.23 23.308-25.63 33.083-5.25 4.78-11.286 8.9-18.033 11.823-6.739 2.93-14.263 4.45-21.83 4.302-15.187-.466-29.951-5.488-43.207-12.309-13.529-6.486-26.257-14.29-38.767-22.29 12.472 8.054 25.153 15.913 38.67 22.465 13.248 6.88 27.977 11.979 43.305 12.527a53.129 53.129 0 0 0 22.074-4.252c6.825-2.923 12.938-7.058 18.25-11.85 10.482-9.744 18.472-21.396 25.938-33.118 14.577-23.72 26.023-48.858 38.447-73.51 6.187-12.344 12.41-24.673 18.9-36.873 6.482-12.2 13.17-24.349 20.787-35.954a818.334 818.334 0 0 1 23.843-34.358c8.317-11.243 16.412-22.686 24.142-34.283 7.83-11.555 15.227-23.335 22.599-35.13 7.333-11.816 14.993-23.445 21.616-35.664 6.676-12.208 13.097-24.423 18.18-37.3 4.835-13.082 7.252-26.619 9.075-40.129 3.482-27.182 4.578-54.509 5.468-81.82.824-27.322 1.033-54.653 2.075-81.933.284-6.766.77-13.614 1.139-20.424l.594-10.221c.245-3.285.723-6.755 1.077-10.121.82-6.751 1.364-13.642 2.429-20.276 1.119-6.693 2.518-13.35 4.508-19.826 2.036-6.393 4.594-12.888 8.97-17.983 2.2-2.518 4.99-4.594 8.274-5.445 3.276-.886 6.906-.45 10.287.68 6.828 2.344 12.809 6.798 18.324 11.415 5.503 4.691 10.605 9.853 15.487 15.134 4.947 5.243 9.3 10.86 13.905 16.437l6.824 8.352 3.378 4.14 3.249 4.274c8.74 11.334 17.1 22.931 25.467 34.51 16.66 23.183 32.882 46.665 49.721 69.798 16.89 23.114 34.115 46.068 53.74 67.58 9.794 10.599 20.361 20.926 32.638 29.624 12.024 8.659 24.185 17.108 36.94 24.994 6.272 3.875 12.89 7.766 19.486 11.205 3.365 1.738 6.432 3.61 10.046 5.232l10.182 4.811c13.929 6.055 28.65 10.86 43.912 13.312l5.654.734 2.826.37 1.414.182c.879.078 1.061.043 1.625.07 3.886.097 7.396.249 11.585.292l11.333-.766c4.107-.556 7.539-1.197 11.348-1.792 14.927-3.047 29.439-6.335 44.16-9.502 14.66-3.331 29.338-6.157 44.331-6.95 14.963-.94 29.983.933 44.285 5.088 1.745.505 3.848.972 5.301 1.516l5.324 1.912 5.336 1.912 1.333.482 1.162.501 2.589 1.131c3.385 1.504 7.022 3.032 10.205 4.513l10.015 5.095 2.5 1.283c.668.303 1.58.882 2.358 1.313l4.854 2.787c3.183 1.873 6.58 3.677 9.588 5.616 6.393 3.89 12.424 7.932 18.596 12.11 24.328 16.705 47.37 35.092 71.349 52.446 11.97 8.655 24.227 17.183 37.087 24.843 1.648.952 3.098 1.908 4.905 2.86l4.935 2.655c3.39 1.733 6.382 3.626 10.085 5.235l10.303 4.598c3.816 1.559 7.233 2.507 10.866 3.79 14.512 4.9 31.017 6.377 45.774 1.593 7.34-2.27 13.994-6.28 19.454-11.112 5.504-4.858 9.957-10.509 13.832-16.393l5.23-9.083 2.574-4.513c.901-1.706 1.53-3.155 2.312-4.741 3.043-6.265 5.627-12.655 8.161-19.052 4.998-12.9 9.27-25.908 13.459-38.97 8.348-26.11 16.167-52.345 26.038-77.93 4.947-12.78 10.338-25.388 16.898-37.51l4.943-9.126 5.468-8.791c.921-1.43 1.835-3.043 2.756-4.33l3.07-4.248 3.066-4.252 1.473-2.044 1.714-2.013 6.778-7.94 7.633-7.44c2.417-2.226 5.545-4.442 8.278-6.661 2.615-2.192 5.86-3.949 9.04-5.523 6.458-3.148 13.706-4.753 21.133-5.328 3.467-.202 7.5.081 11.22.097 3.478.182 7.454.898 11.161 1.317 3.506.502 7.361 1.547 11.018 2.293 3.517.708 7.236 2.04 10.84 3.032 7.193 2.138 14.305 4.668 21.343 7.33 14.06 5.352 27.818 11.395 41.556 17.497 13.735 6.102 27.453 12.286 41.425 18.022a546.13 546.13 0 0 0 21.153 8.174l10.827 3.684c3.677 1.038 7.155 2.212 11.003 3.13 14.83 3.61 30.371 5.25 45.606 2.712a91.763 91.763 0 0 0 21.724-6.35c3.49-1.408 6.673-3.42 9.852-5.12 1.629-.936 3.136-1.655 4.862-2.77l4.423-3.137c11.958-8.473 22.105-18.504 31.168-29.367 9.16-10.809 17.5-22.033 25.487-33.522 16.015-22.868 31.689-45.986 50.619-66.876 9.588-10.342 19.851-20.195 31.91-28.143 3.063-1.896 6.122-4.026 9.184-5.732l9.74-4.971 10.255-4.112c3.51-1.147 7.132-1.986 10.816-2.562l-.05.008 9.148-.307 2.246-.07 2.305.179 4.605.361 4.547.354 4.555.758c3.012.56 6.144.91 9.055 1.628l9 2.049 8.9 2.316c5.92 1.55 11.838 3.308 17.71 5.03l35.269 10.63c5.892 1.733 11.795 3.466 17.737 5.048 5.907 1.663 11.896 3.175 17.87 4.601 5.996 1.5 12.008 2.67 18.075 3.89 4.294.759 8.612 1.517 12.949 2.13 1.298.467 2.588.922 3.875 1.357a247.497 247.497 0 0 0 8.033 3.409c2.083.8 4.073 1.721 6.23 2.421l6.37 2.052c3.649 1.337 7.543 2.037 11.347 2.911-14.92-.505-31.658-2.464-49.873-5.752-20.905-3.782-43.698-9.487-68.629-15.266-12.51-2.748-25.463-5.834-39.252-7.61-3.404-.58-6.98-.77-10.454-1.054-1.776-.132-3.56-.264-5.355-.4-1.772.039-3.548.082-5.336.124l-5.375.129c-1.986.042-3.614.474-5.445.695-3.501.568-7.302.957-10.788 1.979-7.147 1.609-14.212 3.886-21.258 6.517-3.436 1.466-6.856 2.791-10.385 4.4-3.272 1.695-6.832 3.33-9.984 5.352-6.63 3.774-12.685 8.387-18.697 13.117-5.88 4.983-11.546 10.152-16.925 15.791-10.796 11.159-20.803 23.394-30.636 36.138-9.84 12.744-19.404 26.082-29.979 39.141-10.57 13.028-22.086 25.951-36.123 36.938-13.929 10.96-30.835 19.826-50.002 22.749-4.504.373-9.79 1.03-14.403 1.08-2.429-.05-5.056-.023-7.33-.144l-7.45-.68c-9.785-1.244-19.458-3.603-29.05-6.592-19.206-6.171-38.035-13.93-57.051-22.036-19.055-8.042-38.175-16.58-58.447-23.553-4.997-1.803-10.236-3.346-15.323-4.909l-7.886-2.033-3.921-1.006c-1.523-.354-2.717-.513-4.088-.777l-8.01-1.458-8.29-.672c-5.569-.595-11.138-.206-16.633.598-5.496.86-10.87 2.39-15.868 4.621-1.271.58-2.445 1.092-3.731 1.85l-3.397 2.052c-2.28 1.462-4.492 2.527-6.836 4.318l-6.19 4.855-1.555 1.212a7.098 7.098 0 0 0-.847.735l-.692.684-2.79 2.724c-1.874 1.882-3.7 3.506-5.605 5.605l-4.997 5.935c-13.187 16.133-23.249 34.43-31.608 53.355-16.789 37.925-27.38 78.369-41.253 118.245-7.09 19.895-14.597 39.752-27.038 57.54-6.253 8.668-14.24 16.53-24.484 21.144-10.224 4.636-22.124 6.129-33.717 4.908a94.258 94.258 0 0 1-8.698-1.302c-1.399-.291-2.95-.614-4.197-.948l-4.29-1.27-8.407-2.527-8.278-3.327-4.146-1.66c-1.108-.47-2.596-1.255-3.879-1.865l-7.986-3.914c-5.107-2.557-10.284-5.702-15.43-8.531-20.18-11.932-39.29-25.636-58.492-39.247-19.234-13.622-38.393-27.346-59.146-39.538-20.73-12.052-42.797-22.188-67.07-27.711l-8.986-1.508-2.242-.377c-.474-.07-.54-.113-1.341-.202l-1.131-.082-4.547-.322-4.54-.335-1.138-.081c-.35-.043-1.007-.043-1.27-.043l-2.274-.016c-3.09-.011-5.93-.081-9.23-.038-12.025.322-24.426 2.133-36.151 4.57-11.717 2.558-23.427 5.115-35.132 7.665l-17.477 3.766-8.853 1.597-2.208.396c-.416.098-1.407.152-2.079.234l-4.496.439-4.49.439-1.118.109-.906-.02-2.27-.042-9.055-.171-8.771-1.14c-1.407-.209-3.19-.341-4.29-.621l-4.42-.983c-2.864-.677-6.05-1.263-8.65-2.014l-8.62-2.62c-1.376-.446-3.016-.862-4.17-1.324l-4.201-1.578-8.282-3.106c-5.344-2.495-11.041-4.792-16.09-7.435l-7.873-4.104c-1.271-.68-2.705-1.384-3.848-2.04l-3.828-2.208c-10.322-5.772-20.065-11.99-29.649-18.609-9.54-6.603-18.806-13.514-27.919-20.556-9.117-7.081-18.184-14.058-26.334-21.812-16.198-15.79-30.414-33.012-44.06-50.381-27.336-34.754-52.123-70.483-79.397-103.966-6.953-8.325-13.855-16.573-21.487-24.31-7.625-7.684-15.577-15.298-25.53-20.778-4.924-2.604-10.9-4.761-16.987-3.58-6.12 1.22-10.28 5.527-13.112 9.853-5.577 8.869-7.956 18.745-10.039 28.395-1.022 4.82-1.76 9.77-2.289 14.621-.602 4.855-1.197 9.705-1.791 14.532-1.15 9.779-1.54 19.383-2.34 28.994-1.228 19.242-1.986 38.225-3.04 56.942-1.033 18.718-2.106 37.183-4.049 55.264-2.028 18.084-4.593 35.814-10.784 52.39-6.343 16.476-13.595 32.461-21.406 47.763-7.792 15.328-16.424 29.903-26.07 43.553-9.63 13.669-19.276 26.953-29.07 39.674-4.978 6.323-9.898 12.57-14.756 18.745-4.842 6.214-9.44 12.437-13.99 18.585-9.08 12.294-17.784 24.443-25.359 36.69-7.551 12.23-14.504 24.341-21.122 36.098-13.346 23.49-24.255 46.173-36.065 66.344-5.876 10.105-11.566 19.732-18.033 28.419-2.954 4.516-6.568 8.395-9.825 12.437-1.562 2.071-3.56 3.673-5.335 5.534-1.866 1.722-3.498 3.712-5.488 5.142-4.046 3.024-7.718 6.215-12.06 8.391-4.235 2.286-8.674 4.054-13.178 5.193-9.02 2.375-18.095 1.94-26.182.595-16.346-2.733-28.942-9.169-39.058-13.895-10.073-4.983-17.43-9.367-22.428-12.262l-7.504-4.481s2.545 1.539 7.481 4.516c4.982 2.91 12.324 7.334 22.366 12.363 10.104 4.769 22.665 11.267 39.08 14.089 8.115 1.384 17.268 1.873 26.397-.482 4.555-1.135 9.043-2.892 13.334-5.185 4.4-2.184 8.15-5.402 12.18-8.387 2.118-1.52 3.672-3.432 5.573-5.165 1.744-1.808 3.847-3.502 5.41-5.558 3.252-3.992 6.96-7.94 9.929-12.43 6.506-8.643 12.308-18.328 18.235-28.402 11.934-20.14 22.98-42.78 36.434-66.177 6.68-11.73 13.672-23.759 21.297-35.963 7.633-12.192 16.334-24.201 25.487-36.456 9.047-12.324 18.837-24.582 28.848-37.233 9.848-12.752 19.517-26.013 29.198-39.698 9.704-13.68 18.44-28.368 26.287-43.74 7.881-15.375 15.149-31.298 21.589-47.932 6.284-16.724 8.934-34.766 10.978-52.819 1.99-18.143 3.102-36.623 4.17-55.349 1.08-18.721 1.885-37.742 3.14-56.895.813-9.561 1.24-19.324 2.383-28.878.598-4.827 1.209-9.673 1.815-14.528.544-4.885 1.263-9.642 2.293-14.458 2.06-9.53 4.48-19.246 9.778-27.602 2.623-4.027 6.424-7.746 11.36-8.675 4.94-.983 10.275.82 14.92 3.3 9.385 5.177 17.27 12.674 24.77 20.28 7.517 7.645 14.407 15.904 21.267 24.147 27.115 33.398 51.855 69.181 79.195 104.067 13.657 17.435 27.904 34.766 44.203 50.716 8.317 7.936 17.524 15.045 26.61 22.13 9.137 7.086 18.445 14.046 28.052 20.716 9.568 6.642 19.587 13.043 29.847 18.8l3.824 2.214c1.418.809 2.646 1.407 3.983 2.119l7.862 4.12c5.437 2.84 10.843 5.01 16.272 7.547l8.504 3.222 4.2 1.578c1.633.63 2.923.933 4.404 1.415l8.616 2.635c3.183.905 5.946 1.387 8.943 2.103l4.414.99c1.83.409 3.09.448 4.66.692l9.207 1.178 9.059.19 2.262.051c.478-.004.524.035 1.36.004l1.123-.113 4.493-.431 4.496-.436c.82-.097 1.341-.085 2.406-.275l2.211-.393 8.857-1.578 17.632-3.774c11.702-2.53 23.412-5.068 35.121-7.602 11.764-2.398 23.291-4.104 35.525-4.435l8.962.063 2.274.02c.497.01.594-.013 1.002.03l1.135.086 4.543.334 4.543.338 1.135.082.913.151 2.243.381 8.981 1.524 8.632 2.219c1.39.37 3.109.754 4.236 1.115l4.294 1.45 8.445 2.876 8.344 3.447 4.17 1.722 3.937 1.89 8.087 3.925c5.15 2.596 10.424 5.693 15.627 8.511 20.345 11.905 39.637 25.652 58.847 39.22 19.238 13.58 38.393 27.283 58.901 39.37 20.458 11.866 42.377 22.632 66.834 25.706 12.148 1.264 24.748-.314 35.606-5.266 10.94-4.951 19.288-13.273 25.704-22.188 3.214-4.664 5.702-9.278 8.578-13.91 1.492-2.507 2.495-4.82 3.765-7.241 1.256-2.495 2.254-4.882 3.393-7.33 4.345-9.825 8.064-19.818 11.566-29.818 13.824-40.008 24.344-80.464 40.946-118.129 8.259-18.787 18.15-36.848 31.134-52.807l4.986-5.942c1.57-1.745 3.637-3.63 5.425-5.437l2.783-2.729.695-.688c.241-.252.272-.26.634-.544l1.55-1.216 6.176-4.862c1.8-1.423 4.403-2.764 6.564-4.147l3.385-2.053c.991-.594 2.273-1.173 3.432-1.702 4.764-2.134 9.883-3.603 15.125-4.434 5.239-.77 10.66-1.159 15.942-.587l7.986.618 8.01 1.442c1.283.244 2.771.47 3.886.73l3.914 1 7.76 1.985c5.181 1.582 10.218 3.055 15.24 4.854 20.06 6.86 39.255 15.384 58.302 23.394 19.031 8.08 38.02 15.865 57.296 22.025 9.697 3.004 19.614 5.422 29.657 6.67l7.446.668c2.685.136 5.013.09 7.536.148 2.736.14 4.982-.33 7.492-.463 2.503-.237 4.742-.361 7.462-.7 19.576-3.035 36.796-12.118 50.88-23.245 14.212-11.159 25.797-24.221 36.392-37.323 10.602-13.137 20.135-26.487 29.924-39.216 9.778-12.736 19.75-24.92 30.41-36.083 5.267-5.588 10.945-10.82 16.658-15.705 3.035-2.301 5.926-4.847 9.012-6.903l4.66-3.237c1.477-1.003 3.206-1.963 4.78-2.942 3.171-2.053 6.51-3.588 9.86-5.344 3.303-1.524 6.875-2.939 10.252-4.396 3.311-1.411 7.003-2.43 10.435-3.65l2.611-.874 2.627-.665 5.32-1.348c3.518-1.046 7.008-1.396 10.634-2.002 1.749-.221 3.63-.684 5.258-.707 1.8-.047 3.591-.097 5.375-.148l5.336-.152c1.749.133 3.486.253 5.22.381 3.54.272 6.94.428 10.368.995 13.672 1.695 26.71 4.73 39.182 7.416 24.938 5.67 47.79 11.275 68.73 14.967 18.992 3.343 36.372 5.247 51.758 5.585 2.196.443 4.376.564 6.568.867 2.211.287 4.465.548 6.707.536 4.481.086 8.966-.148 13.389-.692l.012-.004c3.614-.738 7.178-1.66 10.617-2.852 3.16-.432 6.136-.918 8.927-1.45 11.072-2.16 19.338-4.536 24.787-6.405 5.51-1.714 8.27-2.798 8.27-2.798s-2.763 1.072-8.29 2.767c-5.456 1.838-13.734 4.17-24.798 6.28-2.519.47-5.18.902-7.99 1.283"/>
</svg>
