<svg xmlns="http://www.w3.org/2000/svg" width="16" height="16" viewBox="0 0 16 16">
    <path fill="#99A0AE" fill-rule="evenodd" d="M7.274 1.194C10.178.775 13.088.381 15.998 0c.002 2.405 0 4.807.002 7.212-2.908.01-5.816.052-8.726.06-.002-2.027-.002-4.052 0-6.078zM0 2.28a250.09 250.09 0 0 1 6.542-.825c.002 1.931.002 3.862.003 5.794-2.181-.002-4.363.028-6.545.023V2.28zM0 8c2.18-.006 4.362.026 6.542.023 0 1.932.006 3.863.002 5.795-2.179-.295-4.361-.554-6.544-.825V8.001zm7.273 0h8.725c.004 2.424 0 4.847 0 7.273a659.7 659.7 0 0 0-8.712-1.176c-.004-2.032-.01-4.064-.013-6.097z"/>
</svg>
